<svg xmlns="http://www.w3.org/2000/svg" viewBox="0 0 2000 1125">
   <mask id="b" width="2000" height="1125" x="0" y="0">
      <path fill="url(#a)" d="M0 0h2000v1125H0z" />
   </mask>
   <path fill="#fff" d="M0 0h2000v1125H0z" />
   <g
      stroke="#eee"
      stroke-width="0.6"
      mask="url(#b)"
      style="transform-origin: center center;"
      >
      <path
         fill="none"
         d="M0 0h111.111v111.111H0zm111.111 0h111.111v111.111H111.111zm111.111 0h111.111v111.111H222.222zm111.111 0h111.111v111.111H333.333z"
         />
      <path fill="#EAE9FCaf" d="M444.444 0h111.111v111.111H444.444z" />
      <path
         fill="none"
         d="M555.556 0h111.111v111.111H555.556zm111.111 0h111.111v111.111H666.667zm111.111 0h111.111v111.111H777.778zm111.111 0H1000v111.111H888.889zM1000 0h111.111v111.111H1000zm111.111 0h111.111v111.111h-111.111z"
         />
      <path
         fill="none"
         d="M1222.222 0h111.111v111.111h-111.111zm111.111 0h111.111v111.111h-111.111z"
         />
      <path fill="none" d="M1444.444 0h111.111v111.111h-111.111z" />
      <path fill="#EAE9FC0b" d="M1555.556 0h111.111v111.111h-111.111z" />
      <path fill="none" d="M1666.667 0h111.111v111.111h-111.111z" />
      <path fill="#EAE9FCd1" d="M1777.778 0h111.111v111.111h-111.111z" />
      <path
         fill="none"
         d="M1888.889 0H2000v111.111h-111.111zM0 111.111h111.111v111.111H0z"
         />
      <path fill="#EAE9FC1c" d="M111.111 111.111h111.111v111.111H111.111z" />
      <path fill="none" d="M222.222 111.111h111.111v111.111H222.222z" />
      <path fill="#EAE9FC2b" d="M333.333 111.111h111.111v111.111H333.333z" />
      <path fill="#EAE9FCc2" d="M444.444 111.111h111.111v111.111H444.444z" />
      <path fill="none" d="M555.556 111.111h111.111v111.111H555.556z" />
      <path fill="#EAE9FCef" d="M666.667 111.111h111.111v111.111H666.667z" />
      <path
         fill="none"
         d="M777.778 111.111h111.111v111.111H777.778zm111.111 0H1000v111.111H888.889z"
         />
      <path fill="#EAE9FC77" d="M1000 111.111h111.111v111.111H1000z" />
      <path fill="#EAE9FCea" d="M1111.111 111.111h111.111v111.111h-111.111z" />
      <path
         fill="none"
         d="M1222.222 111.111h111.111v111.111h-111.111zm111.111 0h111.111v111.111h-111.111z"
         />
      <path
         fill="none"
         d="M1444.444 111.111h111.111v111.111h-111.111zm111.112 0h111.111v111.111h-111.111z"
         />
      <path
         fill="none"
         d="M1666.667 111.111h111.111v111.111h-111.111zm111.111 0h111.111v111.111h-111.111z"
         />
      <path
         fill="none"
         d="M1888.889 111.111H2000v111.111h-111.111zM0 222.222h111.111v111.111H0zm111.111 0h111.111v111.111H111.111z"
         />
      <path fill="#EAE9FCd1" d="M222.222 222.222h111.111v111.111H222.222z" />
      <path
         fill="none"
         d="M333.333 222.222h111.111v111.111H333.333zm111.111 0h111.111v111.111H444.444zm111.112 0h111.111v111.111H555.556zm111.111 0h111.111v111.111H666.667z"
         />
      <path fill="#EAE9FC04" d="M777.778 222.222h111.111v111.111H777.778z" />
      <path fill="#EAE9FC1f" d="M888.889 222.222H1000v111.111H888.889z" />
      <path fill="none" d="M1000 222.222h111.111v111.111H1000z" />
      <path fill="#EAE9FCb1" d="M1111.111 222.222h111.111v111.111h-111.111z" />
      <path
         fill="none"
         d="M1222.222 222.222h111.111v111.111h-111.111zm111.111 0h111.111v111.111h-111.111z"
         />
      <path
         fill="none"
         d="M1444.444 222.222h111.111v111.111h-111.111zm111.112 0h111.111v111.111h-111.111z"
         />
      <path
         fill="none"
         d="M1666.667 222.222h111.111v111.111h-111.111zm111.111 0h111.111v111.111h-111.111z"
         />
      <path
         fill="#EAE9FC47"
         d="M1888.889 222.222H2000v111.111h-111.111z"
         />
      <path fill="#EAE9FCd0" d="M0 333.333h111.111v111.111H0z" />
      <path fill="#EAE9FC9e" d="M111.111 333.333h111.111v111.111H111.111z" />
      <path fill="none" d="M222.222 333.333h111.111v111.111H222.222z" />
      <path fill="#EAE9FCbd" d="M333.333 333.333h111.111v111.111H333.333z" />
      <path fill="none" d="M444.444 333.333h111.111v111.111H444.444z" />
      <path fill="#EAE9FC72" d="M555.556 333.333h111.111v111.111H555.556z" />
      <path
         fill="none"
         d="M666.667 333.333h111.111v111.111H666.667zm111.111 0h111.111v111.111H777.778zm111.111 0H1000v111.111H888.889z"
         />
      <path fill="#EAE9FC58" d="M1000 333.333h111.111v111.111H1000z" />
      <path
         fill="none"
         d="M1111.111 333.333h111.111v111.111h-111.111z"
         />
      <path
         fill="none"
         d="M1222.222 333.333h111.111v111.111h-111.111zm111.111 0h111.111v111.111h-111.111z"
         />
      <path
         fill="none"
         d="M1444.444 333.333h111.111v111.111h-111.111z"
         />
      <path
         fill="#EAE9FCd7"
         d="M1555.556 333.333h111.111v111.111h-111.111z"
         />
      <path
         fill="#EAE9FC57"
         d="M1666.667 333.333h111.111v111.111h-111.111z"
         />
      <path
         fill="#EAE9FC75"
         d="M1777.778 333.333h111.111v111.111h-111.111z"
         />
      <path
         fill="#EAE9FCbf"
         d="M1888.889 333.333H2000v111.111h-111.111z"
         />
      <path fill="#EAE9FC16" d="M0 444.444h111.111v111.111H0z" />
      <path
         fill="none"
         d="M111.111 444.444h111.111v111.111H111.111zm111.111 0h111.111v111.111H222.222zm111.111 0h111.111v111.111H333.333zm111.111 0h111.111v111.111H444.444zm111.112 0h111.111v111.111H555.556zm111.111 0h111.111v111.111H666.667zm111.111 0h111.111v111.111H777.778z"
         />
      <path
         fill="#EAE9FC5b"
         d="M888.889 444.444H1000v111.111H888.889z"
         />
      <path
         fill="none"
         d="M1000 444.444h111.111v111.111H1000zm111.111 0h111.111v111.111h-111.111z"
         />
      <path
         fill="#EAE9FCfb"
         d="M1222.222 444.444h111.111v111.111h-111.111z"
         />
      <path
         fill="none"
         d="M1333.333 444.444h111.111v111.111h-111.111z"
         />
      <path
         fill="none"
         d="M1444.444 444.444h111.111v111.111h-111.111zm111.112 0h111.111v111.111h-111.111z"
         />
      <path
         fill="none"
         d="M1666.667 444.444h111.111v111.111h-111.111zm111.111 0h111.111v111.111h-111.111z"
         />
      <path
         fill="none"
         d="M1888.889 444.444H2000v111.111h-111.111zM0 555.556h111.111v111.111H0z"
         />
      <path
         fill="#EAE9FC9e"
         d="M111.111 555.556h111.111v111.111H111.111z"
         />
      <path
         fill="#EAE9FCf4"
         d="M222.222 555.556h111.111v111.111H222.222z"
         />
      <path
         fill="none"
         d="M333.333 555.556h111.111v111.111H333.333zm111.111 0h111.111v111.111H444.444zm111.112 0h111.111v111.111H555.556zm111.111 0h111.111v111.111H666.667z"
         />
      <path
         fill="#EAE9FC87"
         d="M777.778 555.556h111.111v111.111H777.778z"
         />
      <path
         fill="none"
         d="M888.889 555.556H1000v111.111H888.889zm111.111 0h111.111v111.111H1000zm111.111 0h111.111v111.111h-111.111z"
         />
      <path
         fill="none"
         d="M1222.222 555.556h111.111v111.111h-111.111zm111.111 0h111.111v111.111h-111.111z"
         />
      <path
         fill="#EAE9FCd4"
         d="M1444.444 555.556h111.111v111.111h-111.111z"
         />
      <path
         fill="none"
         d="M1555.556 555.556h111.111v111.111h-111.111z"
         />
      <path
         fill="#EAE9FCec"
         d="M1666.667 555.556h111.111v111.111h-111.111z"
         />
      <path
         fill="none"
         d="M1777.778 555.556h111.111v111.111h-111.111z"
         />
      <path
         fill="#EAE9FCce"
         d="M1888.889 555.556H2000v111.111h-111.111z"
         />
      <path
         fill="none"
         d="M0 666.667h111.111v111.111H0zm111.111 0h111.111v111.111H111.111zm111.111 0h111.111v111.111H222.222z"
         />
      <path
         fill="#EAE9FCbd"
         d="M333.333 666.667h111.111v111.111H333.333z"
         />
      <path
         fill="#EAE9FCc7"
         d="M444.444 666.667h111.111v111.111H444.444z"
         />
      <path
         fill="#EAE9FC2a"
         d="M555.556 666.667h111.111v111.111H555.556z"
         />
      <path
         fill="#EAE9FC24"
         d="M666.667 666.667h111.111v111.111H666.667z"
         />
      <path
         fill="#EAE9FCdd"
         d="M777.778 666.667h111.111v111.111H777.778z"
         />
      <path
         fill="none"
         d="M888.889 666.667H1000v111.111H888.889zm111.111 0h111.111v111.111H1000zm111.111 0h111.111v111.111h-111.111z"
         />
      <path
         fill="#EAE9FC9a"
         d="M1222.222 666.667h111.111v111.111h-111.111z"
         />
      <path
         fill="none"
         d="M1333.333 666.667h111.111v111.111h-111.111z"
         />
      <path
         fill="none"
         d="M1444.444 666.667h111.111v111.111h-111.111zm111.112 0h111.111v111.111h-111.111z"
         />
      <path
         fill="none"
         d="M1666.667 666.667h111.111v111.111h-111.111zm111.111 0h111.111v111.111h-111.111z"
         />
      <path
         fill="#EAE9FC12"
         d="M1888.889 666.667H2000v111.111h-111.111z"
         />
      <path fill="none" d="M0 777.778h111.111v111.111H0z" />
      <path
         fill="#EAE9FC68"
         d="M111.111 777.778h111.111v111.111H111.111z"
         />
      <path
         fill="#EAE9FC69"
         d="M222.222 777.778h111.111v111.111H222.222z"
         />
      <path
         fill="none"
         d="M333.333 777.778h111.111v111.111H333.333zm111.111 0h111.111v111.111H444.444zm111.112 0h111.111v111.111H555.556zm111.111 0h111.111v111.111H666.667zm111.111 0h111.111v111.111H777.778zm111.111 0H1000v111.111H888.889z"
         />
      <path fill="#EAE9FC46" d="M1000 777.778h111.111v111.111H1000z" />
      <path
         fill="none"
         d="M1111.111 777.778h111.111v111.111h-111.111z"
         />
      <path
         fill="#EAE9FC0d"
         d="M1222.222 777.778h111.111v111.111h-111.111z"
         />
      <path
         fill="#EAE9FCda"
         d="M1333.333 777.778h111.111v111.111h-111.111z"
         />
      <path
         fill="#EAE9FC60"
         d="M1444.444 777.778h111.111v111.111h-111.111z"
         />
      <path
         fill="none"
         d="M1555.556 777.778h111.111v111.111h-111.111z"
         />
      <path
         fill="#EAE9FC09"
         d="M1666.667 777.778h111.111v111.111h-111.111z"
         />
      <path
         fill="#EAE9FC2d"
         d="M1777.778 777.778h111.111v111.111h-111.111z"
         />
      <path
         fill="none"
         d="M1888.889 777.778H2000v111.111h-111.111zM0 888.889h111.111V1000H0z"
         />
      <path
         fill="#EAE9FC1b"
         d="M111.111 888.889h111.111V1000H111.111z"
         />
      <path
         fill="#EAE9FC05"
         d="M222.222 888.889h111.111V1000H222.222z"
         />
      <path
         fill="#EAE9FC5d"
         d="M333.333 888.889h111.111V1000H333.333z"
         />
      <path fill="none" d="M444.444 888.889h111.111V1000H444.444z" />
      <path
         fill="#EAE9FCfd"
         d="M555.556 888.889h111.111V1000H555.556z"
         />
      <path fill="none" d="M666.667 888.889h111.111V1000H666.667z" />
      <path
         fill="#EAE9FC14"
         d="M777.778 888.889h111.111V1000H777.778z"
         />
      <path fill="#EAE9FC2b" d="M888.889 888.889H1000V1000H888.889z" />
      <path
         fill="#EAE9FC11"
         d="M1000 888.889h111.111V1000H1000zm111.111 0h111.111V1000h-111.111z"
         />
      <path fill="none" d="M1222.222 888.889h111.111V1000h-111.111z" />
      <path
         fill="#EAE9FCcb"
         d="M1333.333 888.889h111.111V1000h-111.111z"
         />
      <path
         fill="none"
         d="M1444.444 888.889h111.111V1000h-111.111zm111.112 0h111.111V1000h-111.111z"
         />
      <path fill="none" d="M1666.667 888.889h111.111V1000h-111.111z" />
      <path
         fill="#EAE9FC2f"
         d="M1777.778 888.889h111.111V1000h-111.111z"
         />
      <path
         fill="#EAE9FCec"
         d="M1888.889 888.889H2000V1000h-111.111z"
         />
      <path
         fill="none"
         d="M0 1000h111.111v111.111H0zm111.111 0h111.111v111.111H111.111zm111.111 0h111.111v111.111H222.222zm111.111 0h111.111v111.111H333.333zm111.111 0h111.111v111.111H444.444zm111.112 0h111.111v111.111H555.556z"
         />
      <path
         fill="#EAE9FCf0"
         d="M666.667 1000h111.111v111.111H666.667z"
         />
      <path fill="#EAE9FCf0" d="M1000 1000h111.111v111.111H1000z" />
      <path
         fill="#EAE9FCa8"
         d="M1111.111 1000h111.111v111.111h-111.111z"
         />
      <path
         fill="#EAE9FCcf"
         d="M1222.222 1000h111.111v111.111h-111.111z"
         />
      <path
         fill="#EAE9FCde"
         d="M1555.556 1000h111.111v111.111h-111.111z"
         />
      <path
         fill="#EAE9FC29"
         d="M1666.667 1000h111.111v111.111h-111.111z"
         />
      <path fill="#EAE9FCfd" d="M0 1111.111h111.111v111.111H0z" />
      <path
         fill="#EAE9FC48"
         d="M111.111 1111.111h111.111v111.111H111.111z"
         />
      <path
         fill="#EAE9FC6d"
         d="M777.778 1111.111h111.111v111.111H777.778z"
         />
      <path
         fill="#EAE9FCe4"
         d="M1111.111 1111.111h111.111v111.111h-111.111z"
         />
      <path
         fill="#EAE9FCb8"
         d="M1666.667 1111.111h111.111v111.111h-111.111z"
         />
      <path
         fill="#EAE9FCea"
         d="M1888.889 1111.111H2000v111.111h-111.111z"
         />
   </g>
   <defs>
      <radialGradient id="a">
         <stop offset="0" stop-color="#fff" />
         <stop offset="1" stop-color="#fff" stop-opacity="0" />
      </radialGradient>
   </defs>
</svg>