<svg xmlns="http://www.w3.org/2000/svg" xmlns:xlink="http://www.w3.org/1999/xlink" width="500" zoomAndPan="magnify" viewBox="0 0 375 149.999998" height="200" preserveAspectRatio="xMidYMid meet" version="1.0"><defs><g/><clipPath id="434a0b46e9"><path d="M 0 70 L 7 70 L 7 108 L 0 108 Z M 0 70 " clip-rule="nonzero"/></clipPath><clipPath id="1ad25c12dc"><path d="M 0.03125 70.707031 L 1.1875 71.554688 L 6.84375 91.675781 L 5.714844 107.382812 L 0.03125 94.863281 Z M 0.03125 70.707031 " clip-rule="nonzero"/></clipPath><linearGradient x1="95.924163" gradientTransform="matrix(0.141044, 0, 0, 0.141, 0.0317369, 39.716691)" y1="259.964988" x2="-52.337028" gradientUnits="userSpaceOnUse" y2="435.760319" id="19af7cbb7a"><stop stop-opacity="1" stop-color="rgb(56.498718%, 27.49939%, 72.499084%)" offset="0"/><stop stop-opacity="1" stop-color="rgb(56.498718%, 27.49939%, 72.499084%)" offset="0.125"/><stop stop-opacity="1" stop-color="rgb(56.498718%, 27.49939%, 72.499084%)" offset="0.135406"/><stop stop-opacity="1" stop-color="rgb(56.498718%, 27.49939%, 72.499084%)" offset="0.1875"/><stop stop-opacity="1" stop-color="rgb(56.498718%, 27.49939%, 72.499084%)" offset="0.21875"/><stop stop-opacity="1" stop-color="rgb(56.468201%, 27.526855%, 72.50824%)" offset="0.234375"/><stop stop-opacity="1" stop-color="rgb(56.19812%, 27.778625%, 72.589111%)" offset="0.238281"/><stop stop-opacity="1" stop-color="rgb(55.957031%, 28.00293%, 72.660828%)" offset="0.242188"/><stop stop-opacity="1" stop-color="rgb(55.715942%, 28.227234%, 72.732544%)" offset="0.246094"/><stop stop-opacity="1" stop-color="rgb(55.474854%, 28.451538%, 72.805786%)" offset="0.25"/><stop stop-opacity="1" stop-color="rgb(55.233765%, 28.675842%, 72.877502%)" offset="0.253906"/><stop stop-opacity="1" stop-color="rgb(54.992676%, 28.900146%, 72.950745%)" offset="0.257812"/><stop stop-opacity="1" stop-color="rgb(54.750061%, 29.124451%, 73.022461%)" offset="0.261719"/><stop stop-opacity="1" stop-color="rgb(54.508972%, 29.348755%, 73.094177%)" offset="0.265625"/><stop stop-opacity="1" stop-color="rgb(54.267883%, 29.573059%, 73.165894%)" offset="0.269531"/><stop stop-opacity="1" stop-color="rgb(54.026794%, 29.797363%, 73.239136%)" offset="0.273438"/><stop stop-opacity="1" stop-color="rgb(53.785706%, 30.021667%, 73.310852%)" offset="0.277344"/><stop stop-opacity="1" stop-color="rgb(53.544617%, 30.245972%, 73.382568%)" offset="0.28125"/><stop stop-opacity="1" stop-color="rgb(53.302002%, 30.470276%, 73.454285%)" offset="0.285156"/><stop stop-opacity="1" stop-color="rgb(53.060913%, 30.69458%, 73.527527%)" offset="0.289062"/><stop stop-opacity="1" stop-color="rgb(52.819824%, 30.918884%, 73.599243%)" offset="0.292969"/><stop stop-opacity="1" stop-color="rgb(52.578735%, 31.143188%, 73.672485%)" offset="0.296875"/><stop stop-opacity="1" stop-color="rgb(52.337646%, 31.367493%, 73.744202%)" offset="0.300781"/><stop stop-opacity="1" stop-color="rgb(52.096558%, 31.591797%, 73.815918%)" offset="0.304687"/><stop stop-opacity="1" stop-color="rgb(51.855469%, 31.816101%, 73.887634%)" offset="0.308594"/><stop stop-opacity="1" stop-color="rgb(51.61438%, 32.040405%, 73.960876%)" offset="0.3125"/><stop stop-opacity="1" stop-color="rgb(51.371765%, 32.264709%, 74.032593%)" offset="0.316406"/><stop stop-opacity="1" stop-color="rgb(51.130676%, 32.489014%, 74.104309%)" offset="0.320312"/><stop stop-opacity="1" stop-color="rgb(50.889587%, 32.713318%, 74.176025%)" offset="0.324219"/><stop stop-opacity="1" stop-color="rgb(50.648499%, 32.937622%, 74.249268%)" offset="0.328125"/><stop stop-opacity="1" stop-color="rgb(50.40741%, 33.161926%, 74.320984%)" offset="0.332031"/><stop stop-opacity="1" stop-color="rgb(50.166321%, 33.38623%, 74.394226%)" offset="0.335937"/><stop stop-opacity="1" stop-color="rgb(49.923706%, 33.610535%, 74.465942%)" offset="0.339844"/><stop stop-opacity="1" stop-color="rgb(49.682617%, 33.834839%, 74.537659%)" offset="0.34375"/><stop stop-opacity="1" stop-color="rgb(49.441528%, 34.059143%, 74.609375%)" offset="0.347656"/><stop stop-opacity="1" stop-color="rgb(49.200439%, 34.283447%, 74.682617%)" offset="0.351562"/><stop stop-opacity="1" stop-color="rgb(48.959351%, 34.507751%, 74.754333%)" offset="0.355469"/><stop stop-opacity="1" stop-color="rgb(48.718262%, 34.733582%, 74.82605%)" offset="0.359375"/><stop stop-opacity="1" stop-color="rgb(48.477173%, 34.957886%, 74.897766%)" offset="0.363281"/><stop stop-opacity="1" stop-color="rgb(48.236084%, 35.18219%, 74.971008%)" offset="0.367188"/><stop stop-opacity="1" stop-color="rgb(47.993469%, 35.406494%, 75.042725%)" offset="0.371094"/><stop stop-opacity="1" stop-color="rgb(47.75238%, 35.630798%, 75.115967%)" offset="0.375"/><stop stop-opacity="1" stop-color="rgb(47.511292%, 35.855103%, 75.187683%)" offset="0.378906"/><stop stop-opacity="1" stop-color="rgb(47.270203%, 36.079407%, 75.259399%)" offset="0.382812"/><stop stop-opacity="1" stop-color="rgb(47.029114%, 36.303711%, 75.331116%)" offset="0.386719"/><stop stop-opacity="1" stop-color="rgb(46.788025%, 36.528015%, 75.404358%)" offset="0.390625"/><stop stop-opacity="1" stop-color="rgb(46.54541%, 36.752319%, 75.476074%)" offset="0.394531"/><stop stop-opacity="1" stop-color="rgb(46.304321%, 36.976624%, 75.549316%)" offset="0.398437"/><stop stop-opacity="1" stop-color="rgb(46.063232%, 37.200928%, 75.621033%)" offset="0.402344"/><stop stop-opacity="1" stop-color="rgb(45.822144%, 37.425232%, 75.692749%)" offset="0.40625"/><stop stop-opacity="1" stop-color="rgb(45.581055%, 37.649536%, 75.764465%)" offset="0.410156"/><stop stop-opacity="1" stop-color="rgb(45.339966%, 37.87384%, 75.837708%)" offset="0.414062"/><stop stop-opacity="1" stop-color="rgb(45.098877%, 38.098145%, 75.909424%)" offset="0.417969"/><stop stop-opacity="1" stop-color="rgb(44.857788%, 38.322449%, 75.98114%)" offset="0.421875"/><stop stop-opacity="1" stop-color="rgb(44.615173%, 38.546753%, 76.052856%)" offset="0.425781"/><stop stop-opacity="1" stop-color="rgb(44.374084%, 38.771057%, 76.126099%)" offset="0.429688"/><stop stop-opacity="1" stop-color="rgb(44.132996%, 38.995361%, 76.197815%)" offset="0.433594"/><stop stop-opacity="1" stop-color="rgb(43.891907%, 39.219666%, 76.271057%)" offset="0.4375"/><stop stop-opacity="1" stop-color="rgb(43.650818%, 39.44397%, 76.342773%)" offset="0.441406"/><stop stop-opacity="1" stop-color="rgb(43.409729%, 39.668274%, 76.41449%)" offset="0.445312"/><stop stop-opacity="1" stop-color="rgb(43.167114%, 39.892578%, 76.486206%)" offset="0.449219"/><stop stop-opacity="1" stop-color="rgb(42.926025%, 40.116882%, 76.559448%)" offset="0.453125"/><stop stop-opacity="1" stop-color="rgb(42.684937%, 40.341187%, 76.631165%)" offset="0.457031"/><stop stop-opacity="1" stop-color="rgb(42.443848%, 40.565491%, 76.702881%)" offset="0.460937"/><stop stop-opacity="1" stop-color="rgb(42.202759%, 40.789795%, 76.774597%)" offset="0.464844"/><stop stop-opacity="1" stop-color="rgb(41.96167%, 41.014099%, 76.847839%)" offset="0.46875"/><stop stop-opacity="1" stop-color="rgb(41.720581%, 41.238403%, 76.919556%)" offset="0.472656"/><stop stop-opacity="1" stop-color="rgb(41.479492%, 41.462708%, 76.992798%)" offset="0.476562"/><stop stop-opacity="1" stop-color="rgb(41.236877%, 41.687012%, 77.064514%)" offset="0.480469"/><stop stop-opacity="1" stop-color="rgb(40.995789%, 41.911316%, 77.13623%)" offset="0.484375"/><stop stop-opacity="1" stop-color="rgb(40.7547%, 42.13562%, 77.207947%)" offset="0.488281"/><stop stop-opacity="1" stop-color="rgb(40.513611%, 42.359924%, 77.281189%)" offset="0.492187"/><stop stop-opacity="1" stop-color="rgb(40.272522%, 42.584229%, 77.352905%)" offset="0.496094"/><stop stop-opacity="1" stop-color="rgb(40.031433%, 42.808533%, 77.424622%)" offset="0.5"/><stop stop-opacity="1" stop-color="rgb(39.788818%, 43.032837%, 77.496338%)" offset="0.503906"/><stop stop-opacity="1" stop-color="rgb(39.547729%, 43.257141%, 77.56958%)" offset="0.507812"/><stop stop-opacity="1" stop-color="rgb(39.306641%, 43.481445%, 77.641296%)" offset="0.511719"/><stop stop-opacity="1" stop-color="rgb(39.065552%, 43.70575%, 77.714539%)" offset="0.515625"/><stop stop-opacity="1" stop-color="rgb(38.824463%, 43.930054%, 77.786255%)" offset="0.519531"/><stop stop-opacity="1" stop-color="rgb(38.583374%, 44.154358%, 77.857971%)" offset="0.523438"/><stop stop-opacity="1" stop-color="rgb(38.342285%, 44.378662%, 77.929688%)" offset="0.527344"/><stop stop-opacity="1" stop-color="rgb(38.101196%, 44.602966%, 78.00293%)" offset="0.53125"/><stop stop-opacity="1" stop-color="rgb(37.858582%, 44.827271%, 78.074646%)" offset="0.535156"/><stop stop-opacity="1" stop-color="rgb(37.617493%, 45.051575%, 78.146362%)" offset="0.539062"/><stop stop-opacity="1" stop-color="rgb(37.376404%, 45.275879%, 78.218079%)" offset="0.542969"/><stop stop-opacity="1" stop-color="rgb(37.135315%, 45.500183%, 78.291321%)" offset="0.546875"/><stop stop-opacity="1" stop-color="rgb(36.894226%, 45.724487%, 78.363037%)" offset="0.550781"/><stop stop-opacity="1" stop-color="rgb(36.653137%, 45.948792%, 78.436279%)" offset="0.554688"/><stop stop-opacity="1" stop-color="rgb(36.410522%, 46.173096%, 78.507996%)" offset="0.558594"/><stop stop-opacity="1" stop-color="rgb(36.169434%, 46.3974%, 78.579712%)" offset="0.5625"/><stop stop-opacity="1" stop-color="rgb(35.928345%, 46.621704%, 78.651428%)" offset="0.566406"/><stop stop-opacity="1" stop-color="rgb(35.687256%, 46.846008%, 78.72467%)" offset="0.570312"/><stop stop-opacity="1" stop-color="rgb(35.446167%, 47.070312%, 78.796387%)" offset="0.574219"/><stop stop-opacity="1" stop-color="rgb(35.205078%, 47.294617%, 78.868103%)" offset="0.578125"/><stop stop-opacity="1" stop-color="rgb(34.963989%, 47.518921%, 78.939819%)" offset="0.582031"/><stop stop-opacity="1" stop-color="rgb(34.7229%, 47.743225%, 79.013062%)" offset="0.585937"/><stop stop-opacity="1" stop-color="rgb(34.480286%, 47.967529%, 79.084778%)" offset="0.589844"/><stop stop-opacity="1" stop-color="rgb(34.239197%, 48.191833%, 79.15802%)" offset="0.59375"/><stop stop-opacity="1" stop-color="rgb(33.998108%, 48.416138%, 79.229736%)" offset="0.597656"/><stop stop-opacity="1" stop-color="rgb(33.757019%, 48.640442%, 79.301453%)" offset="0.601562"/><stop stop-opacity="1" stop-color="rgb(33.51593%, 48.864746%, 79.373169%)" offset="0.605469"/><stop stop-opacity="1" stop-color="rgb(33.274841%, 49.08905%, 79.446411%)" offset="0.609375"/><stop stop-opacity="1" stop-color="rgb(33.032227%, 49.313354%, 79.518127%)" offset="0.613281"/><stop stop-opacity="1" stop-color="rgb(32.791138%, 49.537659%, 79.59137%)" offset="0.617187"/><stop stop-opacity="1" stop-color="rgb(32.550049%, 49.761963%, 79.663086%)" offset="0.621094"/><stop stop-opacity="1" stop-color="rgb(32.30896%, 49.986267%, 79.734802%)" offset="0.625"/><stop stop-opacity="1" stop-color="rgb(32.067871%, 50.210571%, 79.806519%)" offset="0.628906"/><stop stop-opacity="1" stop-color="rgb(31.826782%, 50.434875%, 79.879761%)" offset="0.632812"/><stop stop-opacity="1" stop-color="rgb(31.585693%, 50.65918%, 79.951477%)" offset="0.636719"/><stop stop-opacity="1" stop-color="rgb(31.344604%, 50.883484%, 80.023193%)" offset="0.640625"/><stop stop-opacity="1" stop-color="rgb(31.10199%, 51.107788%, 80.09491%)" offset="0.644531"/><stop stop-opacity="1" stop-color="rgb(30.860901%, 51.332092%, 80.168152%)" offset="0.648438"/><stop stop-opacity="1" stop-color="rgb(30.619812%, 51.556396%, 80.239868%)" offset="0.652344"/><stop stop-opacity="1" stop-color="rgb(30.378723%, 51.780701%, 80.31311%)" offset="0.65625"/><stop stop-opacity="1" stop-color="rgb(30.137634%, 52.005005%, 80.384827%)" offset="0.660156"/><stop stop-opacity="1" stop-color="rgb(29.896545%, 52.230835%, 80.456543%)" offset="0.664062"/><stop stop-opacity="1" stop-color="rgb(29.653931%, 52.455139%, 80.528259%)" offset="0.667969"/><stop stop-opacity="1" stop-color="rgb(29.412842%, 52.679443%, 80.601501%)" offset="0.671875"/><stop stop-opacity="1" stop-color="rgb(29.171753%, 52.903748%, 80.673218%)" offset="0.675781"/><stop stop-opacity="1" stop-color="rgb(28.930664%, 53.128052%, 80.744934%)" offset="0.679688"/><stop stop-opacity="1" stop-color="rgb(28.689575%, 53.352356%, 80.81665%)" offset="0.683594"/><stop stop-opacity="1" stop-color="rgb(28.448486%, 53.57666%, 80.889893%)" offset="0.6875"/><stop stop-opacity="1" stop-color="rgb(28.207397%, 53.800964%, 80.961609%)" offset="0.691406"/><stop stop-opacity="1" stop-color="rgb(27.966309%, 54.025269%, 81.034851%)" offset="0.695312"/><stop stop-opacity="1" stop-color="rgb(27.723694%, 54.249573%, 81.106567%)" offset="0.699219"/><stop stop-opacity="1" stop-color="rgb(27.482605%, 54.473877%, 81.178284%)" offset="0.703125"/><stop stop-opacity="1" stop-color="rgb(27.241516%, 54.698181%, 81.25%)" offset="0.707031"/><stop stop-opacity="1" stop-color="rgb(27.000427%, 54.922485%, 81.323242%)" offset="0.710938"/><stop stop-opacity="1" stop-color="rgb(26.759338%, 55.14679%, 81.394958%)" offset="0.714844"/><stop stop-opacity="1" stop-color="rgb(26.51825%, 55.371094%, 81.466675%)" offset="0.71875"/><stop stop-opacity="1" stop-color="rgb(26.275635%, 55.595398%, 81.538391%)" offset="0.722656"/><stop stop-opacity="1" stop-color="rgb(26.034546%, 55.819702%, 81.611633%)" offset="0.726562"/><stop stop-opacity="1" stop-color="rgb(25.793457%, 56.044006%, 81.68335%)" offset="0.730469"/><stop stop-opacity="1" stop-color="rgb(25.552368%, 56.268311%, 81.756592%)" offset="0.734375"/><stop stop-opacity="1" stop-color="rgb(25.311279%, 56.492615%, 81.828308%)" offset="0.738281"/><stop stop-opacity="1" stop-color="rgb(25.07019%, 56.716919%, 81.900024%)" offset="0.742188"/><stop stop-opacity="1" stop-color="rgb(24.827576%, 56.941223%, 81.971741%)" offset="0.746094"/><stop stop-opacity="1" stop-color="rgb(24.586487%, 57.165527%, 82.044983%)" offset="0.75"/><stop stop-opacity="1" stop-color="rgb(24.345398%, 57.389832%, 82.116699%)" offset="0.753906"/><stop stop-opacity="1" stop-color="rgb(24.104309%, 57.614136%, 82.188416%)" offset="0.757812"/><stop stop-opacity="1" stop-color="rgb(23.86322%, 57.83844%, 82.260132%)" offset="0.761719"/><stop stop-opacity="1" stop-color="rgb(23.622131%, 58.062744%, 82.333374%)" offset="0.765625"/><stop stop-opacity="1" stop-color="rgb(23.381042%, 58.287048%, 82.40509%)" offset="0.769531"/><stop stop-opacity="1" stop-color="rgb(23.139954%, 58.511353%, 82.478333%)" offset="0.773437"/><stop stop-opacity="1" stop-color="rgb(22.897339%, 58.735657%, 82.550049%)" offset="0.777344"/><stop stop-opacity="1" stop-color="rgb(22.65625%, 58.959961%, 82.621765%)" offset="0.78125"/><stop stop-opacity="1" stop-color="rgb(22.528076%, 59.078979%, 82.659912%)" offset="0.8125"/><stop stop-opacity="1" stop-color="rgb(22.399902%, 59.199524%, 82.699585%)" offset="0.864594"/><stop stop-opacity="1" stop-color="rgb(22.399902%, 59.199524%, 82.699585%)" offset="0.875"/><stop stop-opacity="1" stop-color="rgb(22.399902%, 59.199524%, 82.699585%)" offset="1"/></linearGradient><clipPath id="39a3f37739"><path d="M 27 62 L 45 62 L 45 110.214844 L 27 110.214844 Z M 27 62 " clip-rule="nonzero"/></clipPath><clipPath id="b652e35249"><path d="M 30.453125 110.214844 L 27.816406 86.488281 L 42.613281 62.757812 L 44.96875 62.757812 L 44.96875 101.699219 Z M 30.453125 110.214844 " clip-rule="nonzero"/></clipPath><linearGradient x1="335.176168" gradientTransform="matrix(0.141044, 0, 0, 0.141, 0.0317369, 39.716691)" y1="169.334678" x2="214.541682" gradientUnits="userSpaceOnUse" y2="506.280316" id="ab49b61ec0"><stop stop-opacity="1" stop-color="rgb(86.698914%, 14.099121%, 54.899597%)" offset="0"/><stop stop-opacity="1" stop-color="rgb(86.698914%, 14.099121%, 54.899597%)" offset="0.0625"/><stop stop-opacity="1" stop-color="rgb(86.581421%, 14.151001%, 54.968262%)" offset="0.0703125"/><stop stop-opacity="1" stop-color="rgb(86.323547%, 14.265442%, 55.117798%)" offset="0.078125"/><stop stop-opacity="1" stop-color="rgb(86.04126%, 14.390564%, 55.281067%)" offset="0.0859375"/><stop stop-opacity="1" stop-color="rgb(85.760498%, 14.515686%, 55.445862%)" offset="0.09375"/><stop stop-opacity="1" stop-color="rgb(85.479736%, 14.639282%, 55.609131%)" offset="0.101563"/><stop stop-opacity="1" stop-color="rgb(85.198975%, 14.764404%, 55.7724%)" offset="0.109375"/><stop stop-opacity="1" stop-color="rgb(84.918213%, 14.889526%, 55.937195%)" offset="0.114527"/><stop stop-opacity="1" stop-color="rgb(84.777832%, 14.952087%, 56.019592%)" offset="0.117188"/><stop stop-opacity="1" stop-color="rgb(84.637451%, 15.014648%, 56.100464%)" offset="0.125"/><stop stop-opacity="1" stop-color="rgb(84.356689%, 15.138245%, 56.263733%)" offset="0.132813"/><stop stop-opacity="1" stop-color="rgb(84.074402%, 15.263367%, 56.428528%)" offset="0.140625"/><stop stop-opacity="1" stop-color="rgb(83.79364%, 15.388489%, 56.591797%)" offset="0.148438"/><stop stop-opacity="1" stop-color="rgb(83.512878%, 15.512085%, 56.755066%)" offset="0.15625"/><stop stop-opacity="1" stop-color="rgb(83.232117%, 15.637207%, 56.919861%)" offset="0.164062"/><stop stop-opacity="1" stop-color="rgb(82.951355%, 15.762329%, 57.08313%)" offset="0.171875"/><stop stop-opacity="1" stop-color="rgb(82.670593%, 15.885925%, 57.246399%)" offset="0.179688"/><stop stop-opacity="1" stop-color="rgb(82.389832%, 16.011047%, 57.409668%)" offset="0.1875"/><stop stop-opacity="1" stop-color="rgb(82.10907%, 16.136169%, 57.574463%)" offset="0.195313"/><stop stop-opacity="1" stop-color="rgb(81.826782%, 16.261292%, 57.737732%)" offset="0.203125"/><stop stop-opacity="1" stop-color="rgb(81.546021%, 16.384888%, 57.901001%)" offset="0.210938"/><stop stop-opacity="1" stop-color="rgb(81.265259%, 16.51001%, 58.065796%)" offset="0.21875"/><stop stop-opacity="1" stop-color="rgb(80.984497%, 16.635132%, 58.229065%)" offset="0.226562"/><stop stop-opacity="1" stop-color="rgb(80.703735%, 16.758728%, 58.392334%)" offset="0.234375"/><stop stop-opacity="1" stop-color="rgb(80.422974%, 16.88385%, 58.557129%)" offset="0.242188"/><stop stop-opacity="1" stop-color="rgb(80.142212%, 17.008972%, 58.720398%)" offset="0.25"/><stop stop-opacity="1" stop-color="rgb(79.859924%, 17.132568%, 58.883667%)" offset="0.257812"/><stop stop-opacity="1" stop-color="rgb(79.579163%, 17.25769%, 59.048462%)" offset="0.265625"/><stop stop-opacity="1" stop-color="rgb(79.298401%, 17.382812%, 59.211731%)" offset="0.273438"/><stop stop-opacity="1" stop-color="rgb(79.017639%, 17.507935%, 59.375%)" offset="0.28125"/><stop stop-opacity="1" stop-color="rgb(78.736877%, 17.631531%, 59.539795%)" offset="0.289063"/><stop stop-opacity="1" stop-color="rgb(78.456116%, 17.756653%, 59.703064%)" offset="0.296875"/><stop stop-opacity="1" stop-color="rgb(78.175354%, 17.881775%, 59.866333%)" offset="0.304688"/><stop stop-opacity="1" stop-color="rgb(77.894592%, 18.005371%, 60.029602%)" offset="0.3125"/><stop stop-opacity="1" stop-color="rgb(77.612305%, 18.130493%, 60.194397%)" offset="0.320313"/><stop stop-opacity="1" stop-color="rgb(77.331543%, 18.255615%, 60.357666%)" offset="0.328125"/><stop stop-opacity="1" stop-color="rgb(77.050781%, 18.380737%, 60.520935%)" offset="0.335938"/><stop stop-opacity="1" stop-color="rgb(76.77002%, 18.504333%, 60.68573%)" offset="0.34375"/><stop stop-opacity="1" stop-color="rgb(76.489258%, 18.629456%, 60.848999%)" offset="0.351563"/><stop stop-opacity="1" stop-color="rgb(76.208496%, 18.754578%, 61.012268%)" offset="0.359375"/><stop stop-opacity="1" stop-color="rgb(75.927734%, 18.878174%, 61.177063%)" offset="0.367188"/><stop stop-opacity="1" stop-color="rgb(75.645447%, 19.003296%, 61.340332%)" offset="0.375"/><stop stop-opacity="1" stop-color="rgb(75.364685%, 19.128418%, 61.503601%)" offset="0.382812"/><stop stop-opacity="1" stop-color="rgb(75.083923%, 19.252014%, 61.668396%)" offset="0.390625"/><stop stop-opacity="1" stop-color="rgb(74.803162%, 19.377136%, 61.831665%)" offset="0.398438"/><stop stop-opacity="1" stop-color="rgb(74.5224%, 19.502258%, 61.994934%)" offset="0.40625"/><stop stop-opacity="1" stop-color="rgb(74.241638%, 19.62738%, 62.158203%)" offset="0.414063"/><stop stop-opacity="1" stop-color="rgb(73.960876%, 19.750977%, 62.322998%)" offset="0.421875"/><stop stop-opacity="1" stop-color="rgb(73.680115%, 19.876099%, 62.486267%)" offset="0.429688"/><stop stop-opacity="1" stop-color="rgb(73.397827%, 20.001221%, 62.649536%)" offset="0.4375"/><stop stop-opacity="1" stop-color="rgb(73.117065%, 20.124817%, 62.814331%)" offset="0.445312"/><stop stop-opacity="1" stop-color="rgb(72.836304%, 20.249939%, 62.9776%)" offset="0.453125"/><stop stop-opacity="1" stop-color="rgb(72.555542%, 20.375061%, 63.140869%)" offset="0.460938"/><stop stop-opacity="1" stop-color="rgb(72.27478%, 20.498657%, 63.305664%)" offset="0.46875"/><stop stop-opacity="1" stop-color="rgb(71.994019%, 20.623779%, 63.468933%)" offset="0.476563"/><stop stop-opacity="1" stop-color="rgb(71.713257%, 20.748901%, 63.632202%)" offset="0.484375"/><stop stop-opacity="1" stop-color="rgb(71.430969%, 20.874023%, 63.796997%)" offset="0.492188"/><stop stop-opacity="1" stop-color="rgb(71.150208%, 20.99762%, 63.960266%)" offset="0.5"/><stop stop-opacity="1" stop-color="rgb(70.869446%, 21.122742%, 64.123535%)" offset="0.507812"/><stop stop-opacity="1" stop-color="rgb(70.588684%, 21.247864%, 64.286804%)" offset="0.515625"/><stop stop-opacity="1" stop-color="rgb(70.307922%, 21.37146%, 64.451599%)" offset="0.523438"/><stop stop-opacity="1" stop-color="rgb(70.027161%, 21.496582%, 64.614868%)" offset="0.53125"/><stop stop-opacity="1" stop-color="rgb(69.746399%, 21.621704%, 64.778137%)" offset="0.539062"/><stop stop-opacity="1" stop-color="rgb(69.464111%, 21.7453%, 64.942932%)" offset="0.546875"/><stop stop-opacity="1" stop-color="rgb(69.18335%, 21.870422%, 65.106201%)" offset="0.554688"/><stop stop-opacity="1" stop-color="rgb(68.902588%, 21.995544%, 65.26947%)" offset="0.5625"/><stop stop-opacity="1" stop-color="rgb(68.621826%, 22.120667%, 65.434265%)" offset="0.570312"/><stop stop-opacity="1" stop-color="rgb(68.341064%, 22.244263%, 65.597534%)" offset="0.578125"/><stop stop-opacity="1" stop-color="rgb(68.060303%, 22.369385%, 65.760803%)" offset="0.585938"/><stop stop-opacity="1" stop-color="rgb(67.779541%, 22.494507%, 65.925598%)" offset="0.59375"/><stop stop-opacity="1" stop-color="rgb(67.498779%, 22.618103%, 66.088867%)" offset="0.601562"/><stop stop-opacity="1" stop-color="rgb(67.216492%, 22.743225%, 66.252136%)" offset="0.609375"/><stop stop-opacity="1" stop-color="rgb(66.93573%, 22.868347%, 66.416931%)" offset="0.617188"/><stop stop-opacity="1" stop-color="rgb(66.654968%, 22.991943%, 66.5802%)" offset="0.625"/><stop stop-opacity="1" stop-color="rgb(66.374207%, 23.117065%, 66.743469%)" offset="0.632812"/><stop stop-opacity="1" stop-color="rgb(66.093445%, 23.242188%, 66.906738%)" offset="0.640625"/><stop stop-opacity="1" stop-color="rgb(65.812683%, 23.36731%, 67.071533%)" offset="0.648438"/><stop stop-opacity="1" stop-color="rgb(65.531921%, 23.490906%, 67.234802%)" offset="0.65625"/><stop stop-opacity="1" stop-color="rgb(65.249634%, 23.616028%, 67.398071%)" offset="0.664062"/><stop stop-opacity="1" stop-color="rgb(64.968872%, 23.74115%, 67.562866%)" offset="0.671875"/><stop stop-opacity="1" stop-color="rgb(64.68811%, 23.864746%, 67.726135%)" offset="0.679688"/><stop stop-opacity="1" stop-color="rgb(64.407349%, 23.989868%, 67.889404%)" offset="0.6875"/><stop stop-opacity="1" stop-color="rgb(64.126587%, 24.11499%, 68.054199%)" offset="0.695312"/><stop stop-opacity="1" stop-color="rgb(63.845825%, 24.240112%, 68.217468%)" offset="0.703125"/><stop stop-opacity="1" stop-color="rgb(63.565063%, 24.363708%, 68.380737%)" offset="0.710938"/><stop stop-opacity="1" stop-color="rgb(63.284302%, 24.488831%, 68.545532%)" offset="0.71875"/><stop stop-opacity="1" stop-color="rgb(63.002014%, 24.613953%, 68.708801%)" offset="0.726562"/><stop stop-opacity="1" stop-color="rgb(62.721252%, 24.737549%, 68.87207%)" offset="0.734375"/><stop stop-opacity="1" stop-color="rgb(62.440491%, 24.862671%, 69.035339%)" offset="0.742188"/><stop stop-opacity="1" stop-color="rgb(62.159729%, 24.987793%, 69.200134%)" offset="0.75"/><stop stop-opacity="1" stop-color="rgb(61.878967%, 25.111389%, 69.363403%)" offset="0.757812"/><stop stop-opacity="1" stop-color="rgb(61.598206%, 25.236511%, 69.526672%)" offset="0.765625"/><stop stop-opacity="1" stop-color="rgb(61.317444%, 25.361633%, 69.691467%)" offset="0.773438"/><stop stop-opacity="1" stop-color="rgb(61.035156%, 25.486755%, 69.854736%)" offset="0.78125"/><stop stop-opacity="1" stop-color="rgb(60.754395%, 25.610352%, 70.018005%)" offset="0.789062"/><stop stop-opacity="1" stop-color="rgb(60.473633%, 25.735474%, 70.1828%)" offset="0.796875"/><stop stop-opacity="1" stop-color="rgb(60.192871%, 25.860596%, 70.346069%)" offset="0.804688"/><stop stop-opacity="1" stop-color="rgb(59.912109%, 25.984192%, 70.509338%)" offset="0.8125"/><stop stop-opacity="1" stop-color="rgb(59.631348%, 26.109314%, 70.674133%)" offset="0.820312"/><stop stop-opacity="1" stop-color="rgb(59.350586%, 26.234436%, 70.837402%)" offset="0.828125"/><stop stop-opacity="1" stop-color="rgb(59.069824%, 26.358032%, 71.000671%)" offset="0.835938"/><stop stop-opacity="1" stop-color="rgb(58.787537%, 26.483154%, 71.165466%)" offset="0.84375"/><stop stop-opacity="1" stop-color="rgb(58.506775%, 26.608276%, 71.328735%)" offset="0.851563"/><stop stop-opacity="1" stop-color="rgb(58.226013%, 26.733398%, 71.492004%)" offset="0.859375"/><stop stop-opacity="1" stop-color="rgb(57.945251%, 26.856995%, 71.655273%)" offset="0.867188"/><stop stop-opacity="1" stop-color="rgb(57.66449%, 26.982117%, 71.820068%)" offset="0.875"/><stop stop-opacity="1" stop-color="rgb(57.383728%, 27.107239%, 71.983337%)" offset="0.882812"/><stop stop-opacity="1" stop-color="rgb(57.102966%, 27.230835%, 72.146606%)" offset="0.885473"/><stop stop-opacity="1" stop-color="rgb(56.962585%, 27.293396%, 72.229004%)" offset="0.890625"/><stop stop-opacity="1" stop-color="rgb(56.820679%, 27.355957%, 72.311401%)" offset="0.898438"/><stop stop-opacity="1" stop-color="rgb(56.588745%, 27.458191%, 72.445679%)" offset="0.90625"/><stop stop-opacity="1" stop-color="rgb(56.498718%, 27.49939%, 72.499084%)" offset="0.9375"/><stop stop-opacity="1" stop-color="rgb(56.498718%, 27.49939%, 72.499084%)" offset="1"/></linearGradient><clipPath id="32eb7a30f8"><path d="M 5 86 L 31 86 L 31 110.214844 L 5 110.214844 Z M 5 86 " clip-rule="nonzero"/></clipPath><clipPath id="091840eff9"><path d="M 5.433594 91.308594 L 30.453125 86.472656 L 30.453125 110.214844 L 5.714844 107.367188 Z M 5.433594 91.308594 " clip-rule="nonzero"/></clipPath><linearGradient x1="203.98262" gradientTransform="matrix(0.141044, 0, 0, 0.141, 0.0317369, 39.716691)" y1="323.370995" x2="66.184388" gradientUnits="userSpaceOnUse" y2="519.58298" id="a863ee09fb"><stop stop-opacity="1" stop-color="rgb(86.698914%, 14.099121%, 54.899597%)" offset="0"/><stop stop-opacity="1" stop-color="rgb(86.698914%, 14.099121%, 54.899597%)" offset="0.0625"/><stop stop-opacity="1" stop-color="rgb(86.643982%, 14.123535%, 54.931641%)" offset="0.0703125"/><stop stop-opacity="1" stop-color="rgb(86.444092%, 14.212036%, 55.047607%)" offset="0.078125"/><stop stop-opacity="1" stop-color="rgb(86.152649%, 14.341736%, 55.21698%)" offset="0.0859375"/><stop stop-opacity="1" stop-color="rgb(85.861206%, 14.46991%, 55.386353%)" offset="0.09375"/><stop stop-opacity="1" stop-color="rgb(85.569763%, 14.599609%, 55.555725%)" offset="0.101562"/><stop stop-opacity="1" stop-color="rgb(85.279846%, 14.729309%, 55.726624%)" offset="0.109375"/><stop stop-opacity="1" stop-color="rgb(84.988403%, 14.857483%, 55.895996%)" offset="0.117188"/><stop stop-opacity="1" stop-color="rgb(84.69696%, 14.987183%, 56.065369%)" offset="0.125"/><stop stop-opacity="1" stop-color="rgb(84.405518%, 15.115356%, 56.234741%)" offset="0.132812"/><stop stop-opacity="1" stop-color="rgb(84.114075%, 15.245056%, 56.404114%)" offset="0.140625"/><stop stop-opacity="1" stop-color="rgb(83.824158%, 15.374756%, 56.573486%)" offset="0.148438"/><stop stop-opacity="1" stop-color="rgb(83.532715%, 15.50293%, 56.744385%)" offset="0.15625"/><stop stop-opacity="1" stop-color="rgb(83.241272%, 15.632629%, 56.913757%)" offset="0.164062"/><stop stop-opacity="1" stop-color="rgb(82.949829%, 15.762329%, 57.08313%)" offset="0.171875"/><stop stop-opacity="1" stop-color="rgb(82.659912%, 15.890503%, 57.252502%)" offset="0.179687"/><stop stop-opacity="1" stop-color="rgb(82.368469%, 16.020203%, 57.421875%)" offset="0.1875"/><stop stop-opacity="1" stop-color="rgb(82.077026%, 16.149902%, 57.591248%)" offset="0.195313"/><stop stop-opacity="1" stop-color="rgb(81.785583%, 16.278076%, 57.762146%)" offset="0.203125"/><stop stop-opacity="1" stop-color="rgb(81.494141%, 16.407776%, 57.931519%)" offset="0.210938"/><stop stop-opacity="1" stop-color="rgb(81.204224%, 16.537476%, 58.100891%)" offset="0.21875"/><stop stop-opacity="1" stop-color="rgb(80.912781%, 16.665649%, 58.270264%)" offset="0.226562"/><stop stop-opacity="1" stop-color="rgb(80.621338%, 16.795349%, 58.439636%)" offset="0.234375"/><stop stop-opacity="1" stop-color="rgb(80.329895%, 16.925049%, 58.610535%)" offset="0.242188"/><stop stop-opacity="1" stop-color="rgb(80.039978%, 17.053223%, 58.779907%)" offset="0.25"/><stop stop-opacity="1" stop-color="rgb(79.748535%, 17.182922%, 58.94928%)" offset="0.257812"/><stop stop-opacity="1" stop-color="rgb(79.457092%, 17.311096%, 59.118652%)" offset="0.265625"/><stop stop-opacity="1" stop-color="rgb(79.165649%, 17.440796%, 59.288025%)" offset="0.273438"/><stop stop-opacity="1" stop-color="rgb(78.875732%, 17.570496%, 59.457397%)" offset="0.28125"/><stop stop-opacity="1" stop-color="rgb(78.58429%, 17.698669%, 59.628296%)" offset="0.289062"/><stop stop-opacity="1" stop-color="rgb(78.292847%, 17.828369%, 59.797668%)" offset="0.296875"/><stop stop-opacity="1" stop-color="rgb(78.001404%, 17.958069%, 59.967041%)" offset="0.304688"/><stop stop-opacity="1" stop-color="rgb(77.709961%, 18.086243%, 60.136414%)" offset="0.3125"/><stop stop-opacity="1" stop-color="rgb(77.420044%, 18.215942%, 60.305786%)" offset="0.320312"/><stop stop-opacity="1" stop-color="rgb(77.128601%, 18.345642%, 60.476685%)" offset="0.328125"/><stop stop-opacity="1" stop-color="rgb(76.837158%, 18.473816%, 60.646057%)" offset="0.335938"/><stop stop-opacity="1" stop-color="rgb(76.545715%, 18.603516%, 60.81543%)" offset="0.34375"/><stop stop-opacity="1" stop-color="rgb(76.255798%, 18.733215%, 60.984802%)" offset="0.351562"/><stop stop-opacity="1" stop-color="rgb(75.964355%, 18.861389%, 61.154175%)" offset="0.359375"/><stop stop-opacity="1" stop-color="rgb(75.672913%, 18.991089%, 61.323547%)" offset="0.367188"/><stop stop-opacity="1" stop-color="rgb(75.38147%, 19.120789%, 61.494446%)" offset="0.375"/><stop stop-opacity="1" stop-color="rgb(75.090027%, 19.248962%, 61.663818%)" offset="0.382812"/><stop stop-opacity="1" stop-color="rgb(74.80011%, 19.378662%, 61.833191%)" offset="0.390625"/><stop stop-opacity="1" stop-color="rgb(74.508667%, 19.508362%, 62.002563%)" offset="0.398438"/><stop stop-opacity="1" stop-color="rgb(74.217224%, 19.636536%, 62.171936%)" offset="0.40625"/><stop stop-opacity="1" stop-color="rgb(73.925781%, 19.766235%, 62.342834%)" offset="0.414063"/><stop stop-opacity="1" stop-color="rgb(73.635864%, 19.894409%, 62.512207%)" offset="0.421875"/><stop stop-opacity="1" stop-color="rgb(73.344421%, 20.024109%, 62.68158%)" offset="0.42523"/><stop stop-opacity="1" stop-color="rgb(73.199463%, 20.089722%, 62.767029%)" offset="0.429687"/><stop stop-opacity="1" stop-color="rgb(73.052979%, 20.153809%, 62.850952%)" offset="0.4375"/><stop stop-opacity="1" stop-color="rgb(72.761536%, 20.281982%, 63.020325%)" offset="0.445312"/><stop stop-opacity="1" stop-color="rgb(72.470093%, 20.411682%, 63.189697%)" offset="0.453125"/><stop stop-opacity="1" stop-color="rgb(72.180176%, 20.541382%, 63.360596%)" offset="0.460938"/><stop stop-opacity="1" stop-color="rgb(71.888733%, 20.669556%, 63.529968%)" offset="0.46875"/><stop stop-opacity="1" stop-color="rgb(71.59729%, 20.799255%, 63.699341%)" offset="0.476562"/><stop stop-opacity="1" stop-color="rgb(71.305847%, 20.928955%, 63.868713%)" offset="0.484375"/><stop stop-opacity="1" stop-color="rgb(71.01593%, 21.057129%, 64.038086%)" offset="0.492188"/><stop stop-opacity="1" stop-color="rgb(70.724487%, 21.186829%, 64.207458%)" offset="0.5"/><stop stop-opacity="1" stop-color="rgb(70.433044%, 21.316528%, 64.378357%)" offset="0.507812"/><stop stop-opacity="1" stop-color="rgb(70.141602%, 21.444702%, 64.547729%)" offset="0.515625"/><stop stop-opacity="1" stop-color="rgb(69.851685%, 21.574402%, 64.717102%)" offset="0.523438"/><stop stop-opacity="1" stop-color="rgb(69.560242%, 21.704102%, 64.886475%)" offset="0.53125"/><stop stop-opacity="1" stop-color="rgb(69.268799%, 21.832275%, 65.055847%)" offset="0.539062"/><stop stop-opacity="1" stop-color="rgb(68.977356%, 21.961975%, 65.226746%)" offset="0.546875"/><stop stop-opacity="1" stop-color="rgb(68.685913%, 22.090149%, 65.396118%)" offset="0.554688"/><stop stop-opacity="1" stop-color="rgb(68.395996%, 22.219849%, 65.565491%)" offset="0.5625"/><stop stop-opacity="1" stop-color="rgb(68.104553%, 22.349548%, 65.734863%)" offset="0.570313"/><stop stop-opacity="1" stop-color="rgb(67.81311%, 22.477722%, 65.904236%)" offset="0.57477"/><stop stop-opacity="1" stop-color="rgb(67.668152%, 22.543335%, 65.989685%)" offset="0.578125"/><stop stop-opacity="1" stop-color="rgb(67.521667%, 22.607422%, 66.073608%)" offset="0.585938"/><stop stop-opacity="1" stop-color="rgb(67.23175%, 22.737122%, 66.244507%)" offset="0.59375"/><stop stop-opacity="1" stop-color="rgb(66.940308%, 22.865295%, 66.413879%)" offset="0.601562"/><stop stop-opacity="1" stop-color="rgb(66.648865%, 22.994995%, 66.583252%)" offset="0.609375"/><stop stop-opacity="1" stop-color="rgb(66.357422%, 23.124695%, 66.752625%)" offset="0.617188"/><stop stop-opacity="1" stop-color="rgb(66.065979%, 23.252869%, 66.921997%)" offset="0.625"/><stop stop-opacity="1" stop-color="rgb(65.776062%, 23.382568%, 67.092896%)" offset="0.632812"/><stop stop-opacity="1" stop-color="rgb(65.484619%, 23.512268%, 67.262268%)" offset="0.640625"/><stop stop-opacity="1" stop-color="rgb(65.193176%, 23.640442%, 67.431641%)" offset="0.648438"/><stop stop-opacity="1" stop-color="rgb(64.901733%, 23.770142%, 67.601013%)" offset="0.65625"/><stop stop-opacity="1" stop-color="rgb(64.611816%, 23.899841%, 67.770386%)" offset="0.664062"/><stop stop-opacity="1" stop-color="rgb(64.320374%, 24.028015%, 67.939758%)" offset="0.671875"/><stop stop-opacity="1" stop-color="rgb(64.028931%, 24.157715%, 68.110657%)" offset="0.679688"/><stop stop-opacity="1" stop-color="rgb(63.737488%, 24.285889%, 68.280029%)" offset="0.6875"/><stop stop-opacity="1" stop-color="rgb(63.447571%, 24.415588%, 68.449402%)" offset="0.695312"/><stop stop-opacity="1" stop-color="rgb(63.156128%, 24.545288%, 68.618774%)" offset="0.703125"/><stop stop-opacity="1" stop-color="rgb(62.864685%, 24.673462%, 68.788147%)" offset="0.710938"/><stop stop-opacity="1" stop-color="rgb(62.573242%, 24.803162%, 68.95752%)" offset="0.71875"/><stop stop-opacity="1" stop-color="rgb(62.281799%, 24.932861%, 69.128418%)" offset="0.726562"/><stop stop-opacity="1" stop-color="rgb(61.991882%, 25.061035%, 69.297791%)" offset="0.734375"/><stop stop-opacity="1" stop-color="rgb(61.700439%, 25.190735%, 69.467163%)" offset="0.742188"/><stop stop-opacity="1" stop-color="rgb(61.408997%, 25.320435%, 69.636536%)" offset="0.75"/><stop stop-opacity="1" stop-color="rgb(61.117554%, 25.448608%, 69.805908%)" offset="0.757812"/><stop stop-opacity="1" stop-color="rgb(60.827637%, 25.578308%, 69.976807%)" offset="0.765625"/><stop stop-opacity="1" stop-color="rgb(60.536194%, 25.708008%, 70.146179%)" offset="0.773438"/><stop stop-opacity="1" stop-color="rgb(60.244751%, 25.836182%, 70.315552%)" offset="0.78125"/><stop stop-opacity="1" stop-color="rgb(59.953308%, 25.965881%, 70.484924%)" offset="0.789062"/><stop stop-opacity="1" stop-color="rgb(59.661865%, 26.095581%, 70.654297%)" offset="0.796875"/><stop stop-opacity="1" stop-color="rgb(59.371948%, 26.223755%, 70.823669%)" offset="0.804688"/><stop stop-opacity="1" stop-color="rgb(59.080505%, 26.353455%, 70.994568%)" offset="0.8125"/><stop stop-opacity="1" stop-color="rgb(58.789062%, 26.481628%, 71.16394%)" offset="0.820312"/><stop stop-opacity="1" stop-color="rgb(58.49762%, 26.611328%, 71.333313%)" offset="0.828125"/><stop stop-opacity="1" stop-color="rgb(58.207703%, 26.741028%, 71.502686%)" offset="0.835938"/><stop stop-opacity="1" stop-color="rgb(57.91626%, 26.869202%, 71.672058%)" offset="0.84375"/><stop stop-opacity="1" stop-color="rgb(57.624817%, 26.998901%, 71.842957%)" offset="0.851562"/><stop stop-opacity="1" stop-color="rgb(57.333374%, 27.128601%, 72.012329%)" offset="0.859375"/><stop stop-opacity="1" stop-color="rgb(57.041931%, 27.256775%, 72.181702%)" offset="0.867188"/><stop stop-opacity="1" stop-color="rgb(56.752014%, 27.386475%, 72.351074%)" offset="0.875"/><stop stop-opacity="1" stop-color="rgb(56.552124%, 27.474976%, 72.467041%)" offset="1"/></linearGradient><clipPath id="0d841b16fd"><path d="M 0 39.714844 L 45 39.714844 L 45 93 L 0 93 Z M 0 39.714844 " clip-rule="nonzero"/></clipPath><clipPath id="e555e11883"><path d="M 15.109375 44.554688 L 40.128906 39.714844 L 44.96875 62.742188 L 30.453125 88.039062 L 5.433594 92.308594 L 0.03125 70.707031 Z M 15.109375 44.554688 " clip-rule="nonzero"/></clipPath><linearGradient x1="202.899293" gradientTransform="matrix(0.141044, 0, 0, 0.141, 0.0317369, 39.716691)" y1="-23.475471" x2="117.613188" gradientUnits="userSpaceOnUse" y2="396.863537" id="0bfc85a5be"><stop stop-opacity="1" stop-color="rgb(99.198914%, 51.399231%, 25.898743%)" offset="0"/><stop stop-opacity="1" stop-color="rgb(99.198914%, 51.399231%, 25.898743%)" offset="0.015625"/><stop stop-opacity="1" stop-color="rgb(99.160767%, 51.216125%, 25.950623%)" offset="0.0234375"/><stop stop-opacity="1" stop-color="rgb(99.082947%, 50.842285%, 26.055908%)" offset="0.03125"/><stop stop-opacity="1" stop-color="rgb(99.003601%, 50.462341%, 26.16272%)" offset="0.0390625"/><stop stop-opacity="1" stop-color="rgb(98.924255%, 50.082397%, 26.268005%)" offset="0.046875"/><stop stop-opacity="1" stop-color="rgb(98.84491%, 49.700928%, 26.374817%)" offset="0.0546875"/><stop stop-opacity="1" stop-color="rgb(98.764038%, 49.320984%, 26.481628%)" offset="0.0625"/><stop stop-opacity="1" stop-color="rgb(98.684692%, 48.94104%, 26.58844%)" offset="0.0703125"/><stop stop-opacity="1" stop-color="rgb(98.605347%, 48.561096%, 26.695251%)" offset="0.078125"/><stop stop-opacity="1" stop-color="rgb(98.526001%, 48.181152%, 26.802063%)" offset="0.0859375"/><stop stop-opacity="1" stop-color="rgb(98.446655%, 47.799683%, 26.908875%)" offset="0.09375"/><stop stop-opacity="1" stop-color="rgb(98.36731%, 47.419739%, 27.015686%)" offset="0.101563"/><stop stop-opacity="1" stop-color="rgb(98.287964%, 47.039795%, 27.122498%)" offset="0.109375"/><stop stop-opacity="1" stop-color="rgb(98.207092%, 46.659851%, 27.229309%)" offset="0.117188"/><stop stop-opacity="1" stop-color="rgb(98.127747%, 46.279907%, 27.336121%)" offset="0.125"/><stop stop-opacity="1" stop-color="rgb(98.048401%, 45.898438%, 27.442932%)" offset="0.132812"/><stop stop-opacity="1" stop-color="rgb(97.969055%, 45.518494%, 27.549744%)" offset="0.140625"/><stop stop-opacity="1" stop-color="rgb(97.889709%, 45.13855%, 27.656555%)" offset="0.147708"/><stop stop-opacity="1" stop-color="rgb(97.850037%, 44.949341%, 27.709961%)" offset="0.148438"/><stop stop-opacity="1" stop-color="rgb(97.810364%, 44.758606%, 27.761841%)" offset="0.15625"/><stop stop-opacity="1" stop-color="rgb(97.731018%, 44.378662%, 27.868652%)" offset="0.164062"/><stop stop-opacity="1" stop-color="rgb(97.651672%, 43.997192%, 27.975464%)" offset="0.171875"/><stop stop-opacity="1" stop-color="rgb(97.570801%, 43.617249%, 28.082275%)" offset="0.179687"/><stop stop-opacity="1" stop-color="rgb(97.491455%, 43.237305%, 28.189087%)" offset="0.1875"/><stop stop-opacity="1" stop-color="rgb(97.412109%, 42.857361%, 28.295898%)" offset="0.195313"/><stop stop-opacity="1" stop-color="rgb(97.332764%, 42.477417%, 28.40271%)" offset="0.203125"/><stop stop-opacity="1" stop-color="rgb(97.253418%, 42.095947%, 28.509521%)" offset="0.210938"/><stop stop-opacity="1" stop-color="rgb(97.174072%, 41.716003%, 28.616333%)" offset="0.21875"/><stop stop-opacity="1" stop-color="rgb(97.094727%, 41.33606%, 28.723145%)" offset="0.226562"/><stop stop-opacity="1" stop-color="rgb(97.015381%, 40.956116%, 28.829956%)" offset="0.234375"/><stop stop-opacity="1" stop-color="rgb(96.934509%, 40.576172%, 28.936768%)" offset="0.242188"/><stop stop-opacity="1" stop-color="rgb(96.855164%, 40.194702%, 29.043579%)" offset="0.25"/><stop stop-opacity="1" stop-color="rgb(96.775818%, 39.814758%, 29.150391%)" offset="0.257812"/><stop stop-opacity="1" stop-color="rgb(96.696472%, 39.434814%, 29.255676%)" offset="0.265625"/><stop stop-opacity="1" stop-color="rgb(96.617126%, 39.054871%, 29.362488%)" offset="0.273438"/><stop stop-opacity="1" stop-color="rgb(96.537781%, 38.674927%, 29.469299%)" offset="0.28125"/><stop stop-opacity="1" stop-color="rgb(96.458435%, 38.293457%, 29.576111%)" offset="0.289062"/><stop stop-opacity="1" stop-color="rgb(96.379089%, 37.913513%, 29.682922%)" offset="0.296875"/><stop stop-opacity="1" stop-color="rgb(96.298218%, 37.533569%, 29.789734%)" offset="0.304688"/><stop stop-opacity="1" stop-color="rgb(96.218872%, 37.153625%, 29.896545%)" offset="0.3125"/><stop stop-opacity="1" stop-color="rgb(96.139526%, 36.773682%, 30.003357%)" offset="0.320312"/><stop stop-opacity="1" stop-color="rgb(96.060181%, 36.392212%, 30.110168%)" offset="0.328125"/><stop stop-opacity="1" stop-color="rgb(95.980835%, 36.012268%, 30.21698%)" offset="0.335938"/><stop stop-opacity="1" stop-color="rgb(95.901489%, 35.632324%, 30.323792%)" offset="0.34375"/><stop stop-opacity="1" stop-color="rgb(95.822144%, 35.25238%, 30.430603%)" offset="0.351562"/><stop stop-opacity="1" stop-color="rgb(95.741272%, 34.872437%, 30.537415%)" offset="0.359375"/><stop stop-opacity="1" stop-color="rgb(95.661926%, 34.490967%, 30.644226%)" offset="0.367188"/><stop stop-opacity="1" stop-color="rgb(95.582581%, 34.111023%, 30.749512%)" offset="0.375"/><stop stop-opacity="1" stop-color="rgb(95.503235%, 33.731079%, 30.856323%)" offset="0.382812"/><stop stop-opacity="1" stop-color="rgb(95.423889%, 33.351135%, 30.963135%)" offset="0.390625"/><stop stop-opacity="1" stop-color="rgb(95.344543%, 32.971191%, 31.069946%)" offset="0.398438"/><stop stop-opacity="1" stop-color="rgb(95.265198%, 32.589722%, 31.176758%)" offset="0.40625"/><stop stop-opacity="1" stop-color="rgb(95.185852%, 32.209778%, 31.283569%)" offset="0.414063"/><stop stop-opacity="1" stop-color="rgb(95.10498%, 31.829834%, 31.390381%)" offset="0.421875"/><stop stop-opacity="1" stop-color="rgb(95.025635%, 31.44989%, 31.497192%)" offset="0.429687"/><stop stop-opacity="1" stop-color="rgb(94.946289%, 31.069946%, 31.604004%)" offset="0.4375"/><stop stop-opacity="1" stop-color="rgb(94.866943%, 30.688477%, 31.710815%)" offset="0.445312"/><stop stop-opacity="1" stop-color="rgb(94.787598%, 30.308533%, 31.817627%)" offset="0.453125"/><stop stop-opacity="1" stop-color="rgb(94.708252%, 29.928589%, 31.924438%)" offset="0.460938"/><stop stop-opacity="1" stop-color="rgb(94.628906%, 29.548645%, 32.03125%)" offset="0.46875"/><stop stop-opacity="1" stop-color="rgb(94.549561%, 29.168701%, 32.138062%)" offset="0.476562"/><stop stop-opacity="1" stop-color="rgb(94.468689%, 28.787231%, 32.243347%)" offset="0.484375"/><stop stop-opacity="1" stop-color="rgb(94.389343%, 28.407288%, 32.350159%)" offset="0.492188"/><stop stop-opacity="1" stop-color="rgb(94.309998%, 28.027344%, 32.45697%)" offset="0.5"/><stop stop-opacity="1" stop-color="rgb(94.230652%, 27.6474%, 32.563782%)" offset="0.507812"/><stop stop-opacity="1" stop-color="rgb(94.151306%, 27.267456%, 32.670593%)" offset="0.515625"/><stop stop-opacity="1" stop-color="rgb(94.07196%, 26.885986%, 32.777405%)" offset="0.523438"/><stop stop-opacity="1" stop-color="rgb(93.992615%, 26.506042%, 32.884216%)" offset="0.53125"/><stop stop-opacity="1" stop-color="rgb(93.913269%, 26.126099%, 32.991028%)" offset="0.539062"/><stop stop-opacity="1" stop-color="rgb(93.832397%, 25.746155%, 33.097839%)" offset="0.546875"/><stop stop-opacity="1" stop-color="rgb(93.753052%, 25.366211%, 33.204651%)" offset="0.554688"/><stop stop-opacity="1" stop-color="rgb(93.673706%, 24.984741%, 33.311462%)" offset="0.5625"/><stop stop-opacity="1" stop-color="rgb(93.59436%, 24.604797%, 33.418274%)" offset="0.570313"/><stop stop-opacity="1" stop-color="rgb(93.515015%, 24.224854%, 33.525085%)" offset="0.578125"/><stop stop-opacity="1" stop-color="rgb(93.435669%, 23.84491%, 33.631897%)" offset="0.585938"/><stop stop-opacity="1" stop-color="rgb(93.356323%, 23.464966%, 33.737183%)" offset="0.59375"/><stop stop-opacity="1" stop-color="rgb(93.276978%, 23.083496%, 33.843994%)" offset="0.601562"/><stop stop-opacity="1" stop-color="rgb(93.196106%, 22.703552%, 33.950806%)" offset="0.609375"/><stop stop-opacity="1" stop-color="rgb(93.11676%, 22.323608%, 34.057617%)" offset="0.617188"/><stop stop-opacity="1" stop-color="rgb(93.037415%, 21.943665%, 34.164429%)" offset="0.625"/><stop stop-opacity="1" stop-color="rgb(92.958069%, 21.563721%, 34.27124%)" offset="0.632812"/><stop stop-opacity="1" stop-color="rgb(92.878723%, 21.182251%, 34.378052%)" offset="0.640625"/><stop stop-opacity="1" stop-color="rgb(92.799377%, 20.802307%, 34.484863%)" offset="0.648438"/><stop stop-opacity="1" stop-color="rgb(92.720032%, 20.422363%, 34.591675%)" offset="0.65625"/><stop stop-opacity="1" stop-color="rgb(92.63916%, 20.042419%, 34.698486%)" offset="0.664062"/><stop stop-opacity="1" stop-color="rgb(92.559814%, 19.662476%, 34.805298%)" offset="0.671875"/><stop stop-opacity="1" stop-color="rgb(92.480469%, 19.281006%, 34.912109%)" offset="0.679688"/><stop stop-opacity="1" stop-color="rgb(92.401123%, 18.901062%, 35.018921%)" offset="0.6875"/><stop stop-opacity="1" stop-color="rgb(92.321777%, 18.521118%, 35.125732%)" offset="0.695312"/><stop stop-opacity="1" stop-color="rgb(92.242432%, 18.141174%, 35.231018%)" offset="0.703125"/><stop stop-opacity="1" stop-color="rgb(92.163086%, 17.76123%, 35.33783%)" offset="0.710938"/><stop stop-opacity="1" stop-color="rgb(92.08374%, 17.379761%, 35.444641%)" offset="0.71875"/><stop stop-opacity="1" stop-color="rgb(92.002869%, 16.999817%, 35.551453%)" offset="0.726562"/><stop stop-opacity="1" stop-color="rgb(91.923523%, 16.619873%, 35.658264%)" offset="0.734375"/><stop stop-opacity="1" stop-color="rgb(91.844177%, 16.239929%, 35.765076%)" offset="0.742188"/><stop stop-opacity="1" stop-color="rgb(91.764832%, 15.859985%, 35.871887%)" offset="0.75"/><stop stop-opacity="1" stop-color="rgb(91.685486%, 15.478516%, 35.978699%)" offset="0.757812"/><stop stop-opacity="1" stop-color="rgb(91.60614%, 15.098572%, 36.08551%)" offset="0.765625"/><stop stop-opacity="1" stop-color="rgb(91.526794%, 14.718628%, 36.192322%)" offset="0.773438"/><stop stop-opacity="1" stop-color="rgb(91.447449%, 14.338684%, 36.299133%)" offset="0.78125"/><stop stop-opacity="1" stop-color="rgb(91.366577%, 13.95874%, 36.405945%)" offset="0.789062"/><stop stop-opacity="1" stop-color="rgb(91.287231%, 13.577271%, 36.512756%)" offset="0.796875"/><stop stop-opacity="1" stop-color="rgb(91.207886%, 13.197327%, 36.619568%)" offset="0.804688"/><stop stop-opacity="1" stop-color="rgb(91.12854%, 12.817383%, 36.724854%)" offset="0.8125"/><stop stop-opacity="1" stop-color="rgb(91.049194%, 12.437439%, 36.831665%)" offset="0.820312"/><stop stop-opacity="1" stop-color="rgb(91.003418%, 12.223816%, 36.891174%)" offset="0.828125"/><stop stop-opacity="1" stop-color="rgb(90.99884%, 12.199402%, 36.898804%)" offset="0.84375"/><stop stop-opacity="1" stop-color="rgb(90.99884%, 12.199402%, 36.898804%)" offset="0.852292"/><stop stop-opacity="1" stop-color="rgb(90.99884%, 12.199402%, 36.898804%)" offset="0.875"/><stop stop-opacity="1" stop-color="rgb(90.99884%, 12.199402%, 36.898804%)" offset="1"/></linearGradient></defs><g clip-path="url(#434a0b46e9)"><g clip-path="url(#1ad25c12dc)"><path fill="url(#19af7cbb7a)" d="M 0.03125 70.707031 L 0.03125 107.382812 L 6.84375 107.382812 L 6.84375 70.707031 Z M 0.03125 70.707031 " fill-rule="nonzero"/></g></g><g clip-path="url(#39a3f37739)"><g clip-path="url(#b652e35249)"><path fill="url(#ab49b61ec0)" d="M 27.816406 62.757812 L 27.816406 110.214844 L 44.96875 110.214844 L 44.96875 62.757812 Z M 27.816406 62.757812 " fill-rule="nonzero"/></g></g><g clip-path="url(#32eb7a30f8)"><g clip-path="url(#091840eff9)"><path fill="url(#a863ee09fb)" d="M 5.433594 86.472656 L 5.433594 110.214844 L 30.453125 110.214844 L 30.453125 86.472656 Z M 5.433594 86.472656 " fill-rule="nonzero"/></g></g><g clip-path="url(#0d841b16fd)"><g clip-path="url(#e555e11883)"><path fill="url(#0bfc85a5be)" d="M 0.03125 39.714844 L 0.03125 92.308594 L 44.96875 92.308594 L 44.96875 39.714844 Z M 0.03125 39.714844 " fill-rule="nonzero"/></g></g><g fill="#929292" fill-opacity="0.4"><g transform="translate(65.099909, 95.946349)"><g><path d="M 15.71875 -34.859375 C 18.132812 -34.859375 20.046875 -34.0625 21.453125 -32.46875 C 22.867188 -30.882812 23.578125 -28.78125 23.578125 -26.15625 C 23.578125 -25.332031 23.539062 -24.703125 23.46875 -24.265625 C 23.101562 -21.179688 22 -18.710938 20.15625 -16.859375 C 18.320312 -15.003906 16.097656 -14.078125 13.484375 -14.078125 L 9.890625 -14.078125 C 9.765625 -14.078125 9.664062 -13.992188 9.59375 -13.828125 L 8 -0.59375 C 7.96875 -0.425781 7.882812 -0.285156 7.75 -0.171875 C 7.625 -0.0546875 7.476562 0 7.3125 0 L 1.6875 0 C 1.519531 0 1.382812 -0.0546875 1.28125 -0.171875 C 1.1875 -0.285156 1.15625 -0.425781 1.1875 -0.59375 L 5.328125 -34.265625 C 5.359375 -34.429688 5.429688 -34.570312 5.546875 -34.6875 C 5.660156 -34.800781 5.800781 -34.859375 5.96875 -34.859375 Z M 12.6875 -19.546875 C 13.84375 -19.546875 14.800781 -20.039062 15.5625 -21.03125 C 16.320312 -22.03125 16.703125 -23.390625 16.703125 -25.109375 C 16.703125 -26.273438 16.445312 -27.179688 15.9375 -27.828125 C 15.425781 -28.472656 14.722656 -28.796875 13.828125 -28.796875 L 11.6875 -28.796875 C 11.519531 -28.796875 11.4375 -28.710938 11.4375 -28.546875 L 10.34375 -19.796875 C 10.34375 -19.628906 10.410156 -19.546875 10.546875 -19.546875 Z M 12.6875 -19.546875 "/></g></g></g><g fill="#929292" fill-opacity="0.4"><g transform="translate(87.522872, 95.946349)"><g><path d="M 14.46875 0 C 14.132812 0 13.9375 -0.164062 13.875 -0.5 L 11.84375 -14.21875 C 11.769531 -14.351562 11.6875 -14.421875 11.59375 -14.421875 L 10 -14.421875 C 9.800781 -14.421875 9.703125 -14.335938 9.703125 -14.171875 L 8.0625 -0.59375 C 8.019531 -0.425781 7.929688 -0.285156 7.796875 -0.171875 C 7.671875 -0.0546875 7.523438 0 7.359375 0 L 1.734375 0 C 1.566406 0 1.429688 -0.0546875 1.328125 -0.171875 C 1.234375 -0.285156 1.207031 -0.425781 1.25 -0.59375 L 5.375 -34.21875 C 5.40625 -34.382812 5.476562 -34.523438 5.59375 -34.640625 C 5.707031 -34.753906 5.847656 -34.8125 6.015625 -34.8125 L 15.765625 -34.8125 C 18.148438 -34.8125 20.054688 -34.023438 21.484375 -32.453125 C 22.910156 -30.878906 23.625 -28.78125 23.625 -26.15625 C 23.625 -25.363281 23.59375 -24.75 23.53125 -24.3125 C 23.289062 -22.394531 22.710938 -20.679688 21.796875 -19.171875 C 20.890625 -17.660156 19.742188 -16.492188 18.359375 -15.671875 C 18.285156 -15.628906 18.234375 -15.582031 18.203125 -15.53125 C 18.171875 -15.488281 18.171875 -15.4375 18.203125 -15.375 L 20.84375 -0.703125 L 20.84375 -0.59375 C 20.84375 -0.425781 20.78125 -0.285156 20.65625 -0.171875 C 20.539062 -0.0546875 20.398438 0 20.234375 0 Z M 11.734375 -28.796875 C 11.566406 -28.796875 11.484375 -28.710938 11.484375 -28.546875 L 10.4375 -20.046875 C 10.375 -19.878906 10.441406 -19.796875 10.640625 -19.796875 L 12.78125 -19.796875 C 13.90625 -19.796875 14.847656 -20.289062 15.609375 -21.28125 C 16.378906 -22.28125 16.765625 -23.59375 16.765625 -25.21875 C 16.765625 -26.3125 16.503906 -27.179688 15.984375 -27.828125 C 15.472656 -28.472656 14.785156 -28.796875 13.921875 -28.796875 Z M 11.734375 -28.796875 "/></g></g></g><g fill="#929292" fill-opacity="0.4"><g transform="translate(110.244139, 95.946349)"><g><path d="M 1.734375 0 C 1.566406 0 1.429688 -0.0546875 1.328125 -0.171875 C 1.234375 -0.285156 1.207031 -0.425781 1.25 -0.59375 L 5.375 -34.21875 C 5.40625 -34.382812 5.476562 -34.523438 5.59375 -34.640625 C 5.707031 -34.753906 5.847656 -34.8125 6.015625 -34.8125 L 11.640625 -34.8125 C 12.003906 -34.8125 12.1875 -34.613281 12.1875 -34.21875 L 8.0625 -0.59375 C 8.019531 -0.425781 7.929688 -0.285156 7.796875 -0.171875 C 7.671875 -0.0546875 7.523438 0 7.359375 0 Z M 1.734375 0 "/></g></g></g><g fill="#929292" fill-opacity="0.4"><g transform="translate(121.331324, 95.946349)"><g><path d="M 9.796875 0.390625 C 7.242188 0.390625 5.210938 -0.316406 3.703125 -1.734375 C 2.191406 -3.160156 1.4375 -5.035156 1.4375 -7.359375 C 1.4375 -7.660156 1.472656 -8.109375 1.546875 -8.703125 L 1.734375 -10.140625 C 1.773438 -10.304688 1.851562 -10.445312 1.96875 -10.5625 C 2.082031 -10.6875 2.222656 -10.75 2.390625 -10.75 L 7.90625 -10.75 C 8.269531 -10.75 8.453125 -10.546875 8.453125 -10.140625 L 8.3125 -9.046875 C 8.269531 -8.921875 8.25 -8.722656 8.25 -8.453125 C 8.25 -7.585938 8.460938 -6.898438 8.890625 -6.390625 C 9.328125 -5.878906 9.894531 -5.625 10.59375 -5.625 C 11.457031 -5.625 12.195312 -5.976562 12.8125 -6.6875 C 13.425781 -7.40625 13.734375 -8.289062 13.734375 -9.34375 C 13.734375 -10.207031 13.445312 -10.96875 12.875 -11.625 C 12.3125 -12.289062 11.238281 -13.273438 9.65625 -14.578125 C 8.320312 -15.628906 7.238281 -16.578125 6.40625 -17.421875 C 5.582031 -18.273438 4.878906 -19.289062 4.296875 -20.46875 C 3.722656 -21.644531 3.4375 -22.992188 3.4375 -24.515625 C 3.4375 -26.609375 3.890625 -28.46875 4.796875 -30.09375 C 5.710938 -31.71875 6.972656 -32.976562 8.578125 -33.875 C 10.179688 -34.769531 11.976562 -35.21875 13.96875 -35.21875 C 16.53125 -35.21875 18.5625 -34.476562 20.0625 -33 C 21.570312 -31.519531 22.328125 -29.554688 22.328125 -27.109375 C 22.328125 -26.804688 22.296875 -26.320312 22.234375 -25.65625 L 22.078125 -24.46875 C 22.046875 -24.300781 21.960938 -24.160156 21.828125 -24.046875 C 21.703125 -23.929688 21.554688 -23.875 21.390625 -23.875 L 15.859375 -23.875 C 15.691406 -23.875 15.554688 -23.929688 15.453125 -24.046875 C 15.359375 -24.160156 15.332031 -24.300781 15.375 -24.46875 L 15.515625 -25.8125 C 15.546875 -25.945312 15.5625 -26.160156 15.5625 -26.453125 C 15.5625 -27.285156 15.351562 -27.945312 14.9375 -28.4375 C 14.53125 -28.9375 13.960938 -29.1875 13.234375 -29.1875 C 12.367188 -29.1875 11.644531 -28.832031 11.0625 -28.125 C 10.488281 -27.414062 10.203125 -26.460938 10.203125 -25.265625 C 10.203125 -24.472656 10.472656 -23.71875 11.015625 -23 C 11.566406 -22.289062 12.570312 -21.320312 14.03125 -20.09375 C 15.6875 -18.695312 16.9375 -17.578125 17.78125 -16.734375 C 18.625 -15.890625 19.296875 -14.96875 19.796875 -13.96875 C 20.296875 -12.976562 20.546875 -11.835938 20.546875 -10.546875 C 20.546875 -10.273438 20.507812 -9.8125 20.4375 -9.15625 C 20.070312 -6.238281 18.910156 -3.914062 16.953125 -2.1875 C 15.003906 -0.46875 12.617188 0.390625 9.796875 0.390625 Z M 9.796875 0.390625 "/></g></g></g><g fill="#929292" fill-opacity="0.4"><g transform="translate(142.759915, 95.946349)"><g><path d="M 20.84375 -34.421875 C 20.96875 -34.679688 21.210938 -34.8125 21.578125 -34.8125 L 27.203125 -34.8125 C 27.367188 -34.8125 27.5 -34.753906 27.59375 -34.640625 C 27.695312 -34.523438 27.734375 -34.382812 27.703125 -34.21875 L 23.578125 -0.59375 C 23.546875 -0.425781 23.46875 -0.285156 23.34375 -0.171875 C 23.226562 -0.0546875 23.085938 0 22.921875 0 L 17.265625 0 C 17.097656 0 16.960938 -0.0546875 16.859375 -0.171875 C 16.753906 -0.285156 16.722656 -0.425781 16.765625 -0.59375 L 19.5 -22.921875 C 19.53125 -23.054688 19.507812 -23.125 19.4375 -23.125 C 19.375 -23.125 19.3125 -23.078125 19.25 -22.984375 L 14.625 -16.109375 C 14.425781 -15.847656 14.273438 -15.71875 14.171875 -15.71875 C 14.109375 -15.71875 13.992188 -15.847656 13.828125 -16.109375 L 10.9375 -22.984375 C 10.875 -23.078125 10.804688 -23.125 10.734375 -23.125 C 10.671875 -23.125 10.640625 -23.054688 10.640625 -22.921875 L 7.90625 -0.59375 C 7.875 -0.425781 7.800781 -0.285156 7.6875 -0.171875 C 7.570312 -0.0546875 7.429688 0 7.265625 0 L 1.59375 0 C 1.425781 0 1.289062 -0.0546875 1.1875 -0.171875 C 1.09375 -0.285156 1.0625 -0.425781 1.09375 -0.59375 L 5.21875 -34.21875 C 5.25 -34.382812 5.320312 -34.523438 5.4375 -34.640625 C 5.5625 -34.753906 5.707031 -34.8125 5.875 -34.8125 L 11.4375 -34.8125 C 11.570312 -34.8125 11.703125 -34.773438 11.828125 -34.703125 C 11.960938 -34.640625 12.046875 -34.546875 12.078125 -34.421875 L 15.421875 -26.515625 C 15.484375 -26.378906 15.582031 -26.378906 15.71875 -26.515625 Z M 20.84375 -34.421875 "/></g></g></g><g fill="#929292" fill-opacity="0.4"><g transform="translate(169.160339, 95.946349)"><g><path d="M 15.3125 0 C 14.945312 0 14.765625 -0.179688 14.765625 -0.546875 L 14.578125 -5.328125 C 14.609375 -5.390625 14.585938 -5.441406 14.515625 -5.484375 C 14.453125 -5.535156 14.390625 -5.5625 14.328125 -5.5625 L 8.203125 -5.5625 C 8.003906 -5.5625 7.90625 -5.484375 7.90625 -5.328125 L 6.515625 -0.546875 C 6.410156 -0.179688 6.175781 0 5.8125 0 L 0.203125 0 C -0.191406 0 -0.328125 -0.210938 -0.203125 -0.640625 L 10.984375 -34.265625 C 11.085938 -34.628906 11.320312 -34.8125 11.6875 -34.8125 L 18.203125 -34.8125 C 18.535156 -34.8125 18.734375 -34.628906 18.796875 -34.265625 L 21.6875 -0.640625 L 21.6875 -0.5 C 21.6875 -0.164062 21.503906 0 21.140625 0 Z M 9.59375 -11.234375 C 9.53125 -11.066406 9.582031 -10.984375 9.75 -10.984375 L 14.078125 -10.984375 C 14.242188 -10.984375 14.328125 -11.066406 14.328125 -11.234375 L 13.734375 -24.8125 C 13.691406 -24.914062 13.640625 -24.96875 13.578125 -24.96875 C 13.515625 -24.96875 13.460938 -24.914062 13.421875 -24.8125 Z M 9.59375 -11.234375 "/></g></g></g><g fill="#929292" fill-opacity="0.4"><g transform="translate(192.428515, 95.946349)"><g/></g></g><g fill="#0e0e0e" fill-opacity="1"><g transform="translate(62.901809, 93.748249)"><g><path d="M 15.71875 -34.859375 C 18.132812 -34.859375 20.046875 -34.0625 21.453125 -32.46875 C 22.867188 -30.882812 23.578125 -28.78125 23.578125 -26.15625 C 23.578125 -25.332031 23.539062 -24.703125 23.46875 -24.265625 C 23.101562 -21.179688 22 -18.710938 20.15625 -16.859375 C 18.320312 -15.003906 16.097656 -14.078125 13.484375 -14.078125 L 9.890625 -14.078125 C 9.765625 -14.078125 9.664062 -13.992188 9.59375 -13.828125 L 8 -0.59375 C 7.96875 -0.425781 7.882812 -0.285156 7.75 -0.171875 C 7.625 -0.0546875 7.476562 0 7.3125 0 L 1.6875 0 C 1.519531 0 1.382812 -0.0546875 1.28125 -0.171875 C 1.1875 -0.285156 1.15625 -0.425781 1.1875 -0.59375 L 5.328125 -34.265625 C 5.359375 -34.429688 5.429688 -34.570312 5.546875 -34.6875 C 5.660156 -34.800781 5.800781 -34.859375 5.96875 -34.859375 Z M 12.6875 -19.546875 C 13.84375 -19.546875 14.800781 -20.039062 15.5625 -21.03125 C 16.320312 -22.03125 16.703125 -23.390625 16.703125 -25.109375 C 16.703125 -26.273438 16.445312 -27.179688 15.9375 -27.828125 C 15.425781 -28.472656 14.722656 -28.796875 13.828125 -28.796875 L 11.6875 -28.796875 C 11.519531 -28.796875 11.4375 -28.710938 11.4375 -28.546875 L 10.34375 -19.796875 C 10.34375 -19.628906 10.410156 -19.546875 10.546875 -19.546875 Z M 12.6875 -19.546875 "/></g></g></g><g fill="#0e0e0e" fill-opacity="1"><g transform="translate(85.324772, 93.748249)"><g><path d="M 14.46875 0 C 14.132812 0 13.9375 -0.164062 13.875 -0.5 L 11.84375 -14.21875 C 11.769531 -14.351562 11.6875 -14.421875 11.59375 -14.421875 L 10 -14.421875 C 9.800781 -14.421875 9.703125 -14.335938 9.703125 -14.171875 L 8.0625 -0.59375 C 8.019531 -0.425781 7.929688 -0.285156 7.796875 -0.171875 C 7.671875 -0.0546875 7.523438 0 7.359375 0 L 1.734375 0 C 1.566406 0 1.429688 -0.0546875 1.328125 -0.171875 C 1.234375 -0.285156 1.207031 -0.425781 1.25 -0.59375 L 5.375 -34.21875 C 5.40625 -34.382812 5.476562 -34.523438 5.59375 -34.640625 C 5.707031 -34.753906 5.847656 -34.8125 6.015625 -34.8125 L 15.765625 -34.8125 C 18.148438 -34.8125 20.054688 -34.023438 21.484375 -32.453125 C 22.910156 -30.878906 23.625 -28.78125 23.625 -26.15625 C 23.625 -25.363281 23.59375 -24.75 23.53125 -24.3125 C 23.289062 -22.394531 22.710938 -20.679688 21.796875 -19.171875 C 20.890625 -17.660156 19.742188 -16.492188 18.359375 -15.671875 C 18.285156 -15.628906 18.234375 -15.582031 18.203125 -15.53125 C 18.171875 -15.488281 18.171875 -15.4375 18.203125 -15.375 L 20.84375 -0.703125 L 20.84375 -0.59375 C 20.84375 -0.425781 20.78125 -0.285156 20.65625 -0.171875 C 20.539062 -0.0546875 20.398438 0 20.234375 0 Z M 11.734375 -28.796875 C 11.566406 -28.796875 11.484375 -28.710938 11.484375 -28.546875 L 10.4375 -20.046875 C 10.375 -19.878906 10.441406 -19.796875 10.640625 -19.796875 L 12.78125 -19.796875 C 13.90625 -19.796875 14.847656 -20.289062 15.609375 -21.28125 C 16.378906 -22.28125 16.765625 -23.59375 16.765625 -25.21875 C 16.765625 -26.3125 16.503906 -27.179688 15.984375 -27.828125 C 15.472656 -28.472656 14.785156 -28.796875 13.921875 -28.796875 Z M 11.734375 -28.796875 "/></g></g></g><g fill="#0e0e0e" fill-opacity="1"><g transform="translate(108.046039, 93.748249)"><g><path d="M 1.734375 0 C 1.566406 0 1.429688 -0.0546875 1.328125 -0.171875 C 1.234375 -0.285156 1.207031 -0.425781 1.25 -0.59375 L 5.375 -34.21875 C 5.40625 -34.382812 5.476562 -34.523438 5.59375 -34.640625 C 5.707031 -34.753906 5.847656 -34.8125 6.015625 -34.8125 L 11.640625 -34.8125 C 12.003906 -34.8125 12.1875 -34.613281 12.1875 -34.21875 L 8.0625 -0.59375 C 8.019531 -0.425781 7.929688 -0.285156 7.796875 -0.171875 C 7.671875 -0.0546875 7.523438 0 7.359375 0 Z M 1.734375 0 "/></g></g></g><g fill="#0e0e0e" fill-opacity="1"><g transform="translate(119.133224, 93.748249)"><g><path d="M 9.796875 0.390625 C 7.242188 0.390625 5.210938 -0.316406 3.703125 -1.734375 C 2.191406 -3.160156 1.4375 -5.035156 1.4375 -7.359375 C 1.4375 -7.660156 1.472656 -8.109375 1.546875 -8.703125 L 1.734375 -10.140625 C 1.773438 -10.304688 1.851562 -10.445312 1.96875 -10.5625 C 2.082031 -10.6875 2.222656 -10.75 2.390625 -10.75 L 7.90625 -10.75 C 8.269531 -10.75 8.453125 -10.546875 8.453125 -10.140625 L 8.3125 -9.046875 C 8.269531 -8.921875 8.25 -8.722656 8.25 -8.453125 C 8.25 -7.585938 8.460938 -6.898438 8.890625 -6.390625 C 9.328125 -5.878906 9.894531 -5.625 10.59375 -5.625 C 11.457031 -5.625 12.195312 -5.976562 12.8125 -6.6875 C 13.425781 -7.40625 13.734375 -8.289062 13.734375 -9.34375 C 13.734375 -10.207031 13.445312 -10.96875 12.875 -11.625 C 12.3125 -12.289062 11.238281 -13.273438 9.65625 -14.578125 C 8.320312 -15.628906 7.238281 -16.578125 6.40625 -17.421875 C 5.582031 -18.273438 4.878906 -19.289062 4.296875 -20.46875 C 3.722656 -21.644531 3.4375 -22.992188 3.4375 -24.515625 C 3.4375 -26.609375 3.890625 -28.46875 4.796875 -30.09375 C 5.710938 -31.71875 6.972656 -32.976562 8.578125 -33.875 C 10.179688 -34.769531 11.976562 -35.21875 13.96875 -35.21875 C 16.53125 -35.21875 18.5625 -34.476562 20.0625 -33 C 21.570312 -31.519531 22.328125 -29.554688 22.328125 -27.109375 C 22.328125 -26.804688 22.296875 -26.320312 22.234375 -25.65625 L 22.078125 -24.46875 C 22.046875 -24.300781 21.960938 -24.160156 21.828125 -24.046875 C 21.703125 -23.929688 21.554688 -23.875 21.390625 -23.875 L 15.859375 -23.875 C 15.691406 -23.875 15.554688 -23.929688 15.453125 -24.046875 C 15.359375 -24.160156 15.332031 -24.300781 15.375 -24.46875 L 15.515625 -25.8125 C 15.546875 -25.945312 15.5625 -26.160156 15.5625 -26.453125 C 15.5625 -27.285156 15.351562 -27.945312 14.9375 -28.4375 C 14.53125 -28.9375 13.960938 -29.1875 13.234375 -29.1875 C 12.367188 -29.1875 11.644531 -28.832031 11.0625 -28.125 C 10.488281 -27.414062 10.203125 -26.460938 10.203125 -25.265625 C 10.203125 -24.472656 10.472656 -23.71875 11.015625 -23 C 11.566406 -22.289062 12.570312 -21.320312 14.03125 -20.09375 C 15.6875 -18.695312 16.9375 -17.578125 17.78125 -16.734375 C 18.625 -15.890625 19.296875 -14.96875 19.796875 -13.96875 C 20.296875 -12.976562 20.546875 -11.835938 20.546875 -10.546875 C 20.546875 -10.273438 20.507812 -9.8125 20.4375 -9.15625 C 20.070312 -6.238281 18.910156 -3.914062 16.953125 -2.1875 C 15.003906 -0.46875 12.617188 0.390625 9.796875 0.390625 Z M 9.796875 0.390625 "/></g></g></g><g fill="#0e0e0e" fill-opacity="1"><g transform="translate(140.561815, 93.748249)"><g><path d="M 20.84375 -34.421875 C 20.96875 -34.679688 21.210938 -34.8125 21.578125 -34.8125 L 27.203125 -34.8125 C 27.367188 -34.8125 27.5 -34.753906 27.59375 -34.640625 C 27.695312 -34.523438 27.734375 -34.382812 27.703125 -34.21875 L 23.578125 -0.59375 C 23.546875 -0.425781 23.46875 -0.285156 23.34375 -0.171875 C 23.226562 -0.0546875 23.085938 0 22.921875 0 L 17.265625 0 C 17.097656 0 16.960938 -0.0546875 16.859375 -0.171875 C 16.753906 -0.285156 16.722656 -0.425781 16.765625 -0.59375 L 19.5 -22.921875 C 19.53125 -23.054688 19.507812 -23.125 19.4375 -23.125 C 19.375 -23.125 19.3125 -23.078125 19.25 -22.984375 L 14.625 -16.109375 C 14.425781 -15.847656 14.273438 -15.71875 14.171875 -15.71875 C 14.109375 -15.71875 13.992188 -15.847656 13.828125 -16.109375 L 10.9375 -22.984375 C 10.875 -23.078125 10.804688 -23.125 10.734375 -23.125 C 10.671875 -23.125 10.640625 -23.054688 10.640625 -22.921875 L 7.90625 -0.59375 C 7.875 -0.425781 7.800781 -0.285156 7.6875 -0.171875 C 7.570312 -0.0546875 7.429688 0 7.265625 0 L 1.59375 0 C 1.425781 0 1.289062 -0.0546875 1.1875 -0.171875 C 1.09375 -0.285156 1.0625 -0.425781 1.09375 -0.59375 L 5.21875 -34.21875 C 5.25 -34.382812 5.320312 -34.523438 5.4375 -34.640625 C 5.5625 -34.753906 5.707031 -34.8125 5.875 -34.8125 L 11.4375 -34.8125 C 11.570312 -34.8125 11.703125 -34.773438 11.828125 -34.703125 C 11.960938 -34.640625 12.046875 -34.546875 12.078125 -34.421875 L 15.421875 -26.515625 C 15.484375 -26.378906 15.582031 -26.378906 15.71875 -26.515625 Z M 20.84375 -34.421875 "/></g></g></g><g fill="#0e0e0e" fill-opacity="1"><g transform="translate(166.962239, 93.748249)"><g><path d="M 15.3125 0 C 14.945312 0 14.765625 -0.179688 14.765625 -0.546875 L 14.578125 -5.328125 C 14.609375 -5.390625 14.585938 -5.441406 14.515625 -5.484375 C 14.453125 -5.535156 14.390625 -5.5625 14.328125 -5.5625 L 8.203125 -5.5625 C 8.003906 -5.5625 7.90625 -5.484375 7.90625 -5.328125 L 6.515625 -0.546875 C 6.410156 -0.179688 6.175781 0 5.8125 0 L 0.203125 0 C -0.191406 0 -0.328125 -0.210938 -0.203125 -0.640625 L 10.984375 -34.265625 C 11.085938 -34.628906 11.320312 -34.8125 11.6875 -34.8125 L 18.203125 -34.8125 C 18.535156 -34.8125 18.734375 -34.628906 18.796875 -34.265625 L 21.6875 -0.640625 L 21.6875 -0.5 C 21.6875 -0.164062 21.503906 0 21.140625 0 Z M 9.59375 -11.234375 C 9.53125 -11.066406 9.582031 -10.984375 9.75 -10.984375 L 14.078125 -10.984375 C 14.242188 -10.984375 14.328125 -11.066406 14.328125 -11.234375 L 13.734375 -24.8125 C 13.691406 -24.914062 13.640625 -24.96875 13.578125 -24.96875 C 13.515625 -24.96875 13.460938 -24.914062 13.421875 -24.8125 Z M 9.59375 -11.234375 "/></g></g></g><g fill="#0e0e0e" fill-opacity="1"><g transform="translate(190.230415, 93.748249)"><g/></g></g><g fill="#929292" fill-opacity="0.4"><g transform="translate(202.087478, 95.946349)"><g><path d="M 10.25 0.390625 C 7.625 0.390625 5.546875 -0.34375 4.015625 -1.8125 C 2.492188 -3.289062 1.734375 -5.289062 1.734375 -7.8125 C 1.734375 -8.144531 1.769531 -8.675781 1.84375 -9.40625 L 3.828125 -25.515625 C 4.160156 -28.460938 5.3125 -30.816406 7.28125 -32.578125 C 9.257812 -34.335938 11.707031 -35.21875 14.625 -35.21875 C 17.269531 -35.21875 19.351562 -34.476562 20.875 -33 C 22.40625 -31.519531 23.171875 -29.519531 23.171875 -27 C 23.171875 -26.675781 23.140625 -26.179688 23.078125 -25.515625 L 22.984375 -24.96875 C 22.941406 -24.800781 22.863281 -24.660156 22.75 -24.546875 C 22.632812 -24.429688 22.492188 -24.375 22.328125 -24.375 L 16.65625 -24.125 C 16.289062 -24.125 16.125 -24.304688 16.15625 -24.671875 L 16.3125 -25.96875 C 16.34375 -26.09375 16.359375 -26.289062 16.359375 -26.5625 C 16.359375 -27.351562 16.132812 -27.988281 15.6875 -28.46875 C 15.238281 -28.945312 14.632812 -29.1875 13.875 -29.1875 C 13.039062 -29.1875 12.328125 -28.890625 11.734375 -28.296875 C 11.140625 -27.703125 10.773438 -26.925781 10.640625 -25.96875 L 8.546875 -8.796875 C 8.515625 -8.671875 8.5 -8.488281 8.5 -8.25 C 8.5 -7.457031 8.722656 -6.820312 9.171875 -6.34375 C 9.617188 -5.863281 10.207031 -5.625 10.9375 -5.625 C 11.800781 -5.625 12.53125 -5.910156 13.125 -6.484375 C 13.726562 -7.066406 14.09375 -7.835938 14.21875 -8.796875 L 14.375 -10.140625 C 14.40625 -10.304688 14.476562 -10.445312 14.59375 -10.5625 C 14.707031 -10.6875 14.847656 -10.75 15.015625 -10.75 L 20.640625 -10.5 C 20.804688 -10.5 20.9375 -10.4375 21.03125 -10.3125 C 21.132812 -10.195312 21.171875 -10.054688 21.140625 -9.890625 L 21.09375 -9.40625 C 20.726562 -6.414062 19.550781 -4.035156 17.5625 -2.265625 C 15.570312 -0.492188 13.132812 0.390625 10.25 0.390625 Z M 10.25 0.390625 "/></g></g></g><g fill="#929292" fill-opacity="0.4"><g transform="translate(224.460717, 95.946349)"><g><path d="M 14.46875 0 C 14.132812 0 13.9375 -0.164062 13.875 -0.5 L 11.84375 -14.21875 C 11.769531 -14.351562 11.6875 -14.421875 11.59375 -14.421875 L 10 -14.421875 C 9.800781 -14.421875 9.703125 -14.335938 9.703125 -14.171875 L 8.0625 -0.59375 C 8.019531 -0.425781 7.929688 -0.285156 7.796875 -0.171875 C 7.671875 -0.0546875 7.523438 0 7.359375 0 L 1.734375 0 C 1.566406 0 1.429688 -0.0546875 1.328125 -0.171875 C 1.234375 -0.285156 1.207031 -0.425781 1.25 -0.59375 L 5.375 -34.21875 C 5.40625 -34.382812 5.476562 -34.523438 5.59375 -34.640625 C 5.707031 -34.753906 5.847656 -34.8125 6.015625 -34.8125 L 15.765625 -34.8125 C 18.148438 -34.8125 20.054688 -34.023438 21.484375 -32.453125 C 22.910156 -30.878906 23.625 -28.78125 23.625 -26.15625 C 23.625 -25.363281 23.59375 -24.75 23.53125 -24.3125 C 23.289062 -22.394531 22.710938 -20.679688 21.796875 -19.171875 C 20.890625 -17.660156 19.742188 -16.492188 18.359375 -15.671875 C 18.285156 -15.628906 18.234375 -15.582031 18.203125 -15.53125 C 18.171875 -15.488281 18.171875 -15.4375 18.203125 -15.375 L 20.84375 -0.703125 L 20.84375 -0.59375 C 20.84375 -0.425781 20.78125 -0.285156 20.65625 -0.171875 C 20.539062 -0.0546875 20.398438 0 20.234375 0 Z M 11.734375 -28.796875 C 11.566406 -28.796875 11.484375 -28.710938 11.484375 -28.546875 L 10.4375 -20.046875 C 10.375 -19.878906 10.441406 -19.796875 10.640625 -19.796875 L 12.78125 -19.796875 C 13.90625 -19.796875 14.847656 -20.289062 15.609375 -21.28125 C 16.378906 -22.28125 16.765625 -23.59375 16.765625 -25.21875 C 16.765625 -26.3125 16.503906 -27.179688 15.984375 -27.828125 C 15.472656 -28.472656 14.785156 -28.796875 13.921875 -28.796875 Z M 11.734375 -28.796875 "/></g></g></g><g fill="#929292" fill-opacity="0.4"><g transform="translate(247.181983, 95.946349)"><g><path d="M 22.484375 -29.390625 C 22.453125 -29.222656 22.375 -29.082031 22.25 -28.96875 C 22.132812 -28.851562 21.992188 -28.796875 21.828125 -28.796875 L 11.734375 -28.796875 C 11.566406 -28.796875 11.484375 -28.710938 11.484375 -28.546875 L 10.5 -20.6875 C 10.5 -20.519531 10.5625 -20.4375 10.6875 -20.4375 L 16.515625 -20.4375 C 16.679688 -20.4375 16.8125 -20.378906 16.90625 -20.265625 C 17.007812 -20.148438 17.046875 -20.007812 17.015625 -19.84375 L 16.40625 -15.015625 C 16.375 -14.847656 16.300781 -14.707031 16.1875 -14.59375 C 16.070312 -14.476562 15.929688 -14.421875 15.765625 -14.421875 L 10 -14.421875 C 9.800781 -14.421875 9.703125 -14.335938 9.703125 -14.171875 L 8.75 -6.265625 C 8.6875 -6.097656 8.753906 -6.015625 8.953125 -6.015625 L 19 -6.015625 C 19.164062 -6.015625 19.304688 -5.957031 19.421875 -5.84375 C 19.535156 -5.726562 19.578125 -5.585938 19.546875 -5.421875 L 18.953125 -0.59375 C 18.921875 -0.425781 18.84375 -0.285156 18.71875 -0.171875 C 18.601562 -0.0546875 18.460938 0 18.296875 0 L 1.734375 0 C 1.566406 0 1.429688 -0.0546875 1.328125 -0.171875 C 1.234375 -0.285156 1.207031 -0.425781 1.25 -0.59375 L 5.375 -34.21875 C 5.40625 -34.382812 5.476562 -34.523438 5.59375 -34.640625 C 5.707031 -34.753906 5.847656 -34.8125 6.015625 -34.8125 L 22.578125 -34.8125 C 22.742188 -34.8125 22.875 -34.753906 22.96875 -34.640625 C 23.070312 -34.523438 23.109375 -34.382812 23.078125 -34.21875 Z M 12.140625 -37.890625 C 11.804688 -37.890625 11.640625 -37.992188 11.640625 -38.203125 C 11.640625 -38.328125 11.691406 -38.457031 11.796875 -38.59375 L 15.21875 -43.671875 C 15.382812 -43.929688 15.648438 -44.0625 16.015625 -44.0625 L 20.5 -44.0625 C 20.800781 -44.0625 20.953125 -43.960938 20.953125 -43.765625 C 20.953125 -43.597656 20.882812 -43.445312 20.75 -43.3125 L 16.421875 -38.25 C 16.191406 -38.007812 15.941406 -37.890625 15.671875 -37.890625 Z M 12.140625 -37.890625 "/></g></g></g><g fill="#929292" fill-opacity="0.4"><g transform="translate(268.31227, 95.946349)"><g><path d="M 15.3125 0 C 14.945312 0 14.765625 -0.179688 14.765625 -0.546875 L 14.578125 -5.328125 C 14.609375 -5.390625 14.585938 -5.441406 14.515625 -5.484375 C 14.453125 -5.535156 14.390625 -5.5625 14.328125 -5.5625 L 8.203125 -5.5625 C 8.003906 -5.5625 7.90625 -5.484375 7.90625 -5.328125 L 6.515625 -0.546875 C 6.410156 -0.179688 6.175781 0 5.8125 0 L 0.203125 0 C -0.191406 0 -0.328125 -0.210938 -0.203125 -0.640625 L 10.984375 -34.265625 C 11.085938 -34.628906 11.320312 -34.8125 11.6875 -34.8125 L 18.203125 -34.8125 C 18.535156 -34.8125 18.734375 -34.628906 18.796875 -34.265625 L 21.6875 -0.640625 L 21.6875 -0.5 C 21.6875 -0.164062 21.503906 0 21.140625 0 Z M 9.59375 -11.234375 C 9.53125 -11.066406 9.582031 -10.984375 9.75 -10.984375 L 14.078125 -10.984375 C 14.242188 -10.984375 14.328125 -11.066406 14.328125 -11.234375 L 13.734375 -24.8125 C 13.691406 -24.914062 13.640625 -24.96875 13.578125 -24.96875 C 13.515625 -24.96875 13.460938 -24.914062 13.421875 -24.8125 Z M 9.59375 -11.234375 "/></g></g></g><g fill="#929292" fill-opacity="0.4"><g transform="translate(291.580447, 95.946349)"><g><path d="M 24.171875 -34.8125 C 24.335938 -34.8125 24.46875 -34.753906 24.5625 -34.640625 C 24.664062 -34.523438 24.703125 -34.382812 24.671875 -34.21875 L 24.078125 -29.390625 C 24.035156 -29.222656 23.957031 -29.082031 23.84375 -28.96875 C 23.726562 -28.851562 23.585938 -28.796875 23.421875 -28.796875 L 17.359375 -28.796875 C 17.296875 -28.796875 17.238281 -28.769531 17.1875 -28.71875 C 17.132812 -28.664062 17.109375 -28.609375 17.109375 -28.546875 L 13.671875 -0.59375 C 13.640625 -0.425781 13.566406 -0.285156 13.453125 -0.171875 C 13.335938 -0.0546875 13.195312 0 13.03125 0 L 7.359375 0 C 7.191406 0 7.054688 -0.0546875 6.953125 -0.171875 C 6.859375 -0.285156 6.828125 -0.425781 6.859375 -0.59375 L 10.296875 -28.546875 C 10.359375 -28.710938 10.289062 -28.796875 10.09375 -28.796875 L 4.328125 -28.796875 C 3.960938 -28.796875 3.78125 -28.992188 3.78125 -29.390625 L 4.375 -34.21875 C 4.40625 -34.382812 4.476562 -34.523438 4.59375 -34.640625 C 4.71875 -34.753906 4.859375 -34.8125 5.015625 -34.8125 Z M 24.171875 -34.8125 "/></g></g></g><g fill="#929292" fill-opacity="0.4"><g transform="translate(314.152555, 95.946349)"><g><path d="M 1.734375 0 C 1.566406 0 1.429688 -0.0546875 1.328125 -0.171875 C 1.234375 -0.285156 1.207031 -0.425781 1.25 -0.59375 L 5.375 -34.21875 C 5.40625 -34.382812 5.476562 -34.523438 5.59375 -34.640625 C 5.707031 -34.753906 5.847656 -34.8125 6.015625 -34.8125 L 11.640625 -34.8125 C 12.003906 -34.8125 12.1875 -34.613281 12.1875 -34.21875 L 8.0625 -0.59375 C 8.019531 -0.425781 7.929688 -0.285156 7.796875 -0.171875 C 7.671875 -0.0546875 7.523438 0 7.359375 0 Z M 1.734375 0 "/></g></g></g><g fill="#929292" fill-opacity="0.4"><g transform="translate(325.23974, 95.946349)"><g><path d="M 10.390625 0.390625 C 7.703125 0.390625 5.585938 -0.34375 4.046875 -1.8125 C 2.503906 -3.289062 1.734375 -5.304688 1.734375 -7.859375 C 1.734375 -8.191406 1.769531 -8.722656 1.84375 -9.453125 L 3.78125 -25.359375 C 4.144531 -28.347656 5.320312 -30.738281 7.3125 -32.53125 C 9.300781 -34.320312 11.769531 -35.21875 14.71875 -35.21875 C 17.40625 -35.21875 19.523438 -34.476562 21.078125 -33 C 22.640625 -31.519531 23.421875 -29.503906 23.421875 -26.953125 C 23.421875 -26.617188 23.390625 -26.085938 23.328125 -25.359375 L 21.390625 -9.453125 C 21.023438 -6.460938 19.835938 -4.070312 17.828125 -2.28125 C 15.828125 -0.5 13.347656 0.390625 10.390625 0.390625 Z M 11.09375 -5.625 C 12.019531 -5.625 12.789062 -5.945312 13.40625 -6.59375 C 14.019531 -7.238281 14.390625 -8.09375 14.515625 -9.15625 L 16.5625 -25.65625 C 16.59375 -25.789062 16.609375 -25.992188 16.609375 -26.265625 C 16.609375 -27.160156 16.375 -27.867188 15.90625 -28.390625 C 15.445312 -28.921875 14.820312 -29.1875 14.03125 -29.1875 C 13.132812 -29.1875 12.378906 -28.863281 11.765625 -28.21875 C 11.148438 -27.570312 10.773438 -26.71875 10.640625 -25.65625 L 8.609375 -9.15625 C 8.566406 -9.019531 8.546875 -8.816406 8.546875 -8.546875 C 8.546875 -7.660156 8.78125 -6.953125 9.25 -6.421875 C 9.71875 -5.890625 10.332031 -5.625 11.09375 -5.625 Z M 11.09375 -5.625 "/></g></g></g><g fill="#929292" fill-opacity="0.4"><g transform="translate(348.01073, 95.946349)"><g><path d="M 19.140625 -34.21875 C 19.179688 -34.382812 19.257812 -34.523438 19.375 -34.640625 C 19.488281 -34.753906 19.628906 -34.8125 19.796875 -34.8125 L 25.421875 -34.8125 C 25.578125 -34.8125 25.707031 -34.753906 25.8125 -34.640625 C 25.914062 -34.523438 25.945312 -34.382812 25.90625 -34.21875 L 21.78125 -0.59375 C 21.75 -0.425781 21.675781 -0.285156 21.5625 -0.171875 C 21.445312 -0.0546875 21.304688 0 21.140625 0 L 14.765625 0 C 14.472656 0 14.273438 -0.164062 14.171875 -0.5 L 10.59375 -19.75 C 10.5625 -19.84375 10.503906 -19.878906 10.421875 -19.859375 C 10.335938 -19.847656 10.296875 -19.789062 10.296875 -19.6875 L 8 -0.59375 C 7.96875 -0.425781 7.882812 -0.285156 7.75 -0.171875 C 7.625 -0.0546875 7.476562 0 7.3125 0 L 1.734375 0 C 1.566406 0 1.429688 -0.0546875 1.328125 -0.171875 C 1.234375 -0.285156 1.207031 -0.425781 1.25 -0.59375 L 5.375 -34.21875 C 5.40625 -34.382812 5.476562 -34.523438 5.59375 -34.640625 C 5.707031 -34.753906 5.847656 -34.8125 6.015625 -34.8125 L 12.328125 -34.8125 C 12.628906 -34.8125 12.8125 -34.644531 12.875 -34.3125 L 16.5625 -15.0625 C 16.59375 -14.96875 16.648438 -14.925781 16.734375 -14.9375 C 16.816406 -14.957031 16.859375 -15.019531 16.859375 -15.125 Z M 19.140625 -34.21875 "/></g></g></g><g fill="#0e0e0e" fill-opacity="1"><g transform="translate(199.889378, 93.748249)"><g><path d="M 10.25 0.390625 C 7.625 0.390625 5.546875 -0.34375 4.015625 -1.8125 C 2.492188 -3.289062 1.734375 -5.289062 1.734375 -7.8125 C 1.734375 -8.144531 1.769531 -8.675781 1.84375 -9.40625 L 3.828125 -25.515625 C 4.160156 -28.460938 5.3125 -30.816406 7.28125 -32.578125 C 9.257812 -34.335938 11.707031 -35.21875 14.625 -35.21875 C 17.269531 -35.21875 19.351562 -34.476562 20.875 -33 C 22.40625 -31.519531 23.171875 -29.519531 23.171875 -27 C 23.171875 -26.675781 23.140625 -26.179688 23.078125 -25.515625 L 22.984375 -24.96875 C 22.941406 -24.800781 22.863281 -24.660156 22.75 -24.546875 C 22.632812 -24.429688 22.492188 -24.375 22.328125 -24.375 L 16.65625 -24.125 C 16.289062 -24.125 16.125 -24.304688 16.15625 -24.671875 L 16.3125 -25.96875 C 16.34375 -26.09375 16.359375 -26.289062 16.359375 -26.5625 C 16.359375 -27.351562 16.132812 -27.988281 15.6875 -28.46875 C 15.238281 -28.945312 14.632812 -29.1875 13.875 -29.1875 C 13.039062 -29.1875 12.328125 -28.890625 11.734375 -28.296875 C 11.140625 -27.703125 10.773438 -26.925781 10.640625 -25.96875 L 8.546875 -8.796875 C 8.515625 -8.671875 8.5 -8.488281 8.5 -8.25 C 8.5 -7.457031 8.722656 -6.820312 9.171875 -6.34375 C 9.617188 -5.863281 10.207031 -5.625 10.9375 -5.625 C 11.800781 -5.625 12.53125 -5.910156 13.125 -6.484375 C 13.726562 -7.066406 14.09375 -7.835938 14.21875 -8.796875 L 14.375 -10.140625 C 14.40625 -10.304688 14.476562 -10.445312 14.59375 -10.5625 C 14.707031 -10.6875 14.847656 -10.75 15.015625 -10.75 L 20.640625 -10.5 C 20.804688 -10.5 20.9375 -10.4375 21.03125 -10.3125 C 21.132812 -10.195312 21.171875 -10.054688 21.140625 -9.890625 L 21.09375 -9.40625 C 20.726562 -6.414062 19.550781 -4.035156 17.5625 -2.265625 C 15.570312 -0.492188 13.132812 0.390625 10.25 0.390625 Z M 10.25 0.390625 "/></g></g></g><g fill="#0e0e0e" fill-opacity="1"><g transform="translate(222.262617, 93.748249)"><g><path d="M 14.46875 0 C 14.132812 0 13.9375 -0.164062 13.875 -0.5 L 11.84375 -14.21875 C 11.769531 -14.351562 11.6875 -14.421875 11.59375 -14.421875 L 10 -14.421875 C 9.800781 -14.421875 9.703125 -14.335938 9.703125 -14.171875 L 8.0625 -0.59375 C 8.019531 -0.425781 7.929688 -0.285156 7.796875 -0.171875 C 7.671875 -0.0546875 7.523438 0 7.359375 0 L 1.734375 0 C 1.566406 0 1.429688 -0.0546875 1.328125 -0.171875 C 1.234375 -0.285156 1.207031 -0.425781 1.25 -0.59375 L 5.375 -34.21875 C 5.40625 -34.382812 5.476562 -34.523438 5.59375 -34.640625 C 5.707031 -34.753906 5.847656 -34.8125 6.015625 -34.8125 L 15.765625 -34.8125 C 18.148438 -34.8125 20.054688 -34.023438 21.484375 -32.453125 C 22.910156 -30.878906 23.625 -28.78125 23.625 -26.15625 C 23.625 -25.363281 23.59375 -24.75 23.53125 -24.3125 C 23.289062 -22.394531 22.710938 -20.679688 21.796875 -19.171875 C 20.890625 -17.660156 19.742188 -16.492188 18.359375 -15.671875 C 18.285156 -15.628906 18.234375 -15.582031 18.203125 -15.53125 C 18.171875 -15.488281 18.171875 -15.4375 18.203125 -15.375 L 20.84375 -0.703125 L 20.84375 -0.59375 C 20.84375 -0.425781 20.78125 -0.285156 20.65625 -0.171875 C 20.539062 -0.0546875 20.398438 0 20.234375 0 Z M 11.734375 -28.796875 C 11.566406 -28.796875 11.484375 -28.710938 11.484375 -28.546875 L 10.4375 -20.046875 C 10.375 -19.878906 10.441406 -19.796875 10.640625 -19.796875 L 12.78125 -19.796875 C 13.90625 -19.796875 14.847656 -20.289062 15.609375 -21.28125 C 16.378906 -22.28125 16.765625 -23.59375 16.765625 -25.21875 C 16.765625 -26.3125 16.503906 -27.179688 15.984375 -27.828125 C 15.472656 -28.472656 14.785156 -28.796875 13.921875 -28.796875 Z M 11.734375 -28.796875 "/></g></g></g><g fill="#0e0e0e" fill-opacity="1"><g transform="translate(244.983883, 93.748249)"><g><path d="M 22.484375 -29.390625 C 22.453125 -29.222656 22.375 -29.082031 22.25 -28.96875 C 22.132812 -28.851562 21.992188 -28.796875 21.828125 -28.796875 L 11.734375 -28.796875 C 11.566406 -28.796875 11.484375 -28.710938 11.484375 -28.546875 L 10.5 -20.6875 C 10.5 -20.519531 10.5625 -20.4375 10.6875 -20.4375 L 16.515625 -20.4375 C 16.679688 -20.4375 16.8125 -20.378906 16.90625 -20.265625 C 17.007812 -20.148438 17.046875 -20.007812 17.015625 -19.84375 L 16.40625 -15.015625 C 16.375 -14.847656 16.300781 -14.707031 16.1875 -14.59375 C 16.070312 -14.476562 15.929688 -14.421875 15.765625 -14.421875 L 10 -14.421875 C 9.800781 -14.421875 9.703125 -14.335938 9.703125 -14.171875 L 8.75 -6.265625 C 8.6875 -6.097656 8.753906 -6.015625 8.953125 -6.015625 L 19 -6.015625 C 19.164062 -6.015625 19.304688 -5.957031 19.421875 -5.84375 C 19.535156 -5.726562 19.578125 -5.585938 19.546875 -5.421875 L 18.953125 -0.59375 C 18.921875 -0.425781 18.84375 -0.285156 18.71875 -0.171875 C 18.601562 -0.0546875 18.460938 0 18.296875 0 L 1.734375 0 C 1.566406 0 1.429688 -0.0546875 1.328125 -0.171875 C 1.234375 -0.285156 1.207031 -0.425781 1.25 -0.59375 L 5.375 -34.21875 C 5.40625 -34.382812 5.476562 -34.523438 5.59375 -34.640625 C 5.707031 -34.753906 5.847656 -34.8125 6.015625 -34.8125 L 22.578125 -34.8125 C 22.742188 -34.8125 22.875 -34.753906 22.96875 -34.640625 C 23.070312 -34.523438 23.109375 -34.382812 23.078125 -34.21875 Z M 12.140625 -37.890625 C 11.804688 -37.890625 11.640625 -37.992188 11.640625 -38.203125 C 11.640625 -38.328125 11.691406 -38.457031 11.796875 -38.59375 L 15.21875 -43.671875 C 15.382812 -43.929688 15.648438 -44.0625 16.015625 -44.0625 L 20.5 -44.0625 C 20.800781 -44.0625 20.953125 -43.960938 20.953125 -43.765625 C 20.953125 -43.597656 20.882812 -43.445312 20.75 -43.3125 L 16.421875 -38.25 C 16.191406 -38.007812 15.941406 -37.890625 15.671875 -37.890625 Z M 12.140625 -37.890625 "/></g></g></g><g fill="#0e0e0e" fill-opacity="1"><g transform="translate(266.114171, 93.748249)"><g><path d="M 15.3125 0 C 14.945312 0 14.765625 -0.179688 14.765625 -0.546875 L 14.578125 -5.328125 C 14.609375 -5.390625 14.585938 -5.441406 14.515625 -5.484375 C 14.453125 -5.535156 14.390625 -5.5625 14.328125 -5.5625 L 8.203125 -5.5625 C 8.003906 -5.5625 7.90625 -5.484375 7.90625 -5.328125 L 6.515625 -0.546875 C 6.410156 -0.179688 6.175781 0 5.8125 0 L 0.203125 0 C -0.191406 0 -0.328125 -0.210938 -0.203125 -0.640625 L 10.984375 -34.265625 C 11.085938 -34.628906 11.320312 -34.8125 11.6875 -34.8125 L 18.203125 -34.8125 C 18.535156 -34.8125 18.734375 -34.628906 18.796875 -34.265625 L 21.6875 -0.640625 L 21.6875 -0.5 C 21.6875 -0.164062 21.503906 0 21.140625 0 Z M 9.59375 -11.234375 C 9.53125 -11.066406 9.582031 -10.984375 9.75 -10.984375 L 14.078125 -10.984375 C 14.242188 -10.984375 14.328125 -11.066406 14.328125 -11.234375 L 13.734375 -24.8125 C 13.691406 -24.914062 13.640625 -24.96875 13.578125 -24.96875 C 13.515625 -24.96875 13.460938 -24.914062 13.421875 -24.8125 Z M 9.59375 -11.234375 "/></g></g></g><g fill="#0e0e0e" fill-opacity="1"><g transform="translate(289.382347, 93.748249)"><g><path d="M 24.171875 -34.8125 C 24.335938 -34.8125 24.46875 -34.753906 24.5625 -34.640625 C 24.664062 -34.523438 24.703125 -34.382812 24.671875 -34.21875 L 24.078125 -29.390625 C 24.035156 -29.222656 23.957031 -29.082031 23.84375 -28.96875 C 23.726562 -28.851562 23.585938 -28.796875 23.421875 -28.796875 L 17.359375 -28.796875 C 17.296875 -28.796875 17.238281 -28.769531 17.1875 -28.71875 C 17.132812 -28.664062 17.109375 -28.609375 17.109375 -28.546875 L 13.671875 -0.59375 C 13.640625 -0.425781 13.566406 -0.285156 13.453125 -0.171875 C 13.335938 -0.0546875 13.195312 0 13.03125 0 L 7.359375 0 C 7.191406 0 7.054688 -0.0546875 6.953125 -0.171875 C 6.859375 -0.285156 6.828125 -0.425781 6.859375 -0.59375 L 10.296875 -28.546875 C 10.359375 -28.710938 10.289062 -28.796875 10.09375 -28.796875 L 4.328125 -28.796875 C 3.960938 -28.796875 3.78125 -28.992188 3.78125 -29.390625 L 4.375 -34.21875 C 4.40625 -34.382812 4.476562 -34.523438 4.59375 -34.640625 C 4.71875 -34.753906 4.859375 -34.8125 5.015625 -34.8125 Z M 24.171875 -34.8125 "/></g></g></g><g fill="#0e0e0e" fill-opacity="1"><g transform="translate(311.954455, 93.748249)"><g><path d="M 1.734375 0 C 1.566406 0 1.429688 -0.0546875 1.328125 -0.171875 C 1.234375 -0.285156 1.207031 -0.425781 1.25 -0.59375 L 5.375 -34.21875 C 5.40625 -34.382812 5.476562 -34.523438 5.59375 -34.640625 C 5.707031 -34.753906 5.847656 -34.8125 6.015625 -34.8125 L 11.640625 -34.8125 C 12.003906 -34.8125 12.1875 -34.613281 12.1875 -34.21875 L 8.0625 -0.59375 C 8.019531 -0.425781 7.929688 -0.285156 7.796875 -0.171875 C 7.671875 -0.0546875 7.523438 0 7.359375 0 Z M 1.734375 0 "/></g></g></g><g fill="#0e0e0e" fill-opacity="1"><g transform="translate(323.04164, 93.748249)"><g><path d="M 10.390625 0.390625 C 7.703125 0.390625 5.585938 -0.34375 4.046875 -1.8125 C 2.503906 -3.289062 1.734375 -5.304688 1.734375 -7.859375 C 1.734375 -8.191406 1.769531 -8.722656 1.84375 -9.453125 L 3.78125 -25.359375 C 4.144531 -28.347656 5.320312 -30.738281 7.3125 -32.53125 C 9.300781 -34.320312 11.769531 -35.21875 14.71875 -35.21875 C 17.40625 -35.21875 19.523438 -34.476562 21.078125 -33 C 22.640625 -31.519531 23.421875 -29.503906 23.421875 -26.953125 C 23.421875 -26.617188 23.390625 -26.085938 23.328125 -25.359375 L 21.390625 -9.453125 C 21.023438 -6.460938 19.835938 -4.070312 17.828125 -2.28125 C 15.828125 -0.5 13.347656 0.390625 10.390625 0.390625 Z M 11.09375 -5.625 C 12.019531 -5.625 12.789062 -5.945312 13.40625 -6.59375 C 14.019531 -7.238281 14.390625 -8.09375 14.515625 -9.15625 L 16.5625 -25.65625 C 16.59375 -25.789062 16.609375 -25.992188 16.609375 -26.265625 C 16.609375 -27.160156 16.375 -27.867188 15.90625 -28.390625 C 15.445312 -28.921875 14.820312 -29.1875 14.03125 -29.1875 C 13.132812 -29.1875 12.378906 -28.863281 11.765625 -28.21875 C 11.148438 -27.570312 10.773438 -26.71875 10.640625 -25.65625 L 8.609375 -9.15625 C 8.566406 -9.019531 8.546875 -8.816406 8.546875 -8.546875 C 8.546875 -7.660156 8.78125 -6.953125 9.25 -6.421875 C 9.71875 -5.890625 10.332031 -5.625 11.09375 -5.625 Z M 11.09375 -5.625 "/></g></g></g><g fill="#0e0e0e" fill-opacity="1"><g transform="translate(345.81263, 93.748249)"><g><path d="M 19.140625 -34.21875 C 19.179688 -34.382812 19.257812 -34.523438 19.375 -34.640625 C 19.488281 -34.753906 19.628906 -34.8125 19.796875 -34.8125 L 25.421875 -34.8125 C 25.578125 -34.8125 25.707031 -34.753906 25.8125 -34.640625 C 25.914062 -34.523438 25.945312 -34.382812 25.90625 -34.21875 L 21.78125 -0.59375 C 21.75 -0.425781 21.675781 -0.285156 21.5625 -0.171875 C 21.445312 -0.0546875 21.304688 0 21.140625 0 L 14.765625 0 C 14.472656 0 14.273438 -0.164062 14.171875 -0.5 L 10.59375 -19.75 C 10.5625 -19.84375 10.503906 -19.878906 10.421875 -19.859375 C 10.335938 -19.847656 10.296875 -19.789062 10.296875 -19.6875 L 8 -0.59375 C 7.96875 -0.425781 7.882812 -0.285156 7.75 -0.171875 C 7.625 -0.0546875 7.476562 0 7.3125 0 L 1.734375 0 C 1.566406 0 1.429688 -0.0546875 1.328125 -0.171875 C 1.234375 -0.285156 1.207031 -0.425781 1.25 -0.59375 L 5.375 -34.21875 C 5.40625 -34.382812 5.476562 -34.523438 5.59375 -34.640625 C 5.707031 -34.753906 5.847656 -34.8125 6.015625 -34.8125 L 12.328125 -34.8125 C 12.628906 -34.8125 12.8125 -34.644531 12.875 -34.3125 L 16.5625 -15.0625 C 16.59375 -14.96875 16.648438 -14.925781 16.734375 -14.9375 C 16.816406 -14.957031 16.859375 -15.019531 16.859375 -15.125 Z M 19.140625 -34.21875 "/></g></g></g></svg>