<svg xmlns="http://www.w3.org/2000/svg" xmlns:xlink="http://www.w3.org/1999/xlink" width="500" zoomAndPan="magnify" viewBox="0 0 375 149.999998" height="200" preserveAspectRatio="xMidYMid meet" version="1.0"><defs><g/><clipPath id="09f5bf1551"><path d="M 0 70 L 7 70 L 7 107 L 0 107 Z M 0 70 " clip-rule="nonzero"/></clipPath><clipPath id="68754dcc96"><path d="M 0.0351562 70.835938 L 1.152344 71.65625 L 6.621094 91.136719 L 5.527344 106.339844 L 0.0351562 94.21875 Z M 0.0351562 70.835938 " clip-rule="nonzero"/></clipPath><linearGradient x1="95.924178" gradientTransform="matrix(0.13631, 0, 0, 0.1365, 0.0357987, 40.835008)" y1="259.96497" x2="-52.337011" gradientUnits="userSpaceOnUse" y2="435.760298" id="b94c82a17e"><stop stop-opacity="1" stop-color="rgb(56.498718%, 27.49939%, 72.499084%)" offset="0"/><stop stop-opacity="1" stop-color="rgb(56.498718%, 27.49939%, 72.499084%)" offset="0.125"/><stop stop-opacity="1" stop-color="rgb(56.498718%, 27.49939%, 72.499084%)" offset="0.135406"/><stop stop-opacity="1" stop-color="rgb(56.498718%, 27.49939%, 72.499084%)" offset="0.1875"/><stop stop-opacity="1" stop-color="rgb(56.498718%, 27.49939%, 72.499084%)" offset="0.21875"/><stop stop-opacity="1" stop-color="rgb(56.468201%, 27.526855%, 72.50824%)" offset="0.234375"/><stop stop-opacity="1" stop-color="rgb(56.19812%, 27.778625%, 72.589111%)" offset="0.238281"/><stop stop-opacity="1" stop-color="rgb(55.957031%, 28.00293%, 72.660828%)" offset="0.242188"/><stop stop-opacity="1" stop-color="rgb(55.715942%, 28.227234%, 72.732544%)" offset="0.246094"/><stop stop-opacity="1" stop-color="rgb(55.474854%, 28.451538%, 72.805786%)" offset="0.25"/><stop stop-opacity="1" stop-color="rgb(55.233765%, 28.675842%, 72.877502%)" offset="0.253906"/><stop stop-opacity="1" stop-color="rgb(54.992676%, 28.900146%, 72.950745%)" offset="0.257812"/><stop stop-opacity="1" stop-color="rgb(54.750061%, 29.124451%, 73.022461%)" offset="0.261719"/><stop stop-opacity="1" stop-color="rgb(54.508972%, 29.348755%, 73.094177%)" offset="0.265625"/><stop stop-opacity="1" stop-color="rgb(54.267883%, 29.573059%, 73.165894%)" offset="0.269531"/><stop stop-opacity="1" stop-color="rgb(54.026794%, 29.797363%, 73.239136%)" offset="0.273438"/><stop stop-opacity="1" stop-color="rgb(53.785706%, 30.021667%, 73.310852%)" offset="0.277344"/><stop stop-opacity="1" stop-color="rgb(53.544617%, 30.245972%, 73.382568%)" offset="0.28125"/><stop stop-opacity="1" stop-color="rgb(53.302002%, 30.470276%, 73.454285%)" offset="0.285156"/><stop stop-opacity="1" stop-color="rgb(53.060913%, 30.69458%, 73.527527%)" offset="0.289062"/><stop stop-opacity="1" stop-color="rgb(52.819824%, 30.918884%, 73.599243%)" offset="0.292969"/><stop stop-opacity="1" stop-color="rgb(52.578735%, 31.143188%, 73.672485%)" offset="0.296875"/><stop stop-opacity="1" stop-color="rgb(52.337646%, 31.367493%, 73.744202%)" offset="0.300781"/><stop stop-opacity="1" stop-color="rgb(52.096558%, 31.591797%, 73.815918%)" offset="0.304688"/><stop stop-opacity="1" stop-color="rgb(51.855469%, 31.816101%, 73.887634%)" offset="0.308594"/><stop stop-opacity="1" stop-color="rgb(51.61438%, 32.040405%, 73.960876%)" offset="0.3125"/><stop stop-opacity="1" stop-color="rgb(51.371765%, 32.264709%, 74.032593%)" offset="0.316406"/><stop stop-opacity="1" stop-color="rgb(51.130676%, 32.489014%, 74.104309%)" offset="0.320312"/><stop stop-opacity="1" stop-color="rgb(50.889587%, 32.713318%, 74.176025%)" offset="0.324219"/><stop stop-opacity="1" stop-color="rgb(50.648499%, 32.937622%, 74.249268%)" offset="0.328125"/><stop stop-opacity="1" stop-color="rgb(50.40741%, 33.161926%, 74.320984%)" offset="0.332031"/><stop stop-opacity="1" stop-color="rgb(50.166321%, 33.38623%, 74.394226%)" offset="0.335938"/><stop stop-opacity="1" stop-color="rgb(49.923706%, 33.610535%, 74.465942%)" offset="0.339844"/><stop stop-opacity="1" stop-color="rgb(49.682617%, 33.834839%, 74.537659%)" offset="0.34375"/><stop stop-opacity="1" stop-color="rgb(49.441528%, 34.059143%, 74.609375%)" offset="0.347656"/><stop stop-opacity="1" stop-color="rgb(49.200439%, 34.283447%, 74.682617%)" offset="0.351562"/><stop stop-opacity="1" stop-color="rgb(48.959351%, 34.507751%, 74.754333%)" offset="0.355469"/><stop stop-opacity="1" stop-color="rgb(48.718262%, 34.732056%, 74.82605%)" offset="0.359375"/><stop stop-opacity="1" stop-color="rgb(48.477173%, 34.95636%, 74.897766%)" offset="0.363281"/><stop stop-opacity="1" stop-color="rgb(48.236084%, 35.18219%, 74.971008%)" offset="0.367188"/><stop stop-opacity="1" stop-color="rgb(47.993469%, 35.406494%, 75.042725%)" offset="0.371094"/><stop stop-opacity="1" stop-color="rgb(47.75238%, 35.630798%, 75.115967%)" offset="0.375"/><stop stop-opacity="1" stop-color="rgb(47.511292%, 35.855103%, 75.187683%)" offset="0.378906"/><stop stop-opacity="1" stop-color="rgb(47.270203%, 36.079407%, 75.259399%)" offset="0.382813"/><stop stop-opacity="1" stop-color="rgb(47.029114%, 36.303711%, 75.331116%)" offset="0.386719"/><stop stop-opacity="1" stop-color="rgb(46.788025%, 36.528015%, 75.404358%)" offset="0.390625"/><stop stop-opacity="1" stop-color="rgb(46.54541%, 36.752319%, 75.476074%)" offset="0.394531"/><stop stop-opacity="1" stop-color="rgb(46.304321%, 36.976624%, 75.549316%)" offset="0.398438"/><stop stop-opacity="1" stop-color="rgb(46.063232%, 37.200928%, 75.621033%)" offset="0.402344"/><stop stop-opacity="1" stop-color="rgb(45.822144%, 37.425232%, 75.692749%)" offset="0.40625"/><stop stop-opacity="1" stop-color="rgb(45.581055%, 37.649536%, 75.764465%)" offset="0.410156"/><stop stop-opacity="1" stop-color="rgb(45.339966%, 37.87384%, 75.837708%)" offset="0.414063"/><stop stop-opacity="1" stop-color="rgb(45.098877%, 38.098145%, 75.909424%)" offset="0.417969"/><stop stop-opacity="1" stop-color="rgb(44.857788%, 38.322449%, 75.98114%)" offset="0.421875"/><stop stop-opacity="1" stop-color="rgb(44.615173%, 38.546753%, 76.052856%)" offset="0.425781"/><stop stop-opacity="1" stop-color="rgb(44.374084%, 38.771057%, 76.126099%)" offset="0.429688"/><stop stop-opacity="1" stop-color="rgb(44.132996%, 38.995361%, 76.197815%)" offset="0.433594"/><stop stop-opacity="1" stop-color="rgb(43.891907%, 39.219666%, 76.271057%)" offset="0.4375"/><stop stop-opacity="1" stop-color="rgb(43.650818%, 39.44397%, 76.342773%)" offset="0.441406"/><stop stop-opacity="1" stop-color="rgb(43.409729%, 39.668274%, 76.41449%)" offset="0.445313"/><stop stop-opacity="1" stop-color="rgb(43.167114%, 39.892578%, 76.486206%)" offset="0.449219"/><stop stop-opacity="1" stop-color="rgb(42.926025%, 40.116882%, 76.559448%)" offset="0.453125"/><stop stop-opacity="1" stop-color="rgb(42.684937%, 40.341187%, 76.631165%)" offset="0.457031"/><stop stop-opacity="1" stop-color="rgb(42.443848%, 40.565491%, 76.702881%)" offset="0.460938"/><stop stop-opacity="1" stop-color="rgb(42.202759%, 40.789795%, 76.774597%)" offset="0.464844"/><stop stop-opacity="1" stop-color="rgb(41.96167%, 41.014099%, 76.847839%)" offset="0.46875"/><stop stop-opacity="1" stop-color="rgb(41.720581%, 41.238403%, 76.919556%)" offset="0.472656"/><stop stop-opacity="1" stop-color="rgb(41.479492%, 41.462708%, 76.992798%)" offset="0.476563"/><stop stop-opacity="1" stop-color="rgb(41.236877%, 41.687012%, 77.064514%)" offset="0.480469"/><stop stop-opacity="1" stop-color="rgb(40.995789%, 41.911316%, 77.13623%)" offset="0.484375"/><stop stop-opacity="1" stop-color="rgb(40.7547%, 42.13562%, 77.207947%)" offset="0.488281"/><stop stop-opacity="1" stop-color="rgb(40.513611%, 42.359924%, 77.281189%)" offset="0.492188"/><stop stop-opacity="1" stop-color="rgb(40.272522%, 42.584229%, 77.352905%)" offset="0.496094"/><stop stop-opacity="1" stop-color="rgb(40.031433%, 42.808533%, 77.424622%)" offset="0.5"/><stop stop-opacity="1" stop-color="rgb(39.788818%, 43.032837%, 77.496338%)" offset="0.503906"/><stop stop-opacity="1" stop-color="rgb(39.547729%, 43.257141%, 77.56958%)" offset="0.507812"/><stop stop-opacity="1" stop-color="rgb(39.306641%, 43.481445%, 77.641296%)" offset="0.511719"/><stop stop-opacity="1" stop-color="rgb(39.065552%, 43.70575%, 77.714539%)" offset="0.515625"/><stop stop-opacity="1" stop-color="rgb(38.824463%, 43.930054%, 77.786255%)" offset="0.519531"/><stop stop-opacity="1" stop-color="rgb(38.583374%, 44.154358%, 77.857971%)" offset="0.523438"/><stop stop-opacity="1" stop-color="rgb(38.342285%, 44.378662%, 77.929688%)" offset="0.527344"/><stop stop-opacity="1" stop-color="rgb(38.101196%, 44.602966%, 78.00293%)" offset="0.53125"/><stop stop-opacity="1" stop-color="rgb(37.858582%, 44.827271%, 78.074646%)" offset="0.535156"/><stop stop-opacity="1" stop-color="rgb(37.617493%, 45.051575%, 78.146362%)" offset="0.539062"/><stop stop-opacity="1" stop-color="rgb(37.376404%, 45.275879%, 78.218079%)" offset="0.542969"/><stop stop-opacity="1" stop-color="rgb(37.135315%, 45.500183%, 78.291321%)" offset="0.546875"/><stop stop-opacity="1" stop-color="rgb(36.894226%, 45.724487%, 78.363037%)" offset="0.550781"/><stop stop-opacity="1" stop-color="rgb(36.653137%, 45.948792%, 78.436279%)" offset="0.554688"/><stop stop-opacity="1" stop-color="rgb(36.410522%, 46.173096%, 78.507996%)" offset="0.558594"/><stop stop-opacity="1" stop-color="rgb(36.169434%, 46.3974%, 78.579712%)" offset="0.5625"/><stop stop-opacity="1" stop-color="rgb(35.928345%, 46.621704%, 78.651428%)" offset="0.566406"/><stop stop-opacity="1" stop-color="rgb(35.687256%, 46.846008%, 78.72467%)" offset="0.570312"/><stop stop-opacity="1" stop-color="rgb(35.446167%, 47.070312%, 78.796387%)" offset="0.574219"/><stop stop-opacity="1" stop-color="rgb(35.205078%, 47.294617%, 78.868103%)" offset="0.578125"/><stop stop-opacity="1" stop-color="rgb(34.963989%, 47.518921%, 78.939819%)" offset="0.582031"/><stop stop-opacity="1" stop-color="rgb(34.7229%, 47.743225%, 79.013062%)" offset="0.585938"/><stop stop-opacity="1" stop-color="rgb(34.480286%, 47.967529%, 79.084778%)" offset="0.589844"/><stop stop-opacity="1" stop-color="rgb(34.239197%, 48.191833%, 79.15802%)" offset="0.59375"/><stop stop-opacity="1" stop-color="rgb(33.998108%, 48.416138%, 79.229736%)" offset="0.597656"/><stop stop-opacity="1" stop-color="rgb(33.757019%, 48.640442%, 79.301453%)" offset="0.601562"/><stop stop-opacity="1" stop-color="rgb(33.51593%, 48.864746%, 79.373169%)" offset="0.605469"/><stop stop-opacity="1" stop-color="rgb(33.274841%, 49.08905%, 79.446411%)" offset="0.609375"/><stop stop-opacity="1" stop-color="rgb(33.032227%, 49.313354%, 79.518127%)" offset="0.613281"/><stop stop-opacity="1" stop-color="rgb(32.791138%, 49.537659%, 79.59137%)" offset="0.617188"/><stop stop-opacity="1" stop-color="rgb(32.550049%, 49.761963%, 79.663086%)" offset="0.621094"/><stop stop-opacity="1" stop-color="rgb(32.30896%, 49.986267%, 79.734802%)" offset="0.625"/><stop stop-opacity="1" stop-color="rgb(32.067871%, 50.210571%, 79.806519%)" offset="0.628906"/><stop stop-opacity="1" stop-color="rgb(31.826782%, 50.434875%, 79.879761%)" offset="0.632812"/><stop stop-opacity="1" stop-color="rgb(31.585693%, 50.65918%, 79.951477%)" offset="0.636719"/><stop stop-opacity="1" stop-color="rgb(31.344604%, 50.883484%, 80.023193%)" offset="0.640625"/><stop stop-opacity="1" stop-color="rgb(31.10199%, 51.107788%, 80.09491%)" offset="0.644531"/><stop stop-opacity="1" stop-color="rgb(30.860901%, 51.332092%, 80.168152%)" offset="0.648438"/><stop stop-opacity="1" stop-color="rgb(30.619812%, 51.556396%, 80.239868%)" offset="0.652344"/><stop stop-opacity="1" stop-color="rgb(30.378723%, 51.780701%, 80.31311%)" offset="0.65625"/><stop stop-opacity="1" stop-color="rgb(30.137634%, 52.005005%, 80.384827%)" offset="0.660156"/><stop stop-opacity="1" stop-color="rgb(29.896545%, 52.230835%, 80.456543%)" offset="0.664062"/><stop stop-opacity="1" stop-color="rgb(29.653931%, 52.455139%, 80.528259%)" offset="0.667969"/><stop stop-opacity="1" stop-color="rgb(29.412842%, 52.679443%, 80.601501%)" offset="0.671875"/><stop stop-opacity="1" stop-color="rgb(29.171753%, 52.903748%, 80.673218%)" offset="0.675781"/><stop stop-opacity="1" stop-color="rgb(28.930664%, 53.128052%, 80.744934%)" offset="0.679688"/><stop stop-opacity="1" stop-color="rgb(28.689575%, 53.352356%, 80.81665%)" offset="0.683594"/><stop stop-opacity="1" stop-color="rgb(28.448486%, 53.57666%, 80.889893%)" offset="0.6875"/><stop stop-opacity="1" stop-color="rgb(28.207397%, 53.800964%, 80.961609%)" offset="0.691406"/><stop stop-opacity="1" stop-color="rgb(27.966309%, 54.025269%, 81.034851%)" offset="0.695312"/><stop stop-opacity="1" stop-color="rgb(27.723694%, 54.249573%, 81.106567%)" offset="0.699219"/><stop stop-opacity="1" stop-color="rgb(27.482605%, 54.473877%, 81.178284%)" offset="0.703125"/><stop stop-opacity="1" stop-color="rgb(27.241516%, 54.698181%, 81.25%)" offset="0.707031"/><stop stop-opacity="1" stop-color="rgb(27.000427%, 54.922485%, 81.323242%)" offset="0.710938"/><stop stop-opacity="1" stop-color="rgb(26.759338%, 55.14679%, 81.394958%)" offset="0.714844"/><stop stop-opacity="1" stop-color="rgb(26.51825%, 55.371094%, 81.466675%)" offset="0.71875"/><stop stop-opacity="1" stop-color="rgb(26.275635%, 55.595398%, 81.538391%)" offset="0.722656"/><stop stop-opacity="1" stop-color="rgb(26.034546%, 55.819702%, 81.611633%)" offset="0.726563"/><stop stop-opacity="1" stop-color="rgb(25.793457%, 56.044006%, 81.68335%)" offset="0.730469"/><stop stop-opacity="1" stop-color="rgb(25.552368%, 56.268311%, 81.756592%)" offset="0.734375"/><stop stop-opacity="1" stop-color="rgb(25.311279%, 56.492615%, 81.828308%)" offset="0.738281"/><stop stop-opacity="1" stop-color="rgb(25.07019%, 56.716919%, 81.900024%)" offset="0.742188"/><stop stop-opacity="1" stop-color="rgb(24.827576%, 56.941223%, 81.971741%)" offset="0.746094"/><stop stop-opacity="1" stop-color="rgb(24.586487%, 57.165527%, 82.044983%)" offset="0.75"/><stop stop-opacity="1" stop-color="rgb(24.345398%, 57.389832%, 82.116699%)" offset="0.753906"/><stop stop-opacity="1" stop-color="rgb(24.104309%, 57.614136%, 82.188416%)" offset="0.757812"/><stop stop-opacity="1" stop-color="rgb(23.86322%, 57.83844%, 82.260132%)" offset="0.761719"/><stop stop-opacity="1" stop-color="rgb(23.622131%, 58.062744%, 82.333374%)" offset="0.765625"/><stop stop-opacity="1" stop-color="rgb(23.381042%, 58.287048%, 82.40509%)" offset="0.769531"/><stop stop-opacity="1" stop-color="rgb(23.139954%, 58.511353%, 82.478333%)" offset="0.773437"/><stop stop-opacity="1" stop-color="rgb(22.897339%, 58.735657%, 82.550049%)" offset="0.777344"/><stop stop-opacity="1" stop-color="rgb(22.65625%, 58.959961%, 82.621765%)" offset="0.78125"/><stop stop-opacity="1" stop-color="rgb(22.528076%, 59.078979%, 82.659912%)" offset="0.8125"/><stop stop-opacity="1" stop-color="rgb(22.399902%, 59.199524%, 82.699585%)" offset="0.864594"/><stop stop-opacity="1" stop-color="rgb(22.399902%, 59.199524%, 82.699585%)" offset="0.875"/><stop stop-opacity="1" stop-color="rgb(22.399902%, 59.199524%, 82.699585%)" offset="1"/></linearGradient><clipPath id="a46df6dd20"><path d="M 26 63 L 43.5 63 L 43.5 109.085938 L 26 109.085938 Z M 26 63 " clip-rule="nonzero"/></clipPath><clipPath id="1af22ffaed"><path d="M 29.4375 109.085938 L 26.890625 86.113281 L 41.1875 63.140625 L 43.464844 63.140625 L 43.464844 100.839844 Z M 29.4375 109.085938 " clip-rule="nonzero"/></clipPath><linearGradient x1="335.176178" gradientTransform="matrix(0.13631, 0, 0, 0.1365, 0.0357987, 40.835008)" y1="169.334651" x2="214.541689" gradientUnits="userSpaceOnUse" y2="506.280298" id="074bc6574b"><stop stop-opacity="1" stop-color="rgb(86.698914%, 14.099121%, 54.899597%)" offset="0"/><stop stop-opacity="1" stop-color="rgb(86.698914%, 14.099121%, 54.899597%)" offset="0.0625"/><stop stop-opacity="1" stop-color="rgb(86.581421%, 14.151001%, 54.968262%)" offset="0.0703125"/><stop stop-opacity="1" stop-color="rgb(86.323547%, 14.265442%, 55.117798%)" offset="0.078125"/><stop stop-opacity="1" stop-color="rgb(86.04126%, 14.390564%, 55.281067%)" offset="0.0859375"/><stop stop-opacity="1" stop-color="rgb(85.760498%, 14.515686%, 55.445862%)" offset="0.09375"/><stop stop-opacity="1" stop-color="rgb(85.479736%, 14.639282%, 55.609131%)" offset="0.101563"/><stop stop-opacity="1" stop-color="rgb(85.198975%, 14.764404%, 55.7724%)" offset="0.109375"/><stop stop-opacity="1" stop-color="rgb(84.918213%, 14.889526%, 55.937195%)" offset="0.114527"/><stop stop-opacity="1" stop-color="rgb(84.777832%, 14.952087%, 56.019592%)" offset="0.117188"/><stop stop-opacity="1" stop-color="rgb(84.637451%, 15.014648%, 56.100464%)" offset="0.125"/><stop stop-opacity="1" stop-color="rgb(84.356689%, 15.138245%, 56.263733%)" offset="0.132812"/><stop stop-opacity="1" stop-color="rgb(84.074402%, 15.263367%, 56.428528%)" offset="0.140625"/><stop stop-opacity="1" stop-color="rgb(83.79364%, 15.388489%, 56.591797%)" offset="0.148438"/><stop stop-opacity="1" stop-color="rgb(83.512878%, 15.512085%, 56.755066%)" offset="0.15625"/><stop stop-opacity="1" stop-color="rgb(83.232117%, 15.637207%, 56.919861%)" offset="0.164063"/><stop stop-opacity="1" stop-color="rgb(82.951355%, 15.762329%, 57.08313%)" offset="0.171875"/><stop stop-opacity="1" stop-color="rgb(82.670593%, 15.885925%, 57.246399%)" offset="0.179688"/><stop stop-opacity="1" stop-color="rgb(82.389832%, 16.011047%, 57.409668%)" offset="0.1875"/><stop stop-opacity="1" stop-color="rgb(82.10907%, 16.136169%, 57.574463%)" offset="0.195312"/><stop stop-opacity="1" stop-color="rgb(81.826782%, 16.261292%, 57.737732%)" offset="0.203125"/><stop stop-opacity="1" stop-color="rgb(81.546021%, 16.384888%, 57.901001%)" offset="0.210938"/><stop stop-opacity="1" stop-color="rgb(81.265259%, 16.51001%, 58.065796%)" offset="0.21875"/><stop stop-opacity="1" stop-color="rgb(80.984497%, 16.635132%, 58.229065%)" offset="0.226563"/><stop stop-opacity="1" stop-color="rgb(80.703735%, 16.758728%, 58.392334%)" offset="0.234375"/><stop stop-opacity="1" stop-color="rgb(80.422974%, 16.88385%, 58.557129%)" offset="0.242188"/><stop stop-opacity="1" stop-color="rgb(80.142212%, 17.008972%, 58.720398%)" offset="0.25"/><stop stop-opacity="1" stop-color="rgb(79.859924%, 17.132568%, 58.883667%)" offset="0.257813"/><stop stop-opacity="1" stop-color="rgb(79.579163%, 17.25769%, 59.048462%)" offset="0.265625"/><stop stop-opacity="1" stop-color="rgb(79.298401%, 17.382812%, 59.211731%)" offset="0.273438"/><stop stop-opacity="1" stop-color="rgb(79.017639%, 17.507935%, 59.375%)" offset="0.28125"/><stop stop-opacity="1" stop-color="rgb(78.736877%, 17.631531%, 59.539795%)" offset="0.289063"/><stop stop-opacity="1" stop-color="rgb(78.456116%, 17.756653%, 59.703064%)" offset="0.296875"/><stop stop-opacity="1" stop-color="rgb(78.175354%, 17.881775%, 59.866333%)" offset="0.304688"/><stop stop-opacity="1" stop-color="rgb(77.894592%, 18.005371%, 60.029602%)" offset="0.3125"/><stop stop-opacity="1" stop-color="rgb(77.612305%, 18.130493%, 60.194397%)" offset="0.320313"/><stop stop-opacity="1" stop-color="rgb(77.331543%, 18.255615%, 60.357666%)" offset="0.328125"/><stop stop-opacity="1" stop-color="rgb(77.050781%, 18.380737%, 60.520935%)" offset="0.335938"/><stop stop-opacity="1" stop-color="rgb(76.77002%, 18.504333%, 60.68573%)" offset="0.34375"/><stop stop-opacity="1" stop-color="rgb(76.489258%, 18.629456%, 60.848999%)" offset="0.351563"/><stop stop-opacity="1" stop-color="rgb(76.208496%, 18.754578%, 61.012268%)" offset="0.359375"/><stop stop-opacity="1" stop-color="rgb(75.927734%, 18.878174%, 61.177063%)" offset="0.367188"/><stop stop-opacity="1" stop-color="rgb(75.645447%, 19.003296%, 61.340332%)" offset="0.375"/><stop stop-opacity="1" stop-color="rgb(75.364685%, 19.128418%, 61.503601%)" offset="0.382812"/><stop stop-opacity="1" stop-color="rgb(75.083923%, 19.252014%, 61.668396%)" offset="0.390625"/><stop stop-opacity="1" stop-color="rgb(74.803162%, 19.377136%, 61.831665%)" offset="0.398438"/><stop stop-opacity="1" stop-color="rgb(74.5224%, 19.502258%, 61.994934%)" offset="0.40625"/><stop stop-opacity="1" stop-color="rgb(74.241638%, 19.62738%, 62.158203%)" offset="0.414063"/><stop stop-opacity="1" stop-color="rgb(73.960876%, 19.750977%, 62.322998%)" offset="0.421875"/><stop stop-opacity="1" stop-color="rgb(73.680115%, 19.876099%, 62.486267%)" offset="0.429688"/><stop stop-opacity="1" stop-color="rgb(73.397827%, 20.001221%, 62.649536%)" offset="0.4375"/><stop stop-opacity="1" stop-color="rgb(73.117065%, 20.124817%, 62.814331%)" offset="0.445313"/><stop stop-opacity="1" stop-color="rgb(72.836304%, 20.249939%, 62.9776%)" offset="0.453125"/><stop stop-opacity="1" stop-color="rgb(72.555542%, 20.375061%, 63.140869%)" offset="0.460938"/><stop stop-opacity="1" stop-color="rgb(72.27478%, 20.498657%, 63.305664%)" offset="0.46875"/><stop stop-opacity="1" stop-color="rgb(71.994019%, 20.623779%, 63.468933%)" offset="0.476563"/><stop stop-opacity="1" stop-color="rgb(71.713257%, 20.748901%, 63.632202%)" offset="0.484375"/><stop stop-opacity="1" stop-color="rgb(71.430969%, 20.874023%, 63.796997%)" offset="0.492188"/><stop stop-opacity="1" stop-color="rgb(71.150208%, 20.99762%, 63.960266%)" offset="0.5"/><stop stop-opacity="1" stop-color="rgb(70.869446%, 21.122742%, 64.123535%)" offset="0.507812"/><stop stop-opacity="1" stop-color="rgb(70.588684%, 21.247864%, 64.286804%)" offset="0.515625"/><stop stop-opacity="1" stop-color="rgb(70.307922%, 21.37146%, 64.451599%)" offset="0.523438"/><stop stop-opacity="1" stop-color="rgb(70.027161%, 21.496582%, 64.614868%)" offset="0.53125"/><stop stop-opacity="1" stop-color="rgb(69.746399%, 21.621704%, 64.778137%)" offset="0.539062"/><stop stop-opacity="1" stop-color="rgb(69.464111%, 21.7453%, 64.942932%)" offset="0.546875"/><stop stop-opacity="1" stop-color="rgb(69.18335%, 21.870422%, 65.106201%)" offset="0.554688"/><stop stop-opacity="1" stop-color="rgb(68.902588%, 21.995544%, 65.26947%)" offset="0.5625"/><stop stop-opacity="1" stop-color="rgb(68.621826%, 22.120667%, 65.434265%)" offset="0.570312"/><stop stop-opacity="1" stop-color="rgb(68.341064%, 22.244263%, 65.597534%)" offset="0.578125"/><stop stop-opacity="1" stop-color="rgb(68.060303%, 22.369385%, 65.760803%)" offset="0.585938"/><stop stop-opacity="1" stop-color="rgb(67.779541%, 22.494507%, 65.925598%)" offset="0.59375"/><stop stop-opacity="1" stop-color="rgb(67.498779%, 22.618103%, 66.088867%)" offset="0.601563"/><stop stop-opacity="1" stop-color="rgb(67.216492%, 22.743225%, 66.252136%)" offset="0.609375"/><stop stop-opacity="1" stop-color="rgb(66.93573%, 22.868347%, 66.416931%)" offset="0.617188"/><stop stop-opacity="1" stop-color="rgb(66.654968%, 22.991943%, 66.5802%)" offset="0.625"/><stop stop-opacity="1" stop-color="rgb(66.374207%, 23.117065%, 66.743469%)" offset="0.632813"/><stop stop-opacity="1" stop-color="rgb(66.093445%, 23.242188%, 66.906738%)" offset="0.640625"/><stop stop-opacity="1" stop-color="rgb(65.812683%, 23.36731%, 67.071533%)" offset="0.648438"/><stop stop-opacity="1" stop-color="rgb(65.531921%, 23.490906%, 67.234802%)" offset="0.65625"/><stop stop-opacity="1" stop-color="rgb(65.249634%, 23.616028%, 67.398071%)" offset="0.664063"/><stop stop-opacity="1" stop-color="rgb(64.968872%, 23.74115%, 67.562866%)" offset="0.671875"/><stop stop-opacity="1" stop-color="rgb(64.68811%, 23.864746%, 67.726135%)" offset="0.679688"/><stop stop-opacity="1" stop-color="rgb(64.407349%, 23.989868%, 67.889404%)" offset="0.6875"/><stop stop-opacity="1" stop-color="rgb(64.126587%, 24.11499%, 68.054199%)" offset="0.695313"/><stop stop-opacity="1" stop-color="rgb(63.845825%, 24.240112%, 68.217468%)" offset="0.703125"/><stop stop-opacity="1" stop-color="rgb(63.565063%, 24.363708%, 68.380737%)" offset="0.710938"/><stop stop-opacity="1" stop-color="rgb(63.284302%, 24.488831%, 68.545532%)" offset="0.71875"/><stop stop-opacity="1" stop-color="rgb(63.002014%, 24.613953%, 68.708801%)" offset="0.726563"/><stop stop-opacity="1" stop-color="rgb(62.721252%, 24.737549%, 68.87207%)" offset="0.734375"/><stop stop-opacity="1" stop-color="rgb(62.440491%, 24.862671%, 69.035339%)" offset="0.742188"/><stop stop-opacity="1" stop-color="rgb(62.159729%, 24.987793%, 69.200134%)" offset="0.75"/><stop stop-opacity="1" stop-color="rgb(61.878967%, 25.111389%, 69.363403%)" offset="0.757813"/><stop stop-opacity="1" stop-color="rgb(61.598206%, 25.236511%, 69.526672%)" offset="0.765625"/><stop stop-opacity="1" stop-color="rgb(61.317444%, 25.361633%, 69.691467%)" offset="0.773438"/><stop stop-opacity="1" stop-color="rgb(61.035156%, 25.486755%, 69.854736%)" offset="0.78125"/><stop stop-opacity="1" stop-color="rgb(60.754395%, 25.610352%, 70.018005%)" offset="0.789063"/><stop stop-opacity="1" stop-color="rgb(60.473633%, 25.735474%, 70.1828%)" offset="0.796875"/><stop stop-opacity="1" stop-color="rgb(60.192871%, 25.860596%, 70.346069%)" offset="0.804688"/><stop stop-opacity="1" stop-color="rgb(59.912109%, 25.984192%, 70.509338%)" offset="0.8125"/><stop stop-opacity="1" stop-color="rgb(59.631348%, 26.109314%, 70.674133%)" offset="0.820313"/><stop stop-opacity="1" stop-color="rgb(59.350586%, 26.234436%, 70.837402%)" offset="0.828125"/><stop stop-opacity="1" stop-color="rgb(59.069824%, 26.358032%, 71.000671%)" offset="0.835938"/><stop stop-opacity="1" stop-color="rgb(58.787537%, 26.483154%, 71.165466%)" offset="0.84375"/><stop stop-opacity="1" stop-color="rgb(58.506775%, 26.608276%, 71.328735%)" offset="0.851563"/><stop stop-opacity="1" stop-color="rgb(58.226013%, 26.733398%, 71.492004%)" offset="0.859375"/><stop stop-opacity="1" stop-color="rgb(57.945251%, 26.856995%, 71.655273%)" offset="0.867188"/><stop stop-opacity="1" stop-color="rgb(57.66449%, 26.982117%, 71.820068%)" offset="0.875"/><stop stop-opacity="1" stop-color="rgb(57.383728%, 27.107239%, 71.983337%)" offset="0.882812"/><stop stop-opacity="1" stop-color="rgb(57.102966%, 27.230835%, 72.146606%)" offset="0.885473"/><stop stop-opacity="1" stop-color="rgb(56.962585%, 27.293396%, 72.229004%)" offset="0.890625"/><stop stop-opacity="1" stop-color="rgb(56.820679%, 27.355957%, 72.311401%)" offset="0.898437"/><stop stop-opacity="1" stop-color="rgb(56.588745%, 27.458191%, 72.445679%)" offset="0.90625"/><stop stop-opacity="1" stop-color="rgb(56.498718%, 27.49939%, 72.499084%)" offset="0.9375"/><stop stop-opacity="1" stop-color="rgb(56.498718%, 27.49939%, 72.499084%)" offset="1"/></linearGradient><clipPath id="b15413b7ec"><path d="M 5 86 L 30 86 L 30 109.085938 L 5 109.085938 Z M 5 86 " clip-rule="nonzero"/></clipPath><clipPath id="5ab3a25869"><path d="M 5.257812 90.78125 L 29.4375 86.097656 L 29.4375 109.085938 L 5.527344 106.328125 Z M 5.257812 90.78125 " clip-rule="nonzero"/></clipPath><linearGradient x1="203.982636" gradientTransform="matrix(0.13631, 0, 0, 0.1365, 0.0357987, 40.835008)" y1="323.370972" x2="66.184398" gradientUnits="userSpaceOnUse" y2="519.582967" id="134792197f"><stop stop-opacity="1" stop-color="rgb(86.698914%, 14.099121%, 54.899597%)" offset="0"/><stop stop-opacity="1" stop-color="rgb(86.698914%, 14.099121%, 54.899597%)" offset="0.0625"/><stop stop-opacity="1" stop-color="rgb(86.643982%, 14.123535%, 54.931641%)" offset="0.0703125"/><stop stop-opacity="1" stop-color="rgb(86.444092%, 14.212036%, 55.047607%)" offset="0.078125"/><stop stop-opacity="1" stop-color="rgb(86.152649%, 14.341736%, 55.21698%)" offset="0.0859375"/><stop stop-opacity="1" stop-color="rgb(85.861206%, 14.46991%, 55.386353%)" offset="0.09375"/><stop stop-opacity="1" stop-color="rgb(85.569763%, 14.599609%, 55.555725%)" offset="0.101562"/><stop stop-opacity="1" stop-color="rgb(85.279846%, 14.729309%, 55.726624%)" offset="0.109375"/><stop stop-opacity="1" stop-color="rgb(84.988403%, 14.857483%, 55.895996%)" offset="0.117188"/><stop stop-opacity="1" stop-color="rgb(84.69696%, 14.987183%, 56.065369%)" offset="0.125"/><stop stop-opacity="1" stop-color="rgb(84.405518%, 15.115356%, 56.234741%)" offset="0.132813"/><stop stop-opacity="1" stop-color="rgb(84.114075%, 15.245056%, 56.404114%)" offset="0.140625"/><stop stop-opacity="1" stop-color="rgb(83.824158%, 15.374756%, 56.573486%)" offset="0.148438"/><stop stop-opacity="1" stop-color="rgb(83.532715%, 15.50293%, 56.744385%)" offset="0.15625"/><stop stop-opacity="1" stop-color="rgb(83.241272%, 15.632629%, 56.913757%)" offset="0.164062"/><stop stop-opacity="1" stop-color="rgb(82.949829%, 15.762329%, 57.08313%)" offset="0.171875"/><stop stop-opacity="1" stop-color="rgb(82.659912%, 15.890503%, 57.252502%)" offset="0.179688"/><stop stop-opacity="1" stop-color="rgb(82.368469%, 16.020203%, 57.421875%)" offset="0.1875"/><stop stop-opacity="1" stop-color="rgb(82.077026%, 16.149902%, 57.591248%)" offset="0.195312"/><stop stop-opacity="1" stop-color="rgb(81.785583%, 16.278076%, 57.762146%)" offset="0.203125"/><stop stop-opacity="1" stop-color="rgb(81.494141%, 16.407776%, 57.931519%)" offset="0.210938"/><stop stop-opacity="1" stop-color="rgb(81.204224%, 16.537476%, 58.100891%)" offset="0.21875"/><stop stop-opacity="1" stop-color="rgb(80.912781%, 16.665649%, 58.270264%)" offset="0.226563"/><stop stop-opacity="1" stop-color="rgb(80.621338%, 16.795349%, 58.439636%)" offset="0.234375"/><stop stop-opacity="1" stop-color="rgb(80.329895%, 16.925049%, 58.610535%)" offset="0.242188"/><stop stop-opacity="1" stop-color="rgb(80.039978%, 17.053223%, 58.779907%)" offset="0.25"/><stop stop-opacity="1" stop-color="rgb(79.748535%, 17.182922%, 58.94928%)" offset="0.257812"/><stop stop-opacity="1" stop-color="rgb(79.457092%, 17.311096%, 59.118652%)" offset="0.265625"/><stop stop-opacity="1" stop-color="rgb(79.165649%, 17.440796%, 59.288025%)" offset="0.273438"/><stop stop-opacity="1" stop-color="rgb(78.875732%, 17.570496%, 59.457397%)" offset="0.28125"/><stop stop-opacity="1" stop-color="rgb(78.58429%, 17.698669%, 59.628296%)" offset="0.289062"/><stop stop-opacity="1" stop-color="rgb(78.292847%, 17.828369%, 59.797668%)" offset="0.296875"/><stop stop-opacity="1" stop-color="rgb(78.001404%, 17.958069%, 59.967041%)" offset="0.304688"/><stop stop-opacity="1" stop-color="rgb(77.709961%, 18.086243%, 60.136414%)" offset="0.3125"/><stop stop-opacity="1" stop-color="rgb(77.420044%, 18.215942%, 60.305786%)" offset="0.320312"/><stop stop-opacity="1" stop-color="rgb(77.128601%, 18.345642%, 60.476685%)" offset="0.328125"/><stop stop-opacity="1" stop-color="rgb(76.837158%, 18.473816%, 60.646057%)" offset="0.335937"/><stop stop-opacity="1" stop-color="rgb(76.545715%, 18.603516%, 60.81543%)" offset="0.34375"/><stop stop-opacity="1" stop-color="rgb(76.255798%, 18.733215%, 60.984802%)" offset="0.351563"/><stop stop-opacity="1" stop-color="rgb(75.964355%, 18.861389%, 61.154175%)" offset="0.359375"/><stop stop-opacity="1" stop-color="rgb(75.672913%, 18.991089%, 61.323547%)" offset="0.367188"/><stop stop-opacity="1" stop-color="rgb(75.38147%, 19.120789%, 61.494446%)" offset="0.375"/><stop stop-opacity="1" stop-color="rgb(75.090027%, 19.248962%, 61.663818%)" offset="0.382812"/><stop stop-opacity="1" stop-color="rgb(74.80011%, 19.378662%, 61.833191%)" offset="0.390625"/><stop stop-opacity="1" stop-color="rgb(74.508667%, 19.508362%, 62.002563%)" offset="0.398438"/><stop stop-opacity="1" stop-color="rgb(74.217224%, 19.636536%, 62.171936%)" offset="0.40625"/><stop stop-opacity="1" stop-color="rgb(73.925781%, 19.766235%, 62.342834%)" offset="0.414062"/><stop stop-opacity="1" stop-color="rgb(73.635864%, 19.894409%, 62.512207%)" offset="0.421875"/><stop stop-opacity="1" stop-color="rgb(73.344421%, 20.024109%, 62.68158%)" offset="0.42523"/><stop stop-opacity="1" stop-color="rgb(73.199463%, 20.089722%, 62.767029%)" offset="0.429688"/><stop stop-opacity="1" stop-color="rgb(73.052979%, 20.153809%, 62.850952%)" offset="0.4375"/><stop stop-opacity="1" stop-color="rgb(72.761536%, 20.281982%, 63.020325%)" offset="0.445313"/><stop stop-opacity="1" stop-color="rgb(72.470093%, 20.411682%, 63.189697%)" offset="0.453125"/><stop stop-opacity="1" stop-color="rgb(72.180176%, 20.541382%, 63.360596%)" offset="0.460938"/><stop stop-opacity="1" stop-color="rgb(71.888733%, 20.669556%, 63.529968%)" offset="0.46875"/><stop stop-opacity="1" stop-color="rgb(71.59729%, 20.799255%, 63.699341%)" offset="0.476562"/><stop stop-opacity="1" stop-color="rgb(71.305847%, 20.928955%, 63.868713%)" offset="0.484375"/><stop stop-opacity="1" stop-color="rgb(71.01593%, 21.057129%, 64.038086%)" offset="0.492188"/><stop stop-opacity="1" stop-color="rgb(70.724487%, 21.186829%, 64.207458%)" offset="0.5"/><stop stop-opacity="1" stop-color="rgb(70.433044%, 21.316528%, 64.378357%)" offset="0.507812"/><stop stop-opacity="1" stop-color="rgb(70.141602%, 21.444702%, 64.547729%)" offset="0.515625"/><stop stop-opacity="1" stop-color="rgb(69.851685%, 21.574402%, 64.717102%)" offset="0.523438"/><stop stop-opacity="1" stop-color="rgb(69.560242%, 21.704102%, 64.886475%)" offset="0.53125"/><stop stop-opacity="1" stop-color="rgb(69.268799%, 21.832275%, 65.055847%)" offset="0.539062"/><stop stop-opacity="1" stop-color="rgb(68.977356%, 21.961975%, 65.226746%)" offset="0.546875"/><stop stop-opacity="1" stop-color="rgb(68.685913%, 22.090149%, 65.396118%)" offset="0.554688"/><stop stop-opacity="1" stop-color="rgb(68.395996%, 22.219849%, 65.565491%)" offset="0.5625"/><stop stop-opacity="1" stop-color="rgb(68.104553%, 22.349548%, 65.734863%)" offset="0.570312"/><stop stop-opacity="1" stop-color="rgb(67.81311%, 22.477722%, 65.904236%)" offset="0.57477"/><stop stop-opacity="1" stop-color="rgb(67.668152%, 22.543335%, 65.989685%)" offset="0.578125"/><stop stop-opacity="1" stop-color="rgb(67.521667%, 22.607422%, 66.073608%)" offset="0.585938"/><stop stop-opacity="1" stop-color="rgb(67.23175%, 22.737122%, 66.244507%)" offset="0.59375"/><stop stop-opacity="1" stop-color="rgb(66.940308%, 22.865295%, 66.413879%)" offset="0.601562"/><stop stop-opacity="1" stop-color="rgb(66.648865%, 22.994995%, 66.583252%)" offset="0.609375"/><stop stop-opacity="1" stop-color="rgb(66.357422%, 23.124695%, 66.752625%)" offset="0.617188"/><stop stop-opacity="1" stop-color="rgb(66.065979%, 23.252869%, 66.921997%)" offset="0.625"/><stop stop-opacity="1" stop-color="rgb(65.776062%, 23.382568%, 67.092896%)" offset="0.632812"/><stop stop-opacity="1" stop-color="rgb(65.484619%, 23.512268%, 67.262268%)" offset="0.640625"/><stop stop-opacity="1" stop-color="rgb(65.193176%, 23.640442%, 67.431641%)" offset="0.648438"/><stop stop-opacity="1" stop-color="rgb(64.901733%, 23.770142%, 67.601013%)" offset="0.65625"/><stop stop-opacity="1" stop-color="rgb(64.611816%, 23.899841%, 67.770386%)" offset="0.664062"/><stop stop-opacity="1" stop-color="rgb(64.320374%, 24.028015%, 67.939758%)" offset="0.671875"/><stop stop-opacity="1" stop-color="rgb(64.028931%, 24.157715%, 68.110657%)" offset="0.679688"/><stop stop-opacity="1" stop-color="rgb(63.737488%, 24.285889%, 68.280029%)" offset="0.6875"/><stop stop-opacity="1" stop-color="rgb(63.447571%, 24.415588%, 68.449402%)" offset="0.695312"/><stop stop-opacity="1" stop-color="rgb(63.156128%, 24.545288%, 68.618774%)" offset="0.703125"/><stop stop-opacity="1" stop-color="rgb(62.864685%, 24.673462%, 68.788147%)" offset="0.710938"/><stop stop-opacity="1" stop-color="rgb(62.573242%, 24.803162%, 68.95752%)" offset="0.71875"/><stop stop-opacity="1" stop-color="rgb(62.281799%, 24.932861%, 69.128418%)" offset="0.726563"/><stop stop-opacity="1" stop-color="rgb(61.991882%, 25.061035%, 69.297791%)" offset="0.734375"/><stop stop-opacity="1" stop-color="rgb(61.700439%, 25.190735%, 69.467163%)" offset="0.742188"/><stop stop-opacity="1" stop-color="rgb(61.408997%, 25.320435%, 69.636536%)" offset="0.75"/><stop stop-opacity="1" stop-color="rgb(61.117554%, 25.448608%, 69.805908%)" offset="0.757812"/><stop stop-opacity="1" stop-color="rgb(60.827637%, 25.578308%, 69.976807%)" offset="0.765625"/><stop stop-opacity="1" stop-color="rgb(60.536194%, 25.708008%, 70.146179%)" offset="0.773438"/><stop stop-opacity="1" stop-color="rgb(60.244751%, 25.836182%, 70.315552%)" offset="0.78125"/><stop stop-opacity="1" stop-color="rgb(59.953308%, 25.965881%, 70.484924%)" offset="0.789062"/><stop stop-opacity="1" stop-color="rgb(59.661865%, 26.095581%, 70.654297%)" offset="0.796875"/><stop stop-opacity="1" stop-color="rgb(59.371948%, 26.223755%, 70.823669%)" offset="0.804688"/><stop stop-opacity="1" stop-color="rgb(59.080505%, 26.353455%, 70.994568%)" offset="0.8125"/><stop stop-opacity="1" stop-color="rgb(58.789062%, 26.481628%, 71.16394%)" offset="0.820312"/><stop stop-opacity="1" stop-color="rgb(58.49762%, 26.611328%, 71.333313%)" offset="0.828125"/><stop stop-opacity="1" stop-color="rgb(58.207703%, 26.741028%, 71.502686%)" offset="0.835938"/><stop stop-opacity="1" stop-color="rgb(57.91626%, 26.869202%, 71.672058%)" offset="0.84375"/><stop stop-opacity="1" stop-color="rgb(57.624817%, 26.998901%, 71.842957%)" offset="0.851562"/><stop stop-opacity="1" stop-color="rgb(57.333374%, 27.128601%, 72.012329%)" offset="0.859375"/><stop stop-opacity="1" stop-color="rgb(57.041931%, 27.256775%, 72.181702%)" offset="0.867188"/><stop stop-opacity="1" stop-color="rgb(56.752014%, 27.386475%, 72.351074%)" offset="0.875"/><stop stop-opacity="1" stop-color="rgb(56.552124%, 27.474976%, 72.467041%)" offset="1"/></linearGradient><clipPath id="4b0042cdd8"><path d="M 0 40.835938 L 43.5 40.835938 L 43.5 92 L 0 92 Z M 0 40.835938 " clip-rule="nonzero"/></clipPath><clipPath id="5a0f079d08"><path d="M 14.605469 45.515625 L 38.789062 40.835938 L 43.464844 63.125 L 29.4375 87.613281 L 5.257812 91.75 L 0.0351562 70.835938 Z M 14.605469 45.515625 " clip-rule="nonzero"/></clipPath><linearGradient x1="202.899298" gradientTransform="matrix(0.13631, 0, 0, 0.1365, 0.0357987, 40.835008)" y1="-23.475497" x2="117.613195" gradientUnits="userSpaceOnUse" y2="396.863505" id="ddda075e04"><stop stop-opacity="1" stop-color="rgb(99.198914%, 51.399231%, 25.898743%)" offset="0"/><stop stop-opacity="1" stop-color="rgb(99.198914%, 51.399231%, 25.898743%)" offset="0.015625"/><stop stop-opacity="1" stop-color="rgb(99.160767%, 51.216125%, 25.950623%)" offset="0.0234375"/><stop stop-opacity="1" stop-color="rgb(99.082947%, 50.842285%, 26.055908%)" offset="0.03125"/><stop stop-opacity="1" stop-color="rgb(99.003601%, 50.462341%, 26.16272%)" offset="0.0390625"/><stop stop-opacity="1" stop-color="rgb(98.924255%, 50.082397%, 26.268005%)" offset="0.046875"/><stop stop-opacity="1" stop-color="rgb(98.84491%, 49.700928%, 26.374817%)" offset="0.0546875"/><stop stop-opacity="1" stop-color="rgb(98.764038%, 49.320984%, 26.481628%)" offset="0.0625"/><stop stop-opacity="1" stop-color="rgb(98.684692%, 48.94104%, 26.58844%)" offset="0.0703125"/><stop stop-opacity="1" stop-color="rgb(98.605347%, 48.561096%, 26.695251%)" offset="0.078125"/><stop stop-opacity="1" stop-color="rgb(98.526001%, 48.181152%, 26.802063%)" offset="0.0859375"/><stop stop-opacity="1" stop-color="rgb(98.446655%, 47.799683%, 26.908875%)" offset="0.09375"/><stop stop-opacity="1" stop-color="rgb(98.36731%, 47.419739%, 27.015686%)" offset="0.101562"/><stop stop-opacity="1" stop-color="rgb(98.287964%, 47.039795%, 27.122498%)" offset="0.109375"/><stop stop-opacity="1" stop-color="rgb(98.207092%, 46.659851%, 27.229309%)" offset="0.117188"/><stop stop-opacity="1" stop-color="rgb(98.127747%, 46.279907%, 27.336121%)" offset="0.125"/><stop stop-opacity="1" stop-color="rgb(98.048401%, 45.898438%, 27.442932%)" offset="0.132812"/><stop stop-opacity="1" stop-color="rgb(97.969055%, 45.518494%, 27.549744%)" offset="0.140625"/><stop stop-opacity="1" stop-color="rgb(97.889709%, 45.13855%, 27.656555%)" offset="0.147708"/><stop stop-opacity="1" stop-color="rgb(97.850037%, 44.949341%, 27.709961%)" offset="0.148438"/><stop stop-opacity="1" stop-color="rgb(97.810364%, 44.758606%, 27.761841%)" offset="0.15625"/><stop stop-opacity="1" stop-color="rgb(97.731018%, 44.378662%, 27.868652%)" offset="0.164063"/><stop stop-opacity="1" stop-color="rgb(97.651672%, 43.997192%, 27.975464%)" offset="0.171875"/><stop stop-opacity="1" stop-color="rgb(97.570801%, 43.617249%, 28.082275%)" offset="0.179688"/><stop stop-opacity="1" stop-color="rgb(97.491455%, 43.237305%, 28.189087%)" offset="0.1875"/><stop stop-opacity="1" stop-color="rgb(97.412109%, 42.857361%, 28.295898%)" offset="0.195312"/><stop stop-opacity="1" stop-color="rgb(97.332764%, 42.477417%, 28.40271%)" offset="0.203125"/><stop stop-opacity="1" stop-color="rgb(97.253418%, 42.095947%, 28.509521%)" offset="0.210938"/><stop stop-opacity="1" stop-color="rgb(97.174072%, 41.716003%, 28.616333%)" offset="0.21875"/><stop stop-opacity="1" stop-color="rgb(97.094727%, 41.33606%, 28.723145%)" offset="0.226562"/><stop stop-opacity="1" stop-color="rgb(97.015381%, 40.956116%, 28.829956%)" offset="0.234375"/><stop stop-opacity="1" stop-color="rgb(96.934509%, 40.576172%, 28.936768%)" offset="0.242188"/><stop stop-opacity="1" stop-color="rgb(96.855164%, 40.194702%, 29.043579%)" offset="0.25"/><stop stop-opacity="1" stop-color="rgb(96.775818%, 39.814758%, 29.150391%)" offset="0.257812"/><stop stop-opacity="1" stop-color="rgb(96.696472%, 39.434814%, 29.255676%)" offset="0.265625"/><stop stop-opacity="1" stop-color="rgb(96.617126%, 39.054871%, 29.362488%)" offset="0.273438"/><stop stop-opacity="1" stop-color="rgb(96.537781%, 38.674927%, 29.469299%)" offset="0.28125"/><stop stop-opacity="1" stop-color="rgb(96.458435%, 38.293457%, 29.576111%)" offset="0.289062"/><stop stop-opacity="1" stop-color="rgb(96.379089%, 37.913513%, 29.682922%)" offset="0.296875"/><stop stop-opacity="1" stop-color="rgb(96.298218%, 37.533569%, 29.789734%)" offset="0.304688"/><stop stop-opacity="1" stop-color="rgb(96.218872%, 37.153625%, 29.896545%)" offset="0.3125"/><stop stop-opacity="1" stop-color="rgb(96.139526%, 36.773682%, 30.003357%)" offset="0.320312"/><stop stop-opacity="1" stop-color="rgb(96.060181%, 36.392212%, 30.110168%)" offset="0.328125"/><stop stop-opacity="1" stop-color="rgb(95.980835%, 36.012268%, 30.21698%)" offset="0.335938"/><stop stop-opacity="1" stop-color="rgb(95.901489%, 35.632324%, 30.323792%)" offset="0.34375"/><stop stop-opacity="1" stop-color="rgb(95.822144%, 35.25238%, 30.430603%)" offset="0.351562"/><stop stop-opacity="1" stop-color="rgb(95.741272%, 34.872437%, 30.537415%)" offset="0.359375"/><stop stop-opacity="1" stop-color="rgb(95.661926%, 34.490967%, 30.644226%)" offset="0.367188"/><stop stop-opacity="1" stop-color="rgb(95.582581%, 34.111023%, 30.749512%)" offset="0.375"/><stop stop-opacity="1" stop-color="rgb(95.503235%, 33.731079%, 30.856323%)" offset="0.382813"/><stop stop-opacity="1" stop-color="rgb(95.423889%, 33.351135%, 30.963135%)" offset="0.390625"/><stop stop-opacity="1" stop-color="rgb(95.344543%, 32.971191%, 31.069946%)" offset="0.398438"/><stop stop-opacity="1" stop-color="rgb(95.265198%, 32.589722%, 31.176758%)" offset="0.40625"/><stop stop-opacity="1" stop-color="rgb(95.185852%, 32.209778%, 31.283569%)" offset="0.414063"/><stop stop-opacity="1" stop-color="rgb(95.10498%, 31.829834%, 31.390381%)" offset="0.421875"/><stop stop-opacity="1" stop-color="rgb(95.025635%, 31.44989%, 31.497192%)" offset="0.429688"/><stop stop-opacity="1" stop-color="rgb(94.946289%, 31.069946%, 31.604004%)" offset="0.4375"/><stop stop-opacity="1" stop-color="rgb(94.866943%, 30.688477%, 31.710815%)" offset="0.445313"/><stop stop-opacity="1" stop-color="rgb(94.787598%, 30.308533%, 31.817627%)" offset="0.453125"/><stop stop-opacity="1" stop-color="rgb(94.708252%, 29.928589%, 31.924438%)" offset="0.460938"/><stop stop-opacity="1" stop-color="rgb(94.628906%, 29.548645%, 32.03125%)" offset="0.46875"/><stop stop-opacity="1" stop-color="rgb(94.549561%, 29.168701%, 32.138062%)" offset="0.476563"/><stop stop-opacity="1" stop-color="rgb(94.468689%, 28.787231%, 32.243347%)" offset="0.484375"/><stop stop-opacity="1" stop-color="rgb(94.389343%, 28.407288%, 32.350159%)" offset="0.492188"/><stop stop-opacity="1" stop-color="rgb(94.309998%, 28.027344%, 32.45697%)" offset="0.5"/><stop stop-opacity="1" stop-color="rgb(94.230652%, 27.6474%, 32.563782%)" offset="0.507813"/><stop stop-opacity="1" stop-color="rgb(94.151306%, 27.267456%, 32.670593%)" offset="0.515625"/><stop stop-opacity="1" stop-color="rgb(94.07196%, 26.885986%, 32.777405%)" offset="0.523438"/><stop stop-opacity="1" stop-color="rgb(93.992615%, 26.506042%, 32.884216%)" offset="0.53125"/><stop stop-opacity="1" stop-color="rgb(93.913269%, 26.126099%, 32.991028%)" offset="0.539063"/><stop stop-opacity="1" stop-color="rgb(93.832397%, 25.746155%, 33.097839%)" offset="0.546875"/><stop stop-opacity="1" stop-color="rgb(93.753052%, 25.366211%, 33.204651%)" offset="0.554688"/><stop stop-opacity="1" stop-color="rgb(93.673706%, 24.984741%, 33.311462%)" offset="0.5625"/><stop stop-opacity="1" stop-color="rgb(93.59436%, 24.604797%, 33.418274%)" offset="0.570313"/><stop stop-opacity="1" stop-color="rgb(93.515015%, 24.224854%, 33.525085%)" offset="0.578125"/><stop stop-opacity="1" stop-color="rgb(93.435669%, 23.84491%, 33.631897%)" offset="0.585938"/><stop stop-opacity="1" stop-color="rgb(93.356323%, 23.464966%, 33.737183%)" offset="0.59375"/><stop stop-opacity="1" stop-color="rgb(93.276978%, 23.083496%, 33.843994%)" offset="0.601563"/><stop stop-opacity="1" stop-color="rgb(93.196106%, 22.703552%, 33.950806%)" offset="0.609375"/><stop stop-opacity="1" stop-color="rgb(93.11676%, 22.323608%, 34.057617%)" offset="0.617188"/><stop stop-opacity="1" stop-color="rgb(93.037415%, 21.943665%, 34.164429%)" offset="0.625"/><stop stop-opacity="1" stop-color="rgb(92.958069%, 21.563721%, 34.27124%)" offset="0.632813"/><stop stop-opacity="1" stop-color="rgb(92.878723%, 21.182251%, 34.378052%)" offset="0.640625"/><stop stop-opacity="1" stop-color="rgb(92.799377%, 20.802307%, 34.484863%)" offset="0.648438"/><stop stop-opacity="1" stop-color="rgb(92.720032%, 20.422363%, 34.591675%)" offset="0.65625"/><stop stop-opacity="1" stop-color="rgb(92.63916%, 20.042419%, 34.698486%)" offset="0.664063"/><stop stop-opacity="1" stop-color="rgb(92.559814%, 19.662476%, 34.805298%)" offset="0.671875"/><stop stop-opacity="1" stop-color="rgb(92.480469%, 19.281006%, 34.912109%)" offset="0.679688"/><stop stop-opacity="1" stop-color="rgb(92.401123%, 18.901062%, 35.018921%)" offset="0.6875"/><stop stop-opacity="1" stop-color="rgb(92.321777%, 18.521118%, 35.125732%)" offset="0.695313"/><stop stop-opacity="1" stop-color="rgb(92.242432%, 18.141174%, 35.231018%)" offset="0.703125"/><stop stop-opacity="1" stop-color="rgb(92.163086%, 17.76123%, 35.33783%)" offset="0.710938"/><stop stop-opacity="1" stop-color="rgb(92.08374%, 17.379761%, 35.444641%)" offset="0.71875"/><stop stop-opacity="1" stop-color="rgb(92.002869%, 16.999817%, 35.551453%)" offset="0.726563"/><stop stop-opacity="1" stop-color="rgb(91.923523%, 16.619873%, 35.658264%)" offset="0.734375"/><stop stop-opacity="1" stop-color="rgb(91.844177%, 16.239929%, 35.765076%)" offset="0.742188"/><stop stop-opacity="1" stop-color="rgb(91.764832%, 15.859985%, 35.871887%)" offset="0.75"/><stop stop-opacity="1" stop-color="rgb(91.685486%, 15.478516%, 35.978699%)" offset="0.757813"/><stop stop-opacity="1" stop-color="rgb(91.60614%, 15.098572%, 36.08551%)" offset="0.765625"/><stop stop-opacity="1" stop-color="rgb(91.526794%, 14.718628%, 36.192322%)" offset="0.773438"/><stop stop-opacity="1" stop-color="rgb(91.447449%, 14.338684%, 36.299133%)" offset="0.78125"/><stop stop-opacity="1" stop-color="rgb(91.366577%, 13.95874%, 36.405945%)" offset="0.789063"/><stop stop-opacity="1" stop-color="rgb(91.287231%, 13.577271%, 36.512756%)" offset="0.796875"/><stop stop-opacity="1" stop-color="rgb(91.207886%, 13.197327%, 36.619568%)" offset="0.804688"/><stop stop-opacity="1" stop-color="rgb(91.12854%, 12.817383%, 36.724854%)" offset="0.8125"/><stop stop-opacity="1" stop-color="rgb(91.049194%, 12.437439%, 36.831665%)" offset="0.820313"/><stop stop-opacity="1" stop-color="rgb(91.003418%, 12.223816%, 36.891174%)" offset="0.828125"/><stop stop-opacity="1" stop-color="rgb(90.99884%, 12.199402%, 36.898804%)" offset="0.84375"/><stop stop-opacity="1" stop-color="rgb(90.99884%, 12.199402%, 36.898804%)" offset="0.852292"/><stop stop-opacity="1" stop-color="rgb(90.99884%, 12.199402%, 36.898804%)" offset="0.875"/><stop stop-opacity="1" stop-color="rgb(90.99884%, 12.199402%, 36.898804%)" offset="1"/></linearGradient></defs><g clip-path="url(#09f5bf1551)"><g clip-path="url(#68754dcc96)"><path fill="url(#b94c82a17e)" d="M 0.0351562 70.835938 L 0.0351562 106.339844 L 6.621094 106.339844 L 6.621094 70.835938 Z M 0.0351562 70.835938 " fill-rule="nonzero"/></g></g><g clip-path="url(#a46df6dd20)"><g clip-path="url(#1af22ffaed)"><path fill="url(#074bc6574b)" d="M 26.890625 63.140625 L 26.890625 109.085938 L 43.464844 109.085938 L 43.464844 63.140625 Z M 26.890625 63.140625 " fill-rule="nonzero"/></g></g><g clip-path="url(#b15413b7ec)"><g clip-path="url(#5ab3a25869)"><path fill="url(#134792197f)" d="M 5.257812 86.097656 L 5.257812 109.085938 L 29.4375 109.085938 L 29.4375 86.097656 Z M 5.257812 86.097656 " fill-rule="nonzero"/></g></g><g clip-path="url(#4b0042cdd8)"><g clip-path="url(#5a0f079d08)"><path fill="url(#ddda075e04)" d="M 0.0351562 40.835938 L 0.0351562 91.75 L 43.464844 91.75 L 43.464844 40.835938 Z M 0.0351562 40.835938 " fill-rule="nonzero"/></g></g><g fill="#929292" fill-opacity="0.4"><g transform="translate(60.776928, 95.658493)"><g><path d="M 12.4375 -33.9375 C 14.21875 -33.9375 15.800781 -33.5 17.1875 -32.625 C 18.570312 -31.75 19.644531 -30.53125 20.40625 -28.96875 C 21.164062 -27.40625 21.546875 -25.625 21.546875 -23.625 C 21.546875 -20.625 20.738281 -18.21875 19.125 -16.40625 C 17.507812 -14.601562 15.394531 -13.703125 12.78125 -13.703125 L 9.15625 -13.703125 C 8.988281 -13.703125 8.90625 -13.617188 8.90625 -13.453125 L 8.90625 -0.578125 C 8.90625 -0.421875 8.847656 -0.285156 8.734375 -0.171875 C 8.617188 -0.0546875 8.484375 0 8.328125 0 L 2.65625 0 C 2.5 0 2.363281 -0.0546875 2.25 -0.171875 C 2.132812 -0.285156 2.078125 -0.421875 2.078125 -0.578125 L 2.078125 -33.359375 C 2.078125 -33.515625 2.132812 -33.648438 2.25 -33.765625 C 2.363281 -33.878906 2.5 -33.9375 2.65625 -33.9375 Z M 11.28125 -19.03125 C 12.3125 -19.03125 13.140625 -19.421875 13.765625 -20.203125 C 14.398438 -20.992188 14.71875 -22.085938 14.71875 -23.484375 C 14.71875 -24.898438 14.398438 -26.007812 13.765625 -26.8125 C 13.140625 -27.625 12.3125 -28.03125 11.28125 -28.03125 L 9.15625 -28.03125 C 8.988281 -28.03125 8.90625 -27.945312 8.90625 -27.78125 L 8.90625 -19.265625 C 8.90625 -19.109375 8.988281 -19.03125 9.15625 -19.03125 Z M 11.28125 -19.03125 "/></g></g></g><g fill="#929292" fill-opacity="0.4"><g transform="translate(83.286532, 95.658493)"><g><path d="M 15.484375 0 C 15.128906 0 14.90625 -0.160156 14.8125 -0.484375 L 11.078125 -13.84375 C 11.015625 -13.96875 10.9375 -14.03125 10.84375 -14.03125 L 9.203125 -14.03125 C 9.035156 -14.03125 8.953125 -13.953125 8.953125 -13.796875 L 8.953125 -0.578125 C 8.953125 -0.421875 8.894531 -0.285156 8.78125 -0.171875 C 8.664062 -0.0546875 8.53125 0 8.375 0 L 2.703125 0 C 2.546875 0 2.410156 -0.0546875 2.296875 -0.171875 C 2.179688 -0.285156 2.125 -0.421875 2.125 -0.578125 L 2.125 -33.296875 C 2.125 -33.460938 2.179688 -33.601562 2.296875 -33.71875 C 2.410156 -33.832031 2.546875 -33.890625 2.703125 -33.890625 L 12.484375 -33.890625 C 14.265625 -33.890625 15.847656 -33.457031 17.234375 -32.59375 C 18.617188 -31.738281 19.691406 -30.535156 20.453125 -28.984375 C 21.210938 -27.441406 21.59375 -25.671875 21.59375 -23.671875 C 21.59375 -21.765625 21.226562 -20.082031 20.5 -18.625 C 19.769531 -17.175781 18.757812 -16.050781 17.46875 -15.25 C 17.40625 -15.21875 17.359375 -15.175781 17.328125 -15.125 C 17.296875 -15.070312 17.296875 -15.015625 17.328125 -14.953125 L 21.78125 -0.671875 L 21.828125 -0.484375 C 21.828125 -0.160156 21.648438 0 21.296875 0 Z M 9.203125 -28.03125 C 9.035156 -28.03125 8.953125 -27.945312 8.953125 -27.78125 L 8.953125 -19.5 C 8.953125 -19.34375 9.035156 -19.265625 9.203125 -19.265625 L 11.375 -19.265625 C 12.375 -19.265625 13.1875 -19.660156 13.8125 -20.453125 C 14.445312 -21.242188 14.765625 -22.300781 14.765625 -23.625 C 14.765625 -24.976562 14.445312 -26.050781 13.8125 -26.84375 C 13.1875 -27.632812 12.375 -28.03125 11.375 -28.03125 Z M 9.203125 -28.03125 "/></g></g></g><g fill="#929292" fill-opacity="0.4"><g transform="translate(106.086579, 95.658493)"><g><path d="M 2.703125 0 C 2.546875 0 2.410156 -0.0546875 2.296875 -0.171875 C 2.179688 -0.285156 2.125 -0.421875 2.125 -0.578125 L 2.125 -33.296875 C 2.125 -33.460938 2.179688 -33.601562 2.296875 -33.71875 C 2.410156 -33.832031 2.546875 -33.890625 2.703125 -33.890625 L 8.375 -33.890625 C 8.53125 -33.890625 8.664062 -33.832031 8.78125 -33.71875 C 8.894531 -33.601562 8.953125 -33.460938 8.953125 -33.296875 L 8.953125 -0.578125 C 8.953125 -0.421875 8.894531 -0.285156 8.78125 -0.171875 C 8.664062 -0.0546875 8.53125 0 8.375 0 Z M 2.703125 0 "/></g></g></g><g fill="#929292" fill-opacity="0.4"><g transform="translate(117.220362, 95.658493)"><g><path d="M 10.84375 0.390625 C 8.96875 0.390625 7.320312 0.0195312 5.90625 -0.71875 C 4.488281 -1.46875 3.390625 -2.507812 2.609375 -3.84375 C 1.835938 -5.1875 1.453125 -6.726562 1.453125 -8.46875 L 1.453125 -9.875 C 1.453125 -10.03125 1.507812 -10.164062 1.625 -10.28125 C 1.738281 -10.394531 1.875 -10.453125 2.03125 -10.453125 L 7.59375 -10.453125 C 7.757812 -10.453125 7.898438 -10.394531 8.015625 -10.28125 C 8.128906 -10.164062 8.1875 -10.03125 8.1875 -9.875 L 8.1875 -8.8125 C 8.1875 -7.8125 8.441406 -7.003906 8.953125 -6.390625 C 9.472656 -5.773438 10.117188 -5.46875 10.890625 -5.46875 C 11.660156 -5.46875 12.304688 -5.757812 12.828125 -6.34375 C 13.347656 -6.925781 13.609375 -7.679688 13.609375 -8.609375 C 13.609375 -9.578125 13.285156 -10.410156 12.640625 -11.109375 C 11.992188 -11.804688 10.734375 -12.832031 8.859375 -14.1875 C 7.242188 -15.34375 5.9375 -16.375 4.9375 -17.28125 C 3.9375 -18.1875 3.082031 -19.300781 2.375 -20.625 C 1.664062 -21.945312 1.3125 -23.476562 1.3125 -25.21875 C 1.3125 -27.957031 2.164062 -30.148438 3.875 -31.796875 C 5.582031 -33.441406 7.84375 -34.265625 10.65625 -34.265625 C 13.488281 -34.265625 15.769531 -33.410156 17.5 -31.703125 C 19.226562 -29.992188 20.09375 -27.753906 20.09375 -24.984375 L 20.09375 -23.8125 C 20.09375 -23.65625 20.035156 -23.519531 19.921875 -23.40625 C 19.804688 -23.289062 19.664062 -23.234375 19.5 -23.234375 L 13.9375 -23.234375 C 13.78125 -23.234375 13.644531 -23.289062 13.53125 -23.40625 C 13.414062 -23.519531 13.359375 -23.65625 13.359375 -23.8125 L 13.359375 -25.125 C 13.359375 -26.125 13.109375 -26.921875 12.609375 -27.515625 C 12.109375 -28.117188 11.457031 -28.421875 10.65625 -28.421875 C 9.875 -28.421875 9.238281 -28.132812 8.75 -27.5625 C 8.269531 -27 8.03125 -26.21875 8.03125 -25.21875 C 8.03125 -24.25 8.335938 -23.394531 8.953125 -22.65625 C 9.566406 -21.914062 10.773438 -20.882812 12.578125 -19.5625 C 14.585938 -18.070312 16.097656 -16.867188 17.109375 -15.953125 C 18.128906 -15.035156 18.921875 -14.019531 19.484375 -12.90625 C 20.046875 -11.789062 20.328125 -10.457031 20.328125 -8.90625 C 20.328125 -6.0625 19.457031 -3.800781 17.71875 -2.125 C 15.976562 -0.445312 13.6875 0.390625 10.84375 0.390625 Z M 10.84375 0.390625 "/></g></g></g><g fill="#929292" fill-opacity="0.4"><g transform="translate(138.713394, 95.658493)"><g><path d="M 17.625 -33.5 C 17.75 -33.757812 17.988281 -33.890625 18.34375 -33.890625 L 23.96875 -33.890625 C 24.125 -33.890625 24.257812 -33.832031 24.375 -33.71875 C 24.488281 -33.601562 24.546875 -33.460938 24.546875 -33.296875 L 24.546875 -0.578125 C 24.546875 -0.421875 24.488281 -0.285156 24.375 -0.171875 C 24.257812 -0.0546875 24.125 0 23.96875 0 L 18.296875 0 C 18.140625 0 18.003906 -0.0546875 17.890625 -0.171875 C 17.773438 -0.285156 17.71875 -0.421875 17.71875 -0.578125 L 17.71875 -22.3125 C 17.71875 -22.445312 17.679688 -22.515625 17.609375 -22.515625 C 17.546875 -22.515625 17.484375 -22.460938 17.421875 -22.359375 L 13.65625 -15.6875 C 13.488281 -15.425781 13.359375 -15.296875 13.265625 -15.296875 C 13.171875 -15.296875 13.039062 -15.425781 12.875 -15.6875 L 9.09375 -22.359375 C 9.03125 -22.460938 8.96875 -22.515625 8.90625 -22.515625 C 8.84375 -22.515625 8.8125 -22.445312 8.8125 -22.3125 L 8.8125 -0.578125 C 8.8125 -0.421875 8.753906 -0.285156 8.640625 -0.171875 C 8.523438 -0.0546875 8.390625 0 8.234375 0 L 2.5625 0 C 2.40625 0 2.269531 -0.0546875 2.15625 -0.171875 C 2.039062 -0.285156 1.984375 -0.421875 1.984375 -0.578125 L 1.984375 -33.296875 C 1.984375 -33.460938 2.039062 -33.601562 2.15625 -33.71875 C 2.269531 -33.832031 2.40625 -33.890625 2.5625 -33.890625 L 8.125 -33.890625 C 8.445312 -33.890625 8.691406 -33.757812 8.859375 -33.5 L 13.171875 -25.796875 C 13.265625 -25.671875 13.359375 -25.671875 13.453125 -25.796875 Z M 17.625 -33.5 "/></g></g></g><g fill="#929292" fill-opacity="0.4"><g transform="translate(165.240836, 95.658493)"><g><path d="M 16.359375 0 C 15.972656 0 15.765625 -0.175781 15.734375 -0.53125 L 14.953125 -5.171875 C 14.953125 -5.335938 14.859375 -5.421875 14.671875 -5.421875 L 8.515625 -5.421875 C 8.328125 -5.421875 8.234375 -5.335938 8.234375 -5.171875 L 7.453125 -0.53125 C 7.421875 -0.175781 7.210938 0 6.828125 0 L 1.15625 0 C 0.738281 0 0.578125 -0.207031 0.671875 -0.625 L 7.796875 -33.359375 C 7.859375 -33.710938 8.066406 -33.890625 8.421875 -33.890625 L 14.953125 -33.890625 C 15.304688 -33.890625 15.519531 -33.710938 15.59375 -33.359375 L 22.65625 -0.625 L 22.703125 -0.4375 C 22.703125 -0.144531 22.523438 0 22.171875 0 Z M 9.203125 -10.9375 C 9.203125 -10.78125 9.265625 -10.703125 9.390625 -10.703125 L 13.75 -10.703125 C 13.90625 -10.703125 13.96875 -10.78125 13.9375 -10.9375 L 11.671875 -24.15625 C 11.640625 -24.25 11.585938 -24.296875 11.515625 -24.296875 C 11.453125 -24.296875 11.40625 -24.25 11.375 -24.15625 Z M 9.203125 -10.9375 "/></g></g></g><g fill="#929292" fill-opacity="0.4"><g transform="translate(188.573365, 95.658493)"><g/></g></g><g fill="#929292" fill-opacity="0.4"><g transform="translate(198.254912, 95.658493)"><g><path d="M 11.28125 0.390625 C 8.375 0.390625 6.039062 -0.472656 4.28125 -2.203125 C 2.519531 -3.929688 1.640625 -6.25 1.640625 -9.15625 L 1.640625 -24.828125 C 1.640625 -27.703125 2.519531 -29.992188 4.28125 -31.703125 C 6.039062 -33.410156 8.375 -34.265625 11.28125 -34.265625 C 14.21875 -34.265625 16.5625 -33.410156 18.3125 -31.703125 C 20.070312 -29.992188 20.953125 -27.703125 20.953125 -24.828125 L 20.953125 -24.296875 C 20.953125 -24.140625 20.894531 -24.003906 20.78125 -23.890625 C 20.675781 -23.773438 20.539062 -23.71875 20.375 -23.71875 L 14.71875 -23.484375 C 14.332031 -23.484375 14.140625 -23.660156 14.140625 -24.015625 L 14.140625 -25.265625 C 14.140625 -26.203125 13.878906 -26.960938 13.359375 -27.546875 C 12.835938 -28.128906 12.144531 -28.421875 11.28125 -28.421875 C 10.4375 -28.421875 9.753906 -28.128906 9.234375 -27.546875 C 8.722656 -26.960938 8.46875 -26.203125 8.46875 -25.265625 L 8.46875 -8.5625 C 8.46875 -7.632812 8.722656 -6.882812 9.234375 -6.3125 C 9.753906 -5.75 10.4375 -5.46875 11.28125 -5.46875 C 12.144531 -5.46875 12.835938 -5.75 13.359375 -6.3125 C 13.878906 -6.882812 14.140625 -7.632812 14.140625 -8.5625 L 14.140625 -9.875 C 14.140625 -10.03125 14.191406 -10.164062 14.296875 -10.28125 C 14.410156 -10.394531 14.550781 -10.453125 14.71875 -10.453125 L 20.375 -10.21875 C 20.539062 -10.21875 20.675781 -10.160156 20.78125 -10.046875 C 20.894531 -9.929688 20.953125 -9.796875 20.953125 -9.640625 L 20.953125 -9.15625 C 20.953125 -6.25 20.066406 -3.929688 18.296875 -2.203125 C 16.523438 -0.472656 14.1875 0.390625 11.28125 0.390625 Z M 11.28125 0.390625 "/></g></g></g><g fill="#929292" fill-opacity="0.4"><g transform="translate(220.716102, 95.658493)"><g><path d="M 15.484375 0 C 15.128906 0 14.90625 -0.160156 14.8125 -0.484375 L 11.078125 -13.84375 C 11.015625 -13.96875 10.9375 -14.03125 10.84375 -14.03125 L 9.203125 -14.03125 C 9.035156 -14.03125 8.953125 -13.953125 8.953125 -13.796875 L 8.953125 -0.578125 C 8.953125 -0.421875 8.894531 -0.285156 8.78125 -0.171875 C 8.664062 -0.0546875 8.53125 0 8.375 0 L 2.703125 0 C 2.546875 0 2.410156 -0.0546875 2.296875 -0.171875 C 2.179688 -0.285156 2.125 -0.421875 2.125 -0.578125 L 2.125 -33.296875 C 2.125 -33.460938 2.179688 -33.601562 2.296875 -33.71875 C 2.410156 -33.832031 2.546875 -33.890625 2.703125 -33.890625 L 12.484375 -33.890625 C 14.265625 -33.890625 15.847656 -33.457031 17.234375 -32.59375 C 18.617188 -31.738281 19.691406 -30.535156 20.453125 -28.984375 C 21.210938 -27.441406 21.59375 -25.671875 21.59375 -23.671875 C 21.59375 -21.765625 21.226562 -20.082031 20.5 -18.625 C 19.769531 -17.175781 18.757812 -16.050781 17.46875 -15.25 C 17.40625 -15.21875 17.359375 -15.175781 17.328125 -15.125 C 17.296875 -15.070312 17.296875 -15.015625 17.328125 -14.953125 L 21.78125 -0.671875 L 21.828125 -0.484375 C 21.828125 -0.160156 21.648438 0 21.296875 0 Z M 9.203125 -28.03125 C 9.035156 -28.03125 8.953125 -27.945312 8.953125 -27.78125 L 8.953125 -19.5 C 8.953125 -19.34375 9.035156 -19.265625 9.203125 -19.265625 L 11.375 -19.265625 C 12.375 -19.265625 13.1875 -19.660156 13.8125 -20.453125 C 14.445312 -21.242188 14.765625 -22.300781 14.765625 -23.625 C 14.765625 -24.976562 14.445312 -26.050781 13.8125 -26.84375 C 13.1875 -27.632812 12.375 -28.03125 11.375 -28.03125 Z M 9.203125 -28.03125 "/></g></g></g><g fill="#929292" fill-opacity="0.4"><g transform="translate(243.516149, 95.658493)"><g><path d="M 19.890625 -28.609375 C 19.890625 -28.441406 19.832031 -28.300781 19.71875 -28.1875 C 19.613281 -28.082031 19.476562 -28.03125 19.3125 -28.03125 L 9.203125 -28.03125 C 9.035156 -28.03125 8.953125 -27.945312 8.953125 -27.78125 L 8.953125 -20.140625 C 8.953125 -19.972656 9.035156 -19.890625 9.203125 -19.890625 L 15 -19.890625 C 15.164062 -19.890625 15.304688 -19.832031 15.421875 -19.71875 C 15.535156 -19.613281 15.59375 -19.476562 15.59375 -19.3125 L 15.59375 -14.625 C 15.59375 -14.457031 15.535156 -14.316406 15.421875 -14.203125 C 15.304688 -14.085938 15.164062 -14.03125 15 -14.03125 L 9.203125 -14.03125 C 9.035156 -14.03125 8.953125 -13.953125 8.953125 -13.796875 L 8.953125 -6.09375 C 8.953125 -5.9375 9.035156 -5.859375 9.203125 -5.859375 L 19.3125 -5.859375 C 19.476562 -5.859375 19.613281 -5.800781 19.71875 -5.6875 C 19.832031 -5.570312 19.890625 -5.4375 19.890625 -5.28125 L 19.890625 -0.578125 C 19.890625 -0.421875 19.832031 -0.285156 19.71875 -0.171875 C 19.613281 -0.0546875 19.476562 0 19.3125 0 L 2.703125 0 C 2.546875 0 2.410156 -0.0546875 2.296875 -0.171875 C 2.179688 -0.285156 2.125 -0.421875 2.125 -0.578125 L 2.125 -33.296875 C 2.125 -33.460938 2.179688 -33.601562 2.296875 -33.71875 C 2.410156 -33.832031 2.546875 -33.890625 2.703125 -33.890625 L 19.3125 -33.890625 C 19.476562 -33.890625 19.613281 -33.832031 19.71875 -33.71875 C 19.832031 -33.601562 19.890625 -33.460938 19.890625 -33.296875 Z M 8.421875 -36.875 C 8.191406 -36.875 8.03125 -36.9375 7.9375 -37.0625 C 7.84375 -37.195312 7.859375 -37.363281 7.984375 -37.5625 L 10.84375 -42.5 C 10.96875 -42.757812 11.207031 -42.890625 11.5625 -42.890625 L 16.078125 -42.890625 C 16.398438 -42.890625 16.5625 -42.773438 16.5625 -42.546875 C 16.5625 -42.453125 16.507812 -42.320312 16.40625 -42.15625 L 12.6875 -37.21875 C 12.488281 -36.988281 12.257812 -36.875 12 -36.875 Z M 8.421875 -36.875 "/></g></g></g><g fill="#929292" fill-opacity="0.4"><g transform="translate(264.718728, 95.658493)"><g><path d="M 16.359375 0 C 15.972656 0 15.765625 -0.175781 15.734375 -0.53125 L 14.953125 -5.171875 C 14.953125 -5.335938 14.859375 -5.421875 14.671875 -5.421875 L 8.515625 -5.421875 C 8.328125 -5.421875 8.234375 -5.335938 8.234375 -5.171875 L 7.453125 -0.53125 C 7.421875 -0.175781 7.210938 0 6.828125 0 L 1.15625 0 C 0.738281 0 0.578125 -0.207031 0.671875 -0.625 L 7.796875 -33.359375 C 7.859375 -33.710938 8.066406 -33.890625 8.421875 -33.890625 L 14.953125 -33.890625 C 15.304688 -33.890625 15.519531 -33.710938 15.59375 -33.359375 L 22.65625 -0.625 L 22.703125 -0.4375 C 22.703125 -0.144531 22.523438 0 22.171875 0 Z M 9.203125 -10.9375 C 9.203125 -10.78125 9.265625 -10.703125 9.390625 -10.703125 L 13.75 -10.703125 C 13.90625 -10.703125 13.96875 -10.78125 13.9375 -10.9375 L 11.671875 -24.15625 C 11.640625 -24.25 11.585938 -24.296875 11.515625 -24.296875 C 11.453125 -24.296875 11.40625 -24.25 11.375 -24.15625 Z M 9.203125 -10.9375 "/></g></g></g><g fill="#929292" fill-opacity="0.4"><g transform="translate(288.051257, 95.658493)"><g><path d="M 20.90625 -33.890625 C 21.070312 -33.890625 21.210938 -33.832031 21.328125 -33.71875 C 21.441406 -33.601562 21.5 -33.460938 21.5 -33.296875 L 21.5 -28.609375 C 21.5 -28.441406 21.441406 -28.300781 21.328125 -28.1875 C 21.210938 -28.082031 21.070312 -28.03125 20.90625 -28.03125 L 14.859375 -28.03125 C 14.703125 -28.03125 14.625 -27.945312 14.625 -27.78125 L 14.625 -0.578125 C 14.625 -0.421875 14.566406 -0.285156 14.453125 -0.171875 C 14.335938 -0.0546875 14.195312 0 14.03125 0 L 8.375 0 C 8.207031 0 8.066406 -0.0546875 7.953125 -0.171875 C 7.847656 -0.285156 7.796875 -0.421875 7.796875 -0.578125 L 7.796875 -27.78125 C 7.796875 -27.945312 7.710938 -28.03125 7.546875 -28.03125 L 1.75 -28.03125 C 1.582031 -28.03125 1.441406 -28.082031 1.328125 -28.1875 C 1.210938 -28.300781 1.15625 -28.441406 1.15625 -28.609375 L 1.15625 -33.296875 C 1.15625 -33.460938 1.210938 -33.601562 1.328125 -33.71875 C 1.441406 -33.832031 1.582031 -33.890625 1.75 -33.890625 Z M 20.90625 -33.890625 "/></g></g></g><g fill="#929292" fill-opacity="0.4"><g transform="translate(310.706093, 95.658493)"><g><path d="M 2.703125 0 C 2.546875 0 2.410156 -0.0546875 2.296875 -0.171875 C 2.179688 -0.285156 2.125 -0.421875 2.125 -0.578125 L 2.125 -33.296875 C 2.125 -33.460938 2.179688 -33.601562 2.296875 -33.71875 C 2.410156 -33.832031 2.546875 -33.890625 2.703125 -33.890625 L 8.375 -33.890625 C 8.53125 -33.890625 8.664062 -33.832031 8.78125 -33.71875 C 8.894531 -33.601562 8.953125 -33.460938 8.953125 -33.296875 L 8.953125 -0.578125 C 8.953125 -0.421875 8.894531 -0.285156 8.78125 -0.171875 C 8.664062 -0.0546875 8.53125 0 8.375 0 Z M 2.703125 0 "/></g></g></g><g fill="#929292" fill-opacity="0.4"><g transform="translate(321.839876, 95.658493)"><g><path d="M 11.421875 0.390625 C 8.453125 0.390625 6.078125 -0.476562 4.296875 -2.21875 C 2.523438 -3.96875 1.640625 -6.296875 1.640625 -9.203125 L 1.640625 -24.6875 C 1.640625 -27.59375 2.523438 -29.914062 4.296875 -31.65625 C 6.078125 -33.394531 8.453125 -34.265625 11.421875 -34.265625 C 14.390625 -34.265625 16.769531 -33.394531 18.5625 -31.65625 C 20.351562 -29.914062 21.25 -27.59375 21.25 -24.6875 L 21.25 -9.203125 C 21.25 -6.296875 20.351562 -3.96875 18.5625 -2.21875 C 16.769531 -0.476562 14.390625 0.390625 11.421875 0.390625 Z M 11.421875 -5.46875 C 12.328125 -5.46875 13.050781 -5.78125 13.59375 -6.40625 C 14.144531 -7.039062 14.421875 -7.875 14.421875 -8.90625 L 14.421875 -24.984375 C 14.421875 -26.015625 14.144531 -26.84375 13.59375 -27.46875 C 13.050781 -28.101562 12.328125 -28.421875 11.421875 -28.421875 C 10.515625 -28.421875 9.796875 -28.101562 9.265625 -27.46875 C 8.734375 -26.84375 8.46875 -26.015625 8.46875 -24.984375 L 8.46875 -8.90625 C 8.46875 -7.875 8.734375 -7.039062 9.265625 -6.40625 C 9.796875 -5.78125 10.515625 -5.46875 11.421875 -5.46875 Z M 11.421875 -5.46875 "/></g></g></g><g fill="#929292" fill-opacity="0.4"><g transform="translate(344.736752, 95.658493)"><g><path d="M 15.96875 -33.296875 C 15.96875 -33.460938 16.023438 -33.601562 16.140625 -33.71875 C 16.253906 -33.832031 16.394531 -33.890625 16.5625 -33.890625 L 22.171875 -33.890625 C 22.328125 -33.890625 22.460938 -33.832031 22.578125 -33.71875 C 22.691406 -33.601562 22.75 -33.460938 22.75 -33.296875 L 22.75 -0.578125 C 22.75 -0.421875 22.691406 -0.285156 22.578125 -0.171875 C 22.460938 -0.0546875 22.328125 0 22.171875 0 L 15.78125 0 C 15.457031 0 15.25 -0.160156 15.15625 -0.484375 L 9.15625 -19.21875 C 9.113281 -19.3125 9.050781 -19.347656 8.96875 -19.328125 C 8.894531 -19.316406 8.859375 -19.265625 8.859375 -19.171875 L 8.90625 -0.578125 C 8.90625 -0.421875 8.847656 -0.285156 8.734375 -0.171875 C 8.617188 -0.0546875 8.484375 0 8.328125 0 L 2.703125 0 C 2.546875 0 2.410156 -0.0546875 2.296875 -0.171875 C 2.179688 -0.285156 2.125 -0.421875 2.125 -0.578125 L 2.125 -33.296875 C 2.125 -33.460938 2.179688 -33.601562 2.296875 -33.71875 C 2.410156 -33.832031 2.546875 -33.890625 2.703125 -33.890625 L 9.046875 -33.890625 C 9.367188 -33.890625 9.582031 -33.726562 9.6875 -33.40625 L 15.734375 -14.671875 C 15.765625 -14.566406 15.816406 -14.523438 15.890625 -14.546875 C 15.972656 -14.566406 16.015625 -14.625 16.015625 -14.71875 Z M 15.96875 -33.296875 "/></g></g></g><g fill="#0e0e0e" fill-opacity="1"><g transform="translate(58.637256, 93.518824)"><g><path d="M 12.4375 -33.9375 C 14.21875 -33.9375 15.800781 -33.5 17.1875 -32.625 C 18.570312 -31.75 19.644531 -30.53125 20.40625 -28.96875 C 21.164062 -27.40625 21.546875 -25.625 21.546875 -23.625 C 21.546875 -20.625 20.738281 -18.21875 19.125 -16.40625 C 17.507812 -14.601562 15.394531 -13.703125 12.78125 -13.703125 L 9.15625 -13.703125 C 8.988281 -13.703125 8.90625 -13.617188 8.90625 -13.453125 L 8.90625 -0.578125 C 8.90625 -0.421875 8.847656 -0.285156 8.734375 -0.171875 C 8.617188 -0.0546875 8.484375 0 8.328125 0 L 2.65625 0 C 2.5 0 2.363281 -0.0546875 2.25 -0.171875 C 2.132812 -0.285156 2.078125 -0.421875 2.078125 -0.578125 L 2.078125 -33.359375 C 2.078125 -33.515625 2.132812 -33.648438 2.25 -33.765625 C 2.363281 -33.878906 2.5 -33.9375 2.65625 -33.9375 Z M 11.28125 -19.03125 C 12.3125 -19.03125 13.140625 -19.421875 13.765625 -20.203125 C 14.398438 -20.992188 14.71875 -22.085938 14.71875 -23.484375 C 14.71875 -24.898438 14.398438 -26.007812 13.765625 -26.8125 C 13.140625 -27.625 12.3125 -28.03125 11.28125 -28.03125 L 9.15625 -28.03125 C 8.988281 -28.03125 8.90625 -27.945312 8.90625 -27.78125 L 8.90625 -19.265625 C 8.90625 -19.109375 8.988281 -19.03125 9.15625 -19.03125 Z M 11.28125 -19.03125 "/></g></g></g><g fill="#0e0e0e" fill-opacity="1"><g transform="translate(81.14686, 93.518824)"><g><path d="M 15.484375 0 C 15.128906 0 14.90625 -0.160156 14.8125 -0.484375 L 11.078125 -13.84375 C 11.015625 -13.96875 10.9375 -14.03125 10.84375 -14.03125 L 9.203125 -14.03125 C 9.035156 -14.03125 8.953125 -13.953125 8.953125 -13.796875 L 8.953125 -0.578125 C 8.953125 -0.421875 8.894531 -0.285156 8.78125 -0.171875 C 8.664062 -0.0546875 8.53125 0 8.375 0 L 2.703125 0 C 2.546875 0 2.410156 -0.0546875 2.296875 -0.171875 C 2.179688 -0.285156 2.125 -0.421875 2.125 -0.578125 L 2.125 -33.296875 C 2.125 -33.460938 2.179688 -33.601562 2.296875 -33.71875 C 2.410156 -33.832031 2.546875 -33.890625 2.703125 -33.890625 L 12.484375 -33.890625 C 14.265625 -33.890625 15.847656 -33.457031 17.234375 -32.59375 C 18.617188 -31.738281 19.691406 -30.535156 20.453125 -28.984375 C 21.210938 -27.441406 21.59375 -25.671875 21.59375 -23.671875 C 21.59375 -21.765625 21.226562 -20.082031 20.5 -18.625 C 19.769531 -17.175781 18.757812 -16.050781 17.46875 -15.25 C 17.40625 -15.21875 17.359375 -15.175781 17.328125 -15.125 C 17.296875 -15.070312 17.296875 -15.015625 17.328125 -14.953125 L 21.78125 -0.671875 L 21.828125 -0.484375 C 21.828125 -0.160156 21.648438 0 21.296875 0 Z M 9.203125 -28.03125 C 9.035156 -28.03125 8.953125 -27.945312 8.953125 -27.78125 L 8.953125 -19.5 C 8.953125 -19.34375 9.035156 -19.265625 9.203125 -19.265625 L 11.375 -19.265625 C 12.375 -19.265625 13.1875 -19.660156 13.8125 -20.453125 C 14.445312 -21.242188 14.765625 -22.300781 14.765625 -23.625 C 14.765625 -24.976562 14.445312 -26.050781 13.8125 -26.84375 C 13.1875 -27.632812 12.375 -28.03125 11.375 -28.03125 Z M 9.203125 -28.03125 "/></g></g></g><g fill="#0e0e0e" fill-opacity="1"><g transform="translate(103.946907, 93.518824)"><g><path d="M 2.703125 0 C 2.546875 0 2.410156 -0.0546875 2.296875 -0.171875 C 2.179688 -0.285156 2.125 -0.421875 2.125 -0.578125 L 2.125 -33.296875 C 2.125 -33.460938 2.179688 -33.601562 2.296875 -33.71875 C 2.410156 -33.832031 2.546875 -33.890625 2.703125 -33.890625 L 8.375 -33.890625 C 8.53125 -33.890625 8.664062 -33.832031 8.78125 -33.71875 C 8.894531 -33.601562 8.953125 -33.460938 8.953125 -33.296875 L 8.953125 -0.578125 C 8.953125 -0.421875 8.894531 -0.285156 8.78125 -0.171875 C 8.664062 -0.0546875 8.53125 0 8.375 0 Z M 2.703125 0 "/></g></g></g><g fill="#0e0e0e" fill-opacity="1"><g transform="translate(115.08069, 93.518824)"><g><path d="M 10.84375 0.390625 C 8.96875 0.390625 7.320312 0.0195312 5.90625 -0.71875 C 4.488281 -1.46875 3.390625 -2.507812 2.609375 -3.84375 C 1.835938 -5.1875 1.453125 -6.726562 1.453125 -8.46875 L 1.453125 -9.875 C 1.453125 -10.03125 1.507812 -10.164062 1.625 -10.28125 C 1.738281 -10.394531 1.875 -10.453125 2.03125 -10.453125 L 7.59375 -10.453125 C 7.757812 -10.453125 7.898438 -10.394531 8.015625 -10.28125 C 8.128906 -10.164062 8.1875 -10.03125 8.1875 -9.875 L 8.1875 -8.8125 C 8.1875 -7.8125 8.441406 -7.003906 8.953125 -6.390625 C 9.472656 -5.773438 10.117188 -5.46875 10.890625 -5.46875 C 11.660156 -5.46875 12.304688 -5.757812 12.828125 -6.34375 C 13.347656 -6.925781 13.609375 -7.679688 13.609375 -8.609375 C 13.609375 -9.578125 13.285156 -10.410156 12.640625 -11.109375 C 11.992188 -11.804688 10.734375 -12.832031 8.859375 -14.1875 C 7.242188 -15.34375 5.9375 -16.375 4.9375 -17.28125 C 3.9375 -18.1875 3.082031 -19.300781 2.375 -20.625 C 1.664062 -21.945312 1.3125 -23.476562 1.3125 -25.21875 C 1.3125 -27.957031 2.164062 -30.148438 3.875 -31.796875 C 5.582031 -33.441406 7.84375 -34.265625 10.65625 -34.265625 C 13.488281 -34.265625 15.769531 -33.410156 17.5 -31.703125 C 19.226562 -29.992188 20.09375 -27.753906 20.09375 -24.984375 L 20.09375 -23.8125 C 20.09375 -23.65625 20.035156 -23.519531 19.921875 -23.40625 C 19.804688 -23.289062 19.664062 -23.234375 19.5 -23.234375 L 13.9375 -23.234375 C 13.78125 -23.234375 13.644531 -23.289062 13.53125 -23.40625 C 13.414062 -23.519531 13.359375 -23.65625 13.359375 -23.8125 L 13.359375 -25.125 C 13.359375 -26.125 13.109375 -26.921875 12.609375 -27.515625 C 12.109375 -28.117188 11.457031 -28.421875 10.65625 -28.421875 C 9.875 -28.421875 9.238281 -28.132812 8.75 -27.5625 C 8.269531 -27 8.03125 -26.21875 8.03125 -25.21875 C 8.03125 -24.25 8.335938 -23.394531 8.953125 -22.65625 C 9.566406 -21.914062 10.773438 -20.882812 12.578125 -19.5625 C 14.585938 -18.070312 16.097656 -16.867188 17.109375 -15.953125 C 18.128906 -15.035156 18.921875 -14.019531 19.484375 -12.90625 C 20.046875 -11.789062 20.328125 -10.457031 20.328125 -8.90625 C 20.328125 -6.0625 19.457031 -3.800781 17.71875 -2.125 C 15.976562 -0.445312 13.6875 0.390625 10.84375 0.390625 Z M 10.84375 0.390625 "/></g></g></g><g fill="#0e0e0e" fill-opacity="1"><g transform="translate(136.573722, 93.518824)"><g><path d="M 17.625 -33.5 C 17.75 -33.757812 17.988281 -33.890625 18.34375 -33.890625 L 23.96875 -33.890625 C 24.125 -33.890625 24.257812 -33.832031 24.375 -33.71875 C 24.488281 -33.601562 24.546875 -33.460938 24.546875 -33.296875 L 24.546875 -0.578125 C 24.546875 -0.421875 24.488281 -0.285156 24.375 -0.171875 C 24.257812 -0.0546875 24.125 0 23.96875 0 L 18.296875 0 C 18.140625 0 18.003906 -0.0546875 17.890625 -0.171875 C 17.773438 -0.285156 17.71875 -0.421875 17.71875 -0.578125 L 17.71875 -22.3125 C 17.71875 -22.445312 17.679688 -22.515625 17.609375 -22.515625 C 17.546875 -22.515625 17.484375 -22.460938 17.421875 -22.359375 L 13.65625 -15.6875 C 13.488281 -15.425781 13.359375 -15.296875 13.265625 -15.296875 C 13.171875 -15.296875 13.039062 -15.425781 12.875 -15.6875 L 9.09375 -22.359375 C 9.03125 -22.460938 8.96875 -22.515625 8.90625 -22.515625 C 8.84375 -22.515625 8.8125 -22.445312 8.8125 -22.3125 L 8.8125 -0.578125 C 8.8125 -0.421875 8.753906 -0.285156 8.640625 -0.171875 C 8.523438 -0.0546875 8.390625 0 8.234375 0 L 2.5625 0 C 2.40625 0 2.269531 -0.0546875 2.15625 -0.171875 C 2.039062 -0.285156 1.984375 -0.421875 1.984375 -0.578125 L 1.984375 -33.296875 C 1.984375 -33.460938 2.039062 -33.601562 2.15625 -33.71875 C 2.269531 -33.832031 2.40625 -33.890625 2.5625 -33.890625 L 8.125 -33.890625 C 8.445312 -33.890625 8.691406 -33.757812 8.859375 -33.5 L 13.171875 -25.796875 C 13.265625 -25.671875 13.359375 -25.671875 13.453125 -25.796875 Z M 17.625 -33.5 "/></g></g></g><g fill="#0e0e0e" fill-opacity="1"><g transform="translate(163.101164, 93.518824)"><g><path d="M 16.359375 0 C 15.972656 0 15.765625 -0.175781 15.734375 -0.53125 L 14.953125 -5.171875 C 14.953125 -5.335938 14.859375 -5.421875 14.671875 -5.421875 L 8.515625 -5.421875 C 8.328125 -5.421875 8.234375 -5.335938 8.234375 -5.171875 L 7.453125 -0.53125 C 7.421875 -0.175781 7.210938 0 6.828125 0 L 1.15625 0 C 0.738281 0 0.578125 -0.207031 0.671875 -0.625 L 7.796875 -33.359375 C 7.859375 -33.710938 8.066406 -33.890625 8.421875 -33.890625 L 14.953125 -33.890625 C 15.304688 -33.890625 15.519531 -33.710938 15.59375 -33.359375 L 22.65625 -0.625 L 22.703125 -0.4375 C 22.703125 -0.144531 22.523438 0 22.171875 0 Z M 9.203125 -10.9375 C 9.203125 -10.78125 9.265625 -10.703125 9.390625 -10.703125 L 13.75 -10.703125 C 13.90625 -10.703125 13.96875 -10.78125 13.9375 -10.9375 L 11.671875 -24.15625 C 11.640625 -24.25 11.585938 -24.296875 11.515625 -24.296875 C 11.453125 -24.296875 11.40625 -24.25 11.375 -24.15625 Z M 9.203125 -10.9375 "/></g></g></g><g fill="#0e0e0e" fill-opacity="1"><g transform="translate(186.433693, 93.518824)"><g/></g></g><g fill="#0e0e0e" fill-opacity="1"><g transform="translate(196.11524, 93.518824)"><g><path d="M 11.28125 0.390625 C 8.375 0.390625 6.039062 -0.472656 4.28125 -2.203125 C 2.519531 -3.929688 1.640625 -6.25 1.640625 -9.15625 L 1.640625 -24.828125 C 1.640625 -27.703125 2.519531 -29.992188 4.28125 -31.703125 C 6.039062 -33.410156 8.375 -34.265625 11.28125 -34.265625 C 14.21875 -34.265625 16.5625 -33.410156 18.3125 -31.703125 C 20.070312 -29.992188 20.953125 -27.703125 20.953125 -24.828125 L 20.953125 -24.296875 C 20.953125 -24.140625 20.894531 -24.003906 20.78125 -23.890625 C 20.675781 -23.773438 20.539062 -23.71875 20.375 -23.71875 L 14.71875 -23.484375 C 14.332031 -23.484375 14.140625 -23.660156 14.140625 -24.015625 L 14.140625 -25.265625 C 14.140625 -26.203125 13.878906 -26.960938 13.359375 -27.546875 C 12.835938 -28.128906 12.144531 -28.421875 11.28125 -28.421875 C 10.4375 -28.421875 9.753906 -28.128906 9.234375 -27.546875 C 8.722656 -26.960938 8.46875 -26.203125 8.46875 -25.265625 L 8.46875 -8.5625 C 8.46875 -7.632812 8.722656 -6.882812 9.234375 -6.3125 C 9.753906 -5.75 10.4375 -5.46875 11.28125 -5.46875 C 12.144531 -5.46875 12.835938 -5.75 13.359375 -6.3125 C 13.878906 -6.882812 14.140625 -7.632812 14.140625 -8.5625 L 14.140625 -9.875 C 14.140625 -10.03125 14.191406 -10.164062 14.296875 -10.28125 C 14.410156 -10.394531 14.550781 -10.453125 14.71875 -10.453125 L 20.375 -10.21875 C 20.539062 -10.21875 20.675781 -10.160156 20.78125 -10.046875 C 20.894531 -9.929688 20.953125 -9.796875 20.953125 -9.640625 L 20.953125 -9.15625 C 20.953125 -6.25 20.066406 -3.929688 18.296875 -2.203125 C 16.523438 -0.472656 14.1875 0.390625 11.28125 0.390625 Z M 11.28125 0.390625 "/></g></g></g><g fill="#0e0e0e" fill-opacity="1"><g transform="translate(218.57643, 93.518824)"><g><path d="M 15.484375 0 C 15.128906 0 14.90625 -0.160156 14.8125 -0.484375 L 11.078125 -13.84375 C 11.015625 -13.96875 10.9375 -14.03125 10.84375 -14.03125 L 9.203125 -14.03125 C 9.035156 -14.03125 8.953125 -13.953125 8.953125 -13.796875 L 8.953125 -0.578125 C 8.953125 -0.421875 8.894531 -0.285156 8.78125 -0.171875 C 8.664062 -0.0546875 8.53125 0 8.375 0 L 2.703125 0 C 2.546875 0 2.410156 -0.0546875 2.296875 -0.171875 C 2.179688 -0.285156 2.125 -0.421875 2.125 -0.578125 L 2.125 -33.296875 C 2.125 -33.460938 2.179688 -33.601562 2.296875 -33.71875 C 2.410156 -33.832031 2.546875 -33.890625 2.703125 -33.890625 L 12.484375 -33.890625 C 14.265625 -33.890625 15.847656 -33.457031 17.234375 -32.59375 C 18.617188 -31.738281 19.691406 -30.535156 20.453125 -28.984375 C 21.210938 -27.441406 21.59375 -25.671875 21.59375 -23.671875 C 21.59375 -21.765625 21.226562 -20.082031 20.5 -18.625 C 19.769531 -17.175781 18.757812 -16.050781 17.46875 -15.25 C 17.40625 -15.21875 17.359375 -15.175781 17.328125 -15.125 C 17.296875 -15.070312 17.296875 -15.015625 17.328125 -14.953125 L 21.78125 -0.671875 L 21.828125 -0.484375 C 21.828125 -0.160156 21.648438 0 21.296875 0 Z M 9.203125 -28.03125 C 9.035156 -28.03125 8.953125 -27.945312 8.953125 -27.78125 L 8.953125 -19.5 C 8.953125 -19.34375 9.035156 -19.265625 9.203125 -19.265625 L 11.375 -19.265625 C 12.375 -19.265625 13.1875 -19.660156 13.8125 -20.453125 C 14.445312 -21.242188 14.765625 -22.300781 14.765625 -23.625 C 14.765625 -24.976562 14.445312 -26.050781 13.8125 -26.84375 C 13.1875 -27.632812 12.375 -28.03125 11.375 -28.03125 Z M 9.203125 -28.03125 "/></g></g></g><g fill="#0e0e0e" fill-opacity="1"><g transform="translate(241.376477, 93.518824)"><g><path d="M 19.890625 -28.609375 C 19.890625 -28.441406 19.832031 -28.300781 19.71875 -28.1875 C 19.613281 -28.082031 19.476562 -28.03125 19.3125 -28.03125 L 9.203125 -28.03125 C 9.035156 -28.03125 8.953125 -27.945312 8.953125 -27.78125 L 8.953125 -20.140625 C 8.953125 -19.972656 9.035156 -19.890625 9.203125 -19.890625 L 15 -19.890625 C 15.164062 -19.890625 15.304688 -19.832031 15.421875 -19.71875 C 15.535156 -19.613281 15.59375 -19.476562 15.59375 -19.3125 L 15.59375 -14.625 C 15.59375 -14.457031 15.535156 -14.316406 15.421875 -14.203125 C 15.304688 -14.085938 15.164062 -14.03125 15 -14.03125 L 9.203125 -14.03125 C 9.035156 -14.03125 8.953125 -13.953125 8.953125 -13.796875 L 8.953125 -6.09375 C 8.953125 -5.9375 9.035156 -5.859375 9.203125 -5.859375 L 19.3125 -5.859375 C 19.476562 -5.859375 19.613281 -5.800781 19.71875 -5.6875 C 19.832031 -5.570312 19.890625 -5.4375 19.890625 -5.28125 L 19.890625 -0.578125 C 19.890625 -0.421875 19.832031 -0.285156 19.71875 -0.171875 C 19.613281 -0.0546875 19.476562 0 19.3125 0 L 2.703125 0 C 2.546875 0 2.410156 -0.0546875 2.296875 -0.171875 C 2.179688 -0.285156 2.125 -0.421875 2.125 -0.578125 L 2.125 -33.296875 C 2.125 -33.460938 2.179688 -33.601562 2.296875 -33.71875 C 2.410156 -33.832031 2.546875 -33.890625 2.703125 -33.890625 L 19.3125 -33.890625 C 19.476562 -33.890625 19.613281 -33.832031 19.71875 -33.71875 C 19.832031 -33.601562 19.890625 -33.460938 19.890625 -33.296875 Z M 8.421875 -36.875 C 8.191406 -36.875 8.03125 -36.9375 7.9375 -37.0625 C 7.84375 -37.195312 7.859375 -37.363281 7.984375 -37.5625 L 10.84375 -42.5 C 10.96875 -42.757812 11.207031 -42.890625 11.5625 -42.890625 L 16.078125 -42.890625 C 16.398438 -42.890625 16.5625 -42.773438 16.5625 -42.546875 C 16.5625 -42.453125 16.507812 -42.320312 16.40625 -42.15625 L 12.6875 -37.21875 C 12.488281 -36.988281 12.257812 -36.875 12 -36.875 Z M 8.421875 -36.875 "/></g></g></g><g fill="#0e0e0e" fill-opacity="1"><g transform="translate(262.579056, 93.518824)"><g><path d="M 16.359375 0 C 15.972656 0 15.765625 -0.175781 15.734375 -0.53125 L 14.953125 -5.171875 C 14.953125 -5.335938 14.859375 -5.421875 14.671875 -5.421875 L 8.515625 -5.421875 C 8.328125 -5.421875 8.234375 -5.335938 8.234375 -5.171875 L 7.453125 -0.53125 C 7.421875 -0.175781 7.210938 0 6.828125 0 L 1.15625 0 C 0.738281 0 0.578125 -0.207031 0.671875 -0.625 L 7.796875 -33.359375 C 7.859375 -33.710938 8.066406 -33.890625 8.421875 -33.890625 L 14.953125 -33.890625 C 15.304688 -33.890625 15.519531 -33.710938 15.59375 -33.359375 L 22.65625 -0.625 L 22.703125 -0.4375 C 22.703125 -0.144531 22.523438 0 22.171875 0 Z M 9.203125 -10.9375 C 9.203125 -10.78125 9.265625 -10.703125 9.390625 -10.703125 L 13.75 -10.703125 C 13.90625 -10.703125 13.96875 -10.78125 13.9375 -10.9375 L 11.671875 -24.15625 C 11.640625 -24.25 11.585938 -24.296875 11.515625 -24.296875 C 11.453125 -24.296875 11.40625 -24.25 11.375 -24.15625 Z M 9.203125 -10.9375 "/></g></g></g><g fill="#0e0e0e" fill-opacity="1"><g transform="translate(285.911585, 93.518824)"><g><path d="M 20.90625 -33.890625 C 21.070312 -33.890625 21.210938 -33.832031 21.328125 -33.71875 C 21.441406 -33.601562 21.5 -33.460938 21.5 -33.296875 L 21.5 -28.609375 C 21.5 -28.441406 21.441406 -28.300781 21.328125 -28.1875 C 21.210938 -28.082031 21.070312 -28.03125 20.90625 -28.03125 L 14.859375 -28.03125 C 14.703125 -28.03125 14.625 -27.945312 14.625 -27.78125 L 14.625 -0.578125 C 14.625 -0.421875 14.566406 -0.285156 14.453125 -0.171875 C 14.335938 -0.0546875 14.195312 0 14.03125 0 L 8.375 0 C 8.207031 0 8.066406 -0.0546875 7.953125 -0.171875 C 7.847656 -0.285156 7.796875 -0.421875 7.796875 -0.578125 L 7.796875 -27.78125 C 7.796875 -27.945312 7.710938 -28.03125 7.546875 -28.03125 L 1.75 -28.03125 C 1.582031 -28.03125 1.441406 -28.082031 1.328125 -28.1875 C 1.210938 -28.300781 1.15625 -28.441406 1.15625 -28.609375 L 1.15625 -33.296875 C 1.15625 -33.460938 1.210938 -33.601562 1.328125 -33.71875 C 1.441406 -33.832031 1.582031 -33.890625 1.75 -33.890625 Z M 20.90625 -33.890625 "/></g></g></g><g fill="#0e0e0e" fill-opacity="1"><g transform="translate(308.566421, 93.518824)"><g><path d="M 2.703125 0 C 2.546875 0 2.410156 -0.0546875 2.296875 -0.171875 C 2.179688 -0.285156 2.125 -0.421875 2.125 -0.578125 L 2.125 -33.296875 C 2.125 -33.460938 2.179688 -33.601562 2.296875 -33.71875 C 2.410156 -33.832031 2.546875 -33.890625 2.703125 -33.890625 L 8.375 -33.890625 C 8.53125 -33.890625 8.664062 -33.832031 8.78125 -33.71875 C 8.894531 -33.601562 8.953125 -33.460938 8.953125 -33.296875 L 8.953125 -0.578125 C 8.953125 -0.421875 8.894531 -0.285156 8.78125 -0.171875 C 8.664062 -0.0546875 8.53125 0 8.375 0 Z M 2.703125 0 "/></g></g></g><g fill="#0e0e0e" fill-opacity="1"><g transform="translate(319.700204, 93.518824)"><g><path d="M 11.421875 0.390625 C 8.453125 0.390625 6.078125 -0.476562 4.296875 -2.21875 C 2.523438 -3.96875 1.640625 -6.296875 1.640625 -9.203125 L 1.640625 -24.6875 C 1.640625 -27.59375 2.523438 -29.914062 4.296875 -31.65625 C 6.078125 -33.394531 8.453125 -34.265625 11.421875 -34.265625 C 14.390625 -34.265625 16.769531 -33.394531 18.5625 -31.65625 C 20.351562 -29.914062 21.25 -27.59375 21.25 -24.6875 L 21.25 -9.203125 C 21.25 -6.296875 20.351562 -3.96875 18.5625 -2.21875 C 16.769531 -0.476562 14.390625 0.390625 11.421875 0.390625 Z M 11.421875 -5.46875 C 12.328125 -5.46875 13.050781 -5.78125 13.59375 -6.40625 C 14.144531 -7.039062 14.421875 -7.875 14.421875 -8.90625 L 14.421875 -24.984375 C 14.421875 -26.015625 14.144531 -26.84375 13.59375 -27.46875 C 13.050781 -28.101562 12.328125 -28.421875 11.421875 -28.421875 C 10.515625 -28.421875 9.796875 -28.101562 9.265625 -27.46875 C 8.734375 -26.84375 8.46875 -26.015625 8.46875 -24.984375 L 8.46875 -8.90625 C 8.46875 -7.875 8.734375 -7.039062 9.265625 -6.40625 C 9.796875 -5.78125 10.515625 -5.46875 11.421875 -5.46875 Z M 11.421875 -5.46875 "/></g></g></g><g fill="#0e0e0e" fill-opacity="1"><g transform="translate(342.59708, 93.518824)"><g><path d="M 15.96875 -33.296875 C 15.96875 -33.460938 16.023438 -33.601562 16.140625 -33.71875 C 16.253906 -33.832031 16.394531 -33.890625 16.5625 -33.890625 L 22.171875 -33.890625 C 22.328125 -33.890625 22.460938 -33.832031 22.578125 -33.71875 C 22.691406 -33.601562 22.75 -33.460938 22.75 -33.296875 L 22.75 -0.578125 C 22.75 -0.421875 22.691406 -0.285156 22.578125 -0.171875 C 22.460938 -0.0546875 22.328125 0 22.171875 0 L 15.78125 0 C 15.457031 0 15.25 -0.160156 15.15625 -0.484375 L 9.15625 -19.21875 C 9.113281 -19.3125 9.050781 -19.347656 8.96875 -19.328125 C 8.894531 -19.316406 8.859375 -19.265625 8.859375 -19.171875 L 8.90625 -0.578125 C 8.90625 -0.421875 8.847656 -0.285156 8.734375 -0.171875 C 8.617188 -0.0546875 8.484375 0 8.328125 0 L 2.703125 0 C 2.546875 0 2.410156 -0.0546875 2.296875 -0.171875 C 2.179688 -0.285156 2.125 -0.421875 2.125 -0.578125 L 2.125 -33.296875 C 2.125 -33.460938 2.179688 -33.601562 2.296875 -33.71875 C 2.410156 -33.832031 2.546875 -33.890625 2.703125 -33.890625 L 9.046875 -33.890625 C 9.367188 -33.890625 9.582031 -33.726562 9.6875 -33.40625 L 15.734375 -14.671875 C 15.765625 -14.566406 15.816406 -14.523438 15.890625 -14.546875 C 15.972656 -14.566406 16.015625 -14.625 16.015625 -14.71875 Z M 15.96875 -33.296875 "/></g></g></g></svg>